# This file was created with Minddesk Qubicle 2.0
# Get Qubicle at www.minddesk.com

mtllib env_well_crane.mtl

vn 0.0 0.0 1.0
vn 0.0 0.0 -1.0
vn -1.0 0.0 0.0
vn 1.0 0.0 0.0
vn 0.0 1.0 0.0
vn 0.0 -1.0 0.0

v 2.50000 6.50000 12.50000
v 2.50000 -0.50000 12.50000
v -3.50000 -0.50000 12.50000
v -3.50000 6.50000 12.50000
v 0.50000 15.50000 1.50000
v 0.50000 -0.50000 1.50000
v -0.50000 -0.50000 1.50000
v -0.50000 15.50000 1.50000
v 0.50000 17.50000 16.50000
v 0.50000 7.50000 16.50000
v -0.50000 7.50000 16.50000
v -0.50000 17.50000 16.50000
v -3.50000 6.50000 13.50000
v -3.50000 -0.50000 13.50000
v -4.50000 -0.50000 13.50000
v -4.50000 6.50000 13.50000
v 2.50000 7.50000 11.50000
v 2.50000 6.50000 11.50000
v -3.50000 6.50000 11.50000
v -3.50000 7.50000 11.50000
v 1.50000 7.50000 19.50000
v 1.50000 0.50000 19.50000
v 0.50000 0.50000 19.50000
v 0.50000 7.50000 19.50000
v 3.50000 6.50000 13.50000
v 3.50000 -0.50000 13.50000
v 2.50000 -0.50000 13.50000
v 2.50000 6.50000 13.50000
v -1.50000 18.50000 1.50000
v -1.50000 15.50000 1.50000
v -2.50000 15.50000 1.50000
v -2.50000 18.50000 1.50000
v 2.50000 16.50000 1.50000
v 2.50000 15.50000 1.50000
v -1.50000 16.50000 1.50000
v -0.50000 19.50000 -16.50000
v -0.50000 17.50000 -16.50000
v -1.50000 17.50000 -16.50000
v -1.50000 19.50000 -16.50000
v 1.50000 19.50000 -16.50000
v 1.50000 18.50000 -16.50000
v -0.50000 18.50000 -16.50000
v 2.50000 18.50000 1.50000
v 1.50000 16.50000 1.50000
v 1.50000 18.50000 1.50000
v -4.50000 7.50000 13.50000
v -5.50000 6.50000 13.50000
v -5.50000 7.50000 13.50000
v -3.50000 7.50000 12.50000
v -4.50000 6.50000 12.50000
v -4.50000 7.50000 12.50000
v 0.50000 17.50000 1.50000
v 0.50000 16.50000 1.50000
v -0.50000 16.50000 1.50000
v -0.50000 17.50000 1.50000
v 0.50000 18.50000 -17.50000
v 0.50000 17.50000 -17.50000
v -0.50000 17.50000 -17.50000
v -0.50000 18.50000 -17.50000
v 1.50000 17.50000 -16.50000
v 0.50000 17.50000 -16.50000
v 0.50000 18.50000 -16.50000
v 3.50000 7.50000 12.50000
v 3.50000 6.50000 12.50000
v 2.50000 7.50000 12.50000
v 4.50000 7.50000 13.50000
v 4.50000 6.50000 13.50000
v 3.50000 7.50000 13.50000
v -3.50000 6.50000 20.50000
v -3.50000 -0.50000 20.50000
v 2.50000 -0.50000 20.50000
v 2.50000 6.50000 20.50000
v -0.50000 15.50000 2.50000
v -0.50000 -0.50000 2.50000
v 0.50000 -0.50000 2.50000
v 0.50000 15.50000 2.50000
v -0.50000 18.50000 17.50000
v -0.50000 7.50000 17.50000
v 0.50000 7.50000 17.50000
v 0.50000 18.50000 17.50000
v -4.50000 6.50000 19.50000
v -4.50000 -0.50000 19.50000
v -3.50000 -0.50000 19.50000
v -3.50000 6.50000 19.50000
v -3.50000 7.50000 21.50000
v -3.50000 6.50000 21.50000
v 2.50000 6.50000 21.50000
v 2.50000 7.50000 21.50000
v 0.50000 7.50000 18.50000
v 0.50000 0.50000 18.50000
v 1.50000 0.50000 18.50000
v 1.50000 7.50000 18.50000
v 2.50000 6.50000 19.50000
v 2.50000 -0.50000 19.50000
v 3.50000 -0.50000 19.50000
v 3.50000 6.50000 19.50000
v -2.50000 18.50000 2.50000
v -2.50000 15.50000 2.50000
v -1.50000 15.50000 2.50000
v -1.50000 18.50000 2.50000
v -1.50000 16.50000 2.50000
v 2.50000 15.50000 2.50000
v 2.50000 16.50000 2.50000
v -1.50000 19.50000 -14.50000
v -1.50000 17.50000 -14.50000
v -0.50000 17.50000 -14.50000
v -0.50000 19.50000 -14.50000
v -0.50000 18.50000 -14.50000
v 1.50000 18.50000 -14.50000
v 1.50000 19.50000 -14.50000
v 1.50000 18.50000 2.50000
v 1.50000 16.50000 2.50000
v 2.50000 18.50000 2.50000
v -5.50000 7.50000 19.50000
v -5.50000 6.50000 19.50000
v -4.50000 7.50000 19.50000
v -4.50000 7.50000 20.50000
v -4.50000 6.50000 20.50000
v -3.50000 7.50000 20.50000
v -0.50000 17.50000 2.50000
v -0.50000 16.50000 2.50000
v 0.50000 16.50000 2.50000
v 0.50000 17.50000 2.50000
v 0.50000 18.50000 -14.50000
v 0.50000 17.50000 -14.50000
v 1.50000 17.50000 -14.50000
v 2.50000 7.50000 20.50000
v 3.50000 6.50000 20.50000
v 3.50000 7.50000 20.50000
v 3.50000 7.50000 19.50000
v 4.50000 6.50000 19.50000
v 4.50000 7.50000 19.50000
v -0.50000 18.50000 16.50000
v -0.50000 18.50000 1.50000
v -0.50000 18.50000 2.50000
v 0.50000 18.50000 16.50000
v 0.50000 18.50000 1.50000
v 0.50000 18.50000 2.50000
v -3.50000 7.50000 19.50000
v -0.50000 7.50000 19.50000
v -0.50000 7.50000 11.50000
v 2.50000 7.50000 19.50000
v 1.50000 7.50000 16.50000
v 1.50000 7.50000 11.50000

vt 0.01563 0.51563
vt 0.01563 0.01563
vt 0.03125 0.01563
vt 0.03125 0.51563
vt 0.06250 0.31250
vt 0.06250 0.01563
vt 0.07813 0.01563
vt 0.07813 0.31250
vt 0.10938 0.26563
vt 0.10938 0.01563
vt 0.12500 0.01563
vt 0.12500 0.26563
vt 0.15625 0.26563
vt 0.15625 0.01563
vt 0.17188 0.01563
vt 0.17188 0.26563
vt 0.20313 0.26563
vt 0.20313 0.01563
vt 0.21875 0.01563
vt 0.21875 0.26563
vt 0.25000 0.26563
vt 0.25000 0.01563
vt 0.26563 0.01563
vt 0.26563 0.26563
vt 0.29688 0.23438
vt 0.29688 0.01563
vt 0.31250 0.01563
vt 0.31250 0.23438
vt 0.34375 0.18750
vt 0.34375 0.01563
vt 0.35938 0.01563
vt 0.35938 0.18750
vt 0.39063 0.18750
vt 0.39063 0.01563
vt 0.40625 0.01563
vt 0.40625 0.18750
vt 0.43750 0.18750
vt 0.43750 0.01563
vt 0.45313 0.01563
vt 0.45313 0.18750
vt 0.48438 0.17188
vt 0.48438 0.01563
vt 0.50000 0.01563
vt 0.50000 0.17188
vt 0.53125 0.14063
vt 0.53125 0.01563
vt 0.62500 0.01563
vt 0.62500 0.14063
vt 0.65625 0.14063
vt 0.65625 0.01563
vt 0.70313 0.01563
vt 0.70313 0.14063
vt 0.73438 0.14063
vt 0.73438 0.01563
vt 0.75000 0.01563
vt 0.75000 0.14063
vt 0.78125 0.14063
vt 0.78125 0.01563
vt 0.79688 0.01563
vt 0.79688 0.14063
vt 0.82813 0.14063
vt 0.82813 0.01563
vt 0.84375 0.01563
vt 0.84375 0.14063
vt 0.87500 0.12500
vt 0.87500 0.01563
vt 0.96875 0.01563
vt 0.96875 0.12500
vt 0.06250 0.45313
vt 0.06250 0.34375
vt 0.15625 0.34375
vt 0.15625 0.45313
vt 0.18750 0.45313
vt 0.18750 0.34375
vt 0.28125 0.34375
vt 0.28125 0.45313
vt 0.31250 0.45313
vt 0.31250 0.34375
vt 0.40625 0.34375
vt 0.40625 0.45313
vt 0.43750 0.45313
vt 0.43750 0.34375
vt 0.45313 0.34375
vt 0.45313 0.45313
vt 0.48438 0.45313
vt 0.48438 0.34375
vt 0.50000 0.34375
vt 0.50000 0.45313
vt 0.53125 0.45313
vt 0.53125 0.34375
vt 0.54688 0.34375
vt 0.54688 0.45313
vt 0.57813 0.45313
vt 0.57813 0.34375
vt 0.59375 0.34375
vt 0.59375 0.45313
vt 0.62500 0.45313
vt 0.62500 0.34375
vt 0.64063 0.34375
vt 0.64063 0.45313
vt 0.67188 0.45313
vt 0.67188 0.34375
vt 0.68750 0.34375
vt 0.68750 0.45313
vt 0.71875 0.45313
vt 0.71875 0.34375
vt 0.73438 0.34375
vt 0.73438 0.45313
vt 0.76563 0.45313
vt 0.76563 0.34375
vt 0.78125 0.34375
vt 0.78125 0.45313
vt 0.81250 0.45313
vt 0.81250 0.34375
vt 0.82813 0.34375
vt 0.82813 0.45313
vt 0.85938 0.45313
vt 0.85938 0.34375
vt 0.87500 0.34375
vt 0.87500 0.45313
vt 0.90625 0.45313
vt 0.90625 0.34375
vt 0.92188 0.34375
vt 0.92188 0.45313
vt 0.95313 0.45313
vt 0.95313 0.34375
vt 0.96875 0.34375
vt 0.96875 0.45313
vt 0.01563 0.64063
vt 0.01563 0.54688
vt 0.03125 0.54688
vt 0.03125 0.64063
vt 0.06250 0.64063
vt 0.06250 0.54688
vt 0.07813 0.54688
vt 0.07813 0.64063
vt 0.10938 0.64063
vt 0.10938 0.54688
vt 0.12500 0.54688
vt 0.12500 0.64063
vt 0.15625 0.64063
vt 0.15625 0.54688
vt 0.17188 0.54688
vt 0.17188 0.64063
vt 0.20313 0.64063
vt 0.20313 0.54688
vt 0.21875 0.54688
vt 0.21875 0.64063
vt 0.25000 0.64063
vt 0.25000 0.54688
vt 0.26563 0.54688
vt 0.26563 0.64063
vt 0.29688 0.62500
vt 0.29688 0.54688
vt 0.32813 0.54688
vt 0.32813 0.62500
vt 0.35938 0.59375
vt 0.35938 0.54688
vt 0.37500 0.54688
vt 0.37500 0.59375
vt 0.40625 0.59375
vt 0.40625 0.54688
vt 0.42188 0.54688
vt 0.42188 0.59375
vt 0.45313 0.59375
vt 0.45313 0.54688
vt 0.46875 0.54688
vt 0.46875 0.59375
vt 0.50000 0.59375
vt 0.50000 0.54688
vt 0.51563 0.54688
vt 0.51563 0.59375
vt 0.06250 0.51563
vt 0.06250 0.48438
vt 0.15625 0.48438
vt 0.15625 0.51563
vt 0.18750 0.51563
vt 0.18750 0.48438
vt 0.23438 0.48438
vt 0.23438 0.51563
vt 0.26563 0.51563
vt 0.26563 0.48438
vt 0.29688 0.48438
vt 0.29688 0.51563
vt 0.32813 0.51563
vt 0.32813 0.48438
vt 0.35938 0.48438
vt 0.35938 0.51563
vt 0.39063 0.51563
vt 0.39063 0.48438
vt 0.40625 0.48438
vt 0.40625 0.51563
vt 0.43750 0.51563
vt 0.43750 0.48438
vt 0.45313 0.48438
vt 0.45313 0.51563
vt 0.48438 0.51563
vt 0.48438 0.48438
vt 0.50000 0.48438
vt 0.50000 0.51563
vt 0.53125 0.51563
vt 0.53125 0.48438
vt 0.54688 0.48438
vt 0.54688 0.51563
vt 0.57813 0.51563
vt 0.57813 0.48438
vt 0.59375 0.48438
vt 0.59375 0.51563
vt 0.62500 0.51563
vt 0.62500 0.48438
vt 0.64063 0.48438
vt 0.64063 0.51563
vt 0.67188 0.51563
vt 0.67188 0.48438
vt 0.68750 0.48438
vt 0.68750 0.51563
vt 0.71875 0.51563
vt 0.71875 0.48438
vt 0.73438 0.48438
vt 0.73438 0.51563
vt 0.76563 0.51563
vt 0.76563 0.48438
vt 0.78125 0.48438
vt 0.78125 0.51563
vt 0.81250 0.51563
vt 0.81250 0.48438
vt 0.82813 0.48438
vt 0.82813 0.51563
vt 0.85938 0.51563
vt 0.85938 0.48438
vt 0.87500 0.48438
vt 0.87500 0.51563
vt 0.90625 0.51563
vt 0.90625 0.48438
vt 0.92188 0.48438
vt 0.92188 0.51563
vt 0.34375 0.23438
vt 0.34375 0.21875
vt 0.59375 0.21875
vt 0.59375 0.23438
vt 0.62500 0.23438
vt 0.62500 0.21875
vt 0.87500 0.21875
vt 0.87500 0.23438
vt 0.10938 0.31250
vt 0.10938 0.29688
vt 0.32813 0.29688
vt 0.32813 0.31250
vt 0.35938 0.31250
vt 0.35938 0.29688
vt 0.57813 0.29688
vt 0.57813 0.31250
vt 0.60938 0.31250
vt 0.60938 0.29688
vt 0.70313 0.29688
vt 0.70313 0.31250
vt 0.73438 0.31250
vt 0.73438 0.29688
vt 0.82813 0.29688
vt 0.82813 0.31250
vt 0.85938 0.31250
vt 0.85938 0.29688
vt 0.95313 0.29688
vt 0.95313 0.31250
vt 0.54688 0.56250
vt 0.54688 0.54688
vt 0.64063 0.54688
vt 0.64063 0.56250
vt 0.67188 0.56250
vt 0.67188 0.54688
vt 0.76563 0.54688
vt 0.76563 0.56250
vt 0.79688 0.56250
vt 0.79688 0.54688
vt 0.89063 0.54688
vt 0.89063 0.56250
vt 0.90625 0.23438
vt 0.90625 0.21875
vt 0.96875 0.21875
vt 0.96875 0.23438
vt 0.92188 0.56250
vt 0.92188 0.54688
vt 0.98438 0.54688
vt 0.98438 0.56250
vt 0.95313 0.50000
vt 0.95313 0.48438
vt 0.98438 0.48438
vt 0.98438 0.50000
vt 0.01563 0.68750
vt 0.01563 0.67188
vt 0.04688 0.67188
vt 0.04688 0.68750
vt 0.07813 0.68750
vt 0.07813 0.67188
vt 0.10938 0.67188
vt 0.10938 0.68750
vt 0.14063 0.68750
vt 0.14063 0.67188
vt 0.17188 0.67188
vt 0.17188 0.68750
vt 0.20313 0.68750
vt 0.20313 0.67188
vt 0.21875 0.67188
vt 0.21875 0.68750
vt 0.25000 0.68750
vt 0.25000 0.67188
vt 0.26563 0.67188
vt 0.26563 0.68750
vt 0.29688 0.68750
vt 0.29688 0.67188
vt 0.31250 0.67188
vt 0.31250 0.68750
vt 0.34375 0.68750
vt 0.34375 0.67188
vt 0.35938 0.67188
vt 0.35938 0.68750
vt 0.39063 0.68750
vt 0.39063 0.67188
vt 0.40625 0.67188
vt 0.40625 0.68750
vt 0.43750 0.68750
vt 0.43750 0.67188
vt 0.45313 0.67188
vt 0.45313 0.68750
vt 0.48438 0.68750
vt 0.48438 0.67188
vt 0.50000 0.67188
vt 0.50000 0.68750
vt 0.53125 0.68750
vt 0.53125 0.67188
vt 0.54688 0.67188
vt 0.54688 0.68750
vt 0.57813 0.68750
vt 0.57813 0.67188
vt 0.59375 0.67188
vt 0.59375 0.68750
vt 0.62500 0.68750
vt 0.62500 0.67188
vt 0.64063 0.67188
vt 0.64063 0.68750
vt 0.67188 0.68750
vt 0.67188 0.67188
vt 0.68750 0.67188
vt 0.68750 0.68750
vt 0.71875 0.68750
vt 0.71875 0.67188
vt 0.73438 0.67188
vt 0.73438 0.68750
vt 0.76563 0.68750
vt 0.76563 0.67188
vt 0.78125 0.67188
vt 0.78125 0.68750
vt 0.81250 0.68750
vt 0.81250 0.67188
vt 0.82813 0.67188
vt 0.82813 0.68750
vt 0.85938 0.68750
vt 0.85938 0.67188
vt 0.87500 0.67188
vt 0.87500 0.68750
vt 0.90625 0.68750
vt 0.90625 0.67188
vt 0.92188 0.67188
vt 0.92188 0.68750
vt 0.95313 0.68750
vt 0.95313 0.67188
vt 0.96875 0.67188
vt 0.96875 0.68750
vt 0.01563 0.73438
vt 0.01563 0.71875
vt 0.03125 0.71875
vt 0.03125 0.73438
vt 0.06250 0.73438
vt 0.06250 0.71875
vt 0.07813 0.71875
vt 0.07813 0.73438
vt 0.10938 0.73438
vt 0.10938 0.71875
vt 0.12500 0.71875
vt 0.12500 0.73438
vt 0.15625 0.73438
vt 0.15625 0.71875
vt 0.17188 0.71875
vt 0.17188 0.73438
vt 0.20313 0.73438
vt 0.20313 0.71875
vt 0.21875 0.71875
vt 0.21875 0.73438
vt 0.25000 0.73438
vt 0.25000 0.71875
vt 0.26563 0.71875
vt 0.26563 0.73438
vt 0.29688 0.73438
vt 0.29688 0.71875
vt 0.31250 0.71875
vt 0.31250 0.73438
vt 0.34375 0.73438
vt 0.34375 0.71875
vt 0.35938 0.71875
vt 0.35938 0.73438
vt 0.39063 0.73438
vt 0.39063 0.71875
vt 0.40625 0.71875
vt 0.40625 0.73438
vt 0.43750 0.73438
vt 0.43750 0.71875
vt 0.45313 0.71875
vt 0.45313 0.73438
vt 0.48438 0.73438
vt 0.48438 0.71875
vt 0.50000 0.71875
vt 0.50000 0.73438
vt 0.53125 0.73438
vt 0.53125 0.71875
vt 0.54688 0.71875
vt 0.54688 0.73438
vt 0.57813 0.73438
vt 0.57813 0.71875
vt 0.59375 0.71875
vt 0.59375 0.73438
vt 0.62500 0.73438
vt 0.62500 0.71875
vt 0.64063 0.71875
vt 0.64063 0.73438
vt 0.67188 0.73438
vt 0.67188 0.71875
vt 0.68750 0.71875
vt 0.68750 0.73438
vt 0.71875 0.73438
vt 0.71875 0.71875
vt 0.73438 0.71875
vt 0.73438 0.73438
vt 0.76563 0.73438
vt 0.76563 0.71875
vt 0.78125 0.71875
vt 0.78125 0.73438
vt 0.78125 0.31250
vt 0.75000 0.31250
vt 0.35938 0.56250
vt 0.92188 0.23438
vt 0.93750 0.23438
vt 0.95313 0.23438
vt 0.93750 0.21875
vt 0.95313 0.21875
vt 0.71875 0.50000
vt 0.09375 0.67188
vt 0.51563 0.56250
vt 0.96875 0.56250
vt 0.93750 0.56250
vt 0.95313 0.56250
vt 0.93750 0.54688
vt 0.95313 0.54688
vt 0.40625 0.50000
vt 0.15625 0.67188
vt 0.34375 0.17188
vt 0.54688 0.50000
vt 0.53125 0.50000
vt 0.45313 0.17188
vt 0.35938 0.50000
vt 0.32813 0.50000
vt 0.42188 0.56250
vt 0.40625 0.56250
vt 0.59375 0.50000
vt 0.57813 0.50000
vt 0.65625 0.12500
vt 0.70313 0.06250
vt 0.70313 0.04688
vt 0.01563 0.03125
vt 0.01563 0.26563
vt 0.01563 0.25000
vt 0.03125 0.03125
vt 0.03125 0.26563
vt 0.03125 0.25000
vt 0.06250 0.50000
vt 0.15625 0.50000
vt 0.14063 0.51563
vt 0.12500 0.51563
vt 0.10938 0.51563
vt 0.31250 0.54688
vt 0.73438 0.12500
vt 0.73438 0.03125
vt 0.75000 0.03125
vt 0.20313 0.48438
vt 0.20313 0.51563
vt 0.78125 0.03125
vt 0.78125 0.06250
vt 0.79688 0.12500
vt 0.82813 0.03125
vt 0.84375 0.12500
vt 0.84375 0.03125
vt 0.68750 0.50000
vt 0.81250 0.50000
vt 0.53125 0.03125
vt 0.53125 0.12500
vt 0.62500 0.03125
vt 0.62500 0.12500
vt 0.06250 0.03125
vt 0.06250 0.06250
vt 0.07813 0.03125
vt 0.07813 0.06250
vt 0.96875 0.48438
vt 0.96875 0.50000

g mtx_well_crane
usemtl env_well_crane_Material
f  2/74/2 4/76/2 1/73/2
f  2/74/2 3/75/2 4/76/2
f  6/18/2 8/20/2 5/17/2
f  6/18/2 7/19/2 8/20/2
f  10/42/2 12/44/2 9/41/2
f  10/42/2 11/43/2 12/44/2
f  14/114/2 16/116/2 13/113/2
f  14/114/2 15/115/2 16/116/2
f  144/438/2 17/257/2 18/258/2
f  18/258/2 141/437/2 144/438/2
f  141/437/2 18/258/2 19/259/2
f  19/259/2 20/260/2 141/437/2
f  22/106/2 24/108/2 21/105/2
f  22/106/2 23/107/2 24/108/2
f  26/126/2 28/128/2 25/125/2
f  26/126/2 27/127/2 28/128/2
f  32/160/2 29/157/2 35/439/2
f  35/439/2 31/159/2 32/160/2
f  31/159/2 35/439/2 30/158/2
f  44/440/2 33/277/2 34/278/2
f  34/278/2 53/441/2 44/440/2
f  53/441/2 34/278/2 5/443/2
f  5/443/2 54/442/2 53/441/2
f  54/442/2 5/443/2 8/444/2
f  8/444/2 35/280/2 54/442/2
f  35/280/2 8/444/2 30/279/2
f  39/220/2 36/217/2 42/445/2
f  42/445/2 38/219/2 39/220/2
f  38/219/2 42/445/2 37/218/2
f  36/296/2 40/293/2 41/294/2
f  41/294/2 42/295/2 36/296/2
f  42/295/2 41/294/2 62/446/2
f  33/222/2 45/224/2 43/221/2
f  33/222/2 44/223/2 45/224/2
f  16/314/2 48/316/2 46/313/2
f  16/314/2 47/315/2 48/316/2
f  4/310/2 51/312/2 49/309/2
f  4/310/2 50/311/2 51/312/2
f  53/318/2 55/320/2 52/317/2
f  53/318/2 54/319/2 55/320/2
f  57/326/2 59/328/2 56/325/2
f  57/326/2 58/327/2 59/328/2
f  60/302/2 62/304/2 41/301/2
f  60/302/2 61/303/2 62/304/2
f  64/306/2 65/308/2 63/305/2
f  64/306/2 1/307/2 65/308/2
f  67/322/2 68/324/2 66/321/2
f  67/322/2 25/323/2 68/324/2
f  70/66/1 72/68/1 69/65/1
f  70/66/1 71/67/1 72/68/1
f  74/14/1 76/16/1 73/13/1
f  74/14/1 75/15/1 76/16/1
f  78/34/1 80/36/1 77/33/1
f  78/34/1 79/35/1 80/36/1
f  82/110/1 84/112/1 81/109/1
f  82/110/1 83/111/1 84/112/1
f  86/254/1 88/256/1 85/253/1
f  86/254/1 87/255/1 88/256/1
f  90/118/1 92/120/1 89/117/1
f  90/118/1 91/119/1 92/120/1
f  94/102/1 96/104/1 93/101/1
f  94/102/1 95/103/1 96/104/1
f  100/172/1 97/169/1 98/170/1
f  98/170/1 101/447/1 100/172/1
f  101/447/1 98/170/1 99/171/1
f  121/449/1 101/281/1 99/282/1
f  99/282/1 122/450/1 121/449/1
f  122/450/1 99/282/1 73/451/1
f  73/451/1 112/448/1 122/450/1
f  112/448/1 73/451/1 76/452/1
f  76/452/1 103/284/1 112/448/1
f  103/284/1 76/452/1 102/283/1
f  107/192/1 104/189/1 105/190/1
f  105/190/1 108/453/1 107/192/1
f  108/453/1 105/190/1 106/191/1
f  110/300/1 107/297/1 108/298/1
f  108/298/1 109/299/1 110/300/1
f  109/299/1 108/298/1 124/454/1
f  112/194/1 113/196/1 111/193/1
f  112/194/1 103/195/1 113/196/1
f  115/398/1 116/400/1 114/397/1
f  115/398/1 81/399/1 116/400/1
f  118/402/1 119/404/1 117/401/1
f  118/402/1 69/403/1 119/404/1
f  121/406/1 123/408/1 120/405/1
f  121/406/1 122/407/1 123/408/1
f  125/386/1 109/388/1 124/385/1
f  125/386/1 126/387/1 109/388/1
f  72/390/1 129/392/1 127/389/1
f  72/390/1 128/391/1 129/392/1
f  96/394/1 132/396/1 130/393/1
f  96/394/1 131/395/1 132/396/1
f  15/70/3 81/72/3 16/69/3
f  15/70/3 82/71/3 81/72/3
f  7/22/3 73/24/3 8/21/3
f  7/22/3 74/23/3 73/24/3
f  77/32/3 133/29/3 12/455/3
f  12/455/3 78/31/3 77/32/3
f  78/31/3 12/455/3 11/30/3
f  106/242/3 134/244/3 108/241/3
f  106/242/3 55/243/3 134/244/3
f  120/246/3 133/248/3 135/245/3
f  120/246/3 12/247/3 133/248/3
f  47/274/3 114/276/3 48/273/3
f  47/274/3 115/275/3 114/276/3
f  3/122/3 13/124/3 4/121/3
f  3/122/3 14/123/3 13/124/3
f  83/82/3 69/84/3 84/81/3
f  83/82/3 70/83/3 69/84/3
f  91/90/3 21/92/3 92/89/3
f  91/90/3 22/91/3 21/92/3
f  31/166/3 97/168/3 32/165/3
f  31/166/3 98/167/3 97/168/3
f  38/182/3 104/184/3 39/181/3
f  38/182/3 105/183/3 104/184/3
f  135/204/3 134/201/3 55/457/3
f  55/457/3 120/456/3 135/204/3
f  120/456/3 55/457/3 54/202/3
f  54/202/3 121/203/3 120/456/3
f  44/198/3 111/200/3 45/197/3
f  44/198/3 112/199/3 111/200/3
f  50/410/3 46/412/3 51/409/3
f  50/410/3 16/411/3 46/412/3
f  81/426/3 117/428/3 116/425/3
f  81/426/3 118/427/3 117/428/3
f  19/430/3 49/432/3 20/429/3
f  19/430/3 4/431/3 49/432/3
f  69/434/3 85/436/3 119/433/3
f  69/434/3 86/435/3 85/436/3
f  58/414/3 42/416/3 59/413/3
f  58/414/3 37/415/3 42/416/3
f  95/78/4 25/80/4 96/77/4
f  95/78/4 26/79/4 25/80/4
f  75/10/4 5/12/4 76/9/4
f  75/10/4 6/11/4 5/12/4
f  136/40/4 80/37/4 79/38/4
f  79/38/4 9/458/4 136/40/4
f  9/458/4 79/38/4 10/39/4
f  52/238/4 124/240/4 137/237/4
f  52/238/4 125/239/4 124/240/4
f  9/250/4 138/252/4 136/249/4
f  9/250/4 123/251/4 138/252/4
f  23/86/4 89/88/4 24/85/4
f  23/86/4 90/87/4 89/88/4
f  27/98/4 1/100/4 28/97/4
f  27/98/4 2/99/4 1/100/4
f  71/94/4 93/96/4 72/93/4
f  71/94/4 94/95/4 93/96/4
f  131/270/4 66/272/4 132/269/4
f  131/270/4 67/271/4 66/272/4
f  40/188/4 110/185/4 109/460/4
f  109/460/4 41/459/4 40/188/4
f  41/459/4 109/460/4 126/186/4
f  126/186/4 60/187/4 41/459/4
f  43/164/4 113/161/4 103/462/4
f  103/462/4 33/461/4 43/164/4
f  33/461/4 103/462/4 102/162/4
f  102/162/4 34/163/4 33/461/4
f  101/210/4 29/212/4 100/209/4
f  101/210/4 35/211/4 29/212/4
f  137/208/4 138/205/4 123/464/4
f  123/464/4 52/463/4 137/208/4
f  52/463/4 123/464/4 122/206/4
f  122/206/4 53/207/4 52/463/4
f  61/418/4 56/420/4 62/417/4
f  61/418/4 57/419/4 56/420/4
f  1/422/4 17/424/4 65/421/4
f  1/422/4 18/423/4 17/424/4
f  87/382/4 127/384/4 88/381/4
f  87/382/4 72/383/4 127/384/4
f  25/342/4 63/344/4 68/341/4
f  25/342/4 64/343/4 63/344/4
f  128/346/4 130/348/4 129/345/4
f  128/346/4 96/347/4 130/348/4
f  141/52/5 20/49/5 49/465/5
f  49/465/5 139/50/5 141/52/5
f  11/466/5 141/52/5 139/50/5
f  139/50/5 140/51/5 11/466/5
f  78/467/5 11/466/5 140/51/5
f  124/4/5 108/1/5 134/469/5
f  134/469/5 135/470/5 124/4/5
f  137/472/5 124/4/5 135/470/5
f  135/470/5 133/468/5 137/472/5
f  138/473/5 137/472/5 133/468/5
f  133/468/5 77/2/5 138/473/5
f  136/471/5 138/473/5 77/2/5
f  77/2/5 80/3/5 136/471/5
f  140/478/5 139/173/5 119/474/5
f  119/474/5 85/174/5 140/478/5
f  24/477/5 140/478/5 85/174/5
f  85/174/5 88/175/5 24/477/5
f  21/476/5 24/477/5 88/175/5
f  88/175/5 127/475/5 21/476/5
f  142/176/5 21/476/5 127/475/5
f  144/156/5 141/153/5 11/154/5
f  11/154/5 10/479/5 144/156/5
f  143/155/5 144/156/5 10/479/5
f  48/141/5 114/142/5 46/144/5
f  114/142/5 116/143/5 46/144/5
f  49/56/5 51/53/5 46/480/5
f  46/480/5 116/481/5 49/56/5
f  139/482/5 49/56/5 116/481/5
f  116/481/5 117/54/5 139/482/5
f  119/55/5 139/482/5 117/54/5
f  36/484/5 39/177/5 104/178/5
f  104/178/5 107/483/5 36/484/5
f  40/180/5 36/484/5 107/483/5
f  107/483/5 110/179/5 40/180/5
f  17/60/5 144/57/5 143/486/5
f  143/486/5 92/485/5 17/60/5
f  65/487/5 17/60/5 92/485/5
f  92/485/5 21/58/5 65/487/5
f  142/59/5 65/487/5 21/58/5
f  63/64/5 65/61/5 142/488/5
f  142/488/5 127/62/5 63/64/5
f  68/489/5 63/64/5 127/62/5
f  127/62/5 129/63/5 68/489/5
f  130/490/5 68/489/5 129/63/5
f  68/145/5 130/146/5 66/148/5
f  130/146/5 132/147/5 66/148/5
f  79/216/5 78/213/5 140/214/5
f  140/214/5 24/215/5 79/216/5
f  89/491/5 79/216/5 24/215/5
f  143/228/5 10/225/5 79/492/5
f  79/492/5 89/226/5 143/228/5
f  92/227/5 143/228/5 89/226/5
f  32/349/5 97/350/5 29/352/5
f  97/350/5 100/351/5 29/352/5
f  35/329/5 101/330/5 54/332/5
f  101/330/5 121/331/5 54/332/5
f  59/333/5 42/334/5 56/336/5
f  42/334/5 62/335/5 56/336/5
f  90/337/5 23/338/5 91/340/5
f  23/338/5 22/339/5 91/340/5
f  53/353/5 122/354/5 44/356/5
f  122/354/5 112/355/5 44/356/5
f  45/369/5 111/370/5 43/372/5
f  111/370/5 113/371/5 43/372/5
f  71/48/6 70/45/6 83/494/6
f  83/494/6 14/493/6 71/48/6
f  94/496/6 71/48/6 14/493/6
f  14/493/6 3/46/6 94/496/6
f  27/495/6 94/496/6 3/46/6
f  3/46/6 2/47/6 27/495/6
f  52/8/6 55/5/6 106/498/6
f  106/498/6 37/497/6 52/8/6
f  125/500/6 52/8/6 37/497/6
f  37/497/6 58/6/6 125/500/6
f  61/499/6 125/500/6 58/6/6
f  58/6/6 57/7/6 61/499/6
f  12/25/6 120/26/6 9/28/6
f  120/26/6 123/27/6 9/28/6
f  115/149/6 47/150/6 81/152/6
f  47/150/6 16/151/6 81/152/6
f  82/129/6 15/130/6 83/132/6
f  15/130/6 14/131/6 83/132/6
f  4/261/6 19/262/6 1/264/6
f  19/262/6 18/263/6 1/264/6
f  86/265/6 69/266/6 87/268/6
f  69/266/6 72/267/6 87/268/6
f  94/133/6 27/134/6 95/136/6
f  27/134/6 26/135/6 95/136/6
f  96/137/6 25/138/6 131/140/6
f  25/138/6 67/139/6 131/140/6
f  99/502/6 98/285/6 31/286/6
f  31/286/6 30/501/6 99/502/6
f  73/288/6 99/502/6 30/501/6
f  30/501/6 8/287/6 73/288/6
f  105/233/6 38/234/6 106/236/6
f  38/234/6 37/235/6 106/236/6
f  76/289/6 5/290/6 102/292/6
f  5/290/6 34/291/6 102/292/6
f  125/229/6 61/230/6 126/232/6
f  61/230/6 60/231/6 126/232/6
f  16/373/6 50/374/6 13/376/6
f  50/374/6 4/375/6 13/376/6
f  118/377/6 81/378/6 69/380/6
f  81/378/6 84/379/6 69/380/6
f  74/357/6 7/358/6 75/360/6
f  7/358/6 6/359/6 75/360/6
f  28/361/6 1/362/6 25/364/6
f  1/362/6 64/363/6 25/364/6
f  72/365/6 93/366/6 128/368/6
f  93/366/6 96/367/6 128/368/6
