# This file was created with Minddesk Qubicle 2.0
# Get Qubicle at www.minddesk.com

mtllib env_rock_cut_25q.mtl

vn 0.0 0.0 1.0
vn 0.0 0.0 -1.0
vn -1.0 0.0 0.0
vn 1.0 0.0 0.0
vn 0.0 1.0 0.0
vn 0.0 -1.0 0.0

v 12.50000 23.50000 -12.50000
v 12.50000 -0.50000 -12.50000
v -12.50000 -0.50000 -12.50000
v -12.50000 23.50000 -12.50000
v -12.50000 15.50000 12.50000
v -12.50000 -0.50000 12.50000
v 12.50000 -0.50000 12.50000
v 12.50000 15.50000 12.50000
v -12.50000 23.50000 12.50000
v 4.50000 15.50000 12.50000
v 4.50000 23.50000 12.50000
v 4.50000 23.50000 1.50000
v 4.50000 15.50000 1.50000
v 12.50000 15.50000 1.50000
v 12.50000 23.50000 1.50000
v 12.50000 15.50000 -12.50000
v 4.50000 23.50000 -12.50000

vt 0.00781 0.40625
vt 0.00781 0.01563
vt 0.20313 0.01563
vt 0.20313 0.40625
vt 0.21875 0.40625
vt 0.21875 0.01563
vt 0.35156 0.01563
vt 0.35156 0.40625
vt 0.36719 0.39063
vt 0.36719 0.01563
vt 0.56250 0.01563
vt 0.56250 0.39063
vt 0.57813 0.39063
vt 0.57813 0.01563
vt 0.77344 0.01563
vt 0.77344 0.39063
vt 0.78906 0.26563
vt 0.78906 0.01563
vt 0.98438 0.01563
vt 0.98438 0.26563
vt 0.00781 0.68750
vt 0.00781 0.43750
vt 0.20313 0.43750
vt 0.20313 0.68750
vt 0.21875 0.65625
vt 0.21875 0.43750
vt 0.28125 0.43750
vt 0.28125 0.65625
vt 0.29688 0.60938
vt 0.29688 0.43750
vt 0.35938 0.43750
vt 0.35938 0.60938
vt 0.37500 0.56250
vt 0.37500 0.43750
vt 0.50781 0.43750
vt 0.50781 0.56250
vt 0.52344 0.56250
vt 0.52344 0.43750
vt 0.63281 0.43750
vt 0.63281 0.56250
vt 0.64844 0.56250
vt 0.64844 0.43750
vt 0.73438 0.43750
vt 0.73438 0.56250
vt 0.75000 0.56250
vt 0.75000 0.43750
vt 0.81250 0.43750
vt 0.81250 0.56250

g env_rock_cut_25q
usemtl env_rock_cut_25q_Material
f  1/13/2 2/14/2 3/15/2 4/16/2
f  5/21/1 6/22/1 7/23/1 8/24/1
f  9/33/1 5/34/1 10/35/1 11/36/1
f  12/45/1 13/46/1 14/47/1 15/48/1
f  4/9/3 3/10/3 6/11/3 9/12/3
f  8/17/4 7/18/4 2/19/4 16/20/4
f  11/41/4 10/42/4 13/43/4 12/44/4
f  15/37/4 14/38/4 16/39/4 1/40/4
f  4/5/5 9/6/5 11/7/5 17/8/5
f  13/29/5 10/30/5 8/31/5 14/32/5
f  17/25/5 12/26/5 15/27/5 1/28/5
f  6/1/6 3/2/6 2/3/6 7/4/6
