# This file was created with Minddesk Qubicle 3.0
# Get Qubicle at www.getqubicle.com

mtllib armourSmall.mtl

vn 0.0 0.0 1.0
vn 0.0 0.0 -1.0
vn -1.0 0.0 0.0
vn 1.0 0.0 0.0
vn 0.0 1.0 0.0
vn 0.0 -1.0 0.0

v 4.00000 1.00000 -3.00000
v 4.00000 -1.00000 -3.00000
v -5.00000 -1.00000 -3.00000
v -5.00000 1.00000 -3.00000
v 2.00000 -1.00000 2.00000
v 2.00000 -3.00000 2.00000
v -3.00000 -3.00000 2.00000
v -3.00000 -1.00000 2.00000
v 3.00000 -2.00000 -3.00000
v 3.00000 -3.00000 -3.00000
v -4.00000 -3.00000 -3.00000
v -4.00000 -2.00000 -3.00000
v 2.00000 -1.00000 -3.00000
v 2.00000 -2.00000 -3.00000
v -3.00000 -2.00000 -3.00000
v -3.00000 -1.00000 -3.00000
v 1.00000 0.00000 2.00000
v 1.00000 -1.00000 2.00000
v -2.00000 -1.00000 2.00000
v -2.00000 0.00000 2.00000
v -2.00000 2.00000 -3.00000
v -2.00000 1.00000 -3.00000
v -4.00000 1.00000 -3.00000
v -4.00000 2.00000 -3.00000
v 3.00000 2.00000 -3.00000
v 3.00000 1.00000 -3.00000
v 1.00000 1.00000 -3.00000
v 1.00000 2.00000 -3.00000
v 0.00000 1.00000 2.00000
v 0.00000 0.00000 2.00000
v -1.00000 0.00000 2.00000
v -1.00000 1.00000 2.00000
v -3.00000 1.00000 -2.00000
v -3.00000 -3.00000 -2.00000
v 2.00000 -3.00000 -2.00000
v 2.00000 1.00000 -2.00000
v -5.00000 1.00000 3.00000
v -5.00000 -1.00000 3.00000
v -3.00000 -1.00000 3.00000
v -3.00000 1.00000 3.00000
v 2.00000 1.00000 3.00000
v 2.00000 -1.00000 3.00000
v 4.00000 -1.00000 3.00000
v 4.00000 1.00000 3.00000
v -4.00000 -2.00000 3.00000
v -4.00000 -3.00000 3.00000
v 3.00000 -3.00000 3.00000
v 3.00000 -2.00000 3.00000
v -3.00000 -2.00000 3.00000
v 2.00000 -2.00000 3.00000
v -2.00000 0.00000 3.00000
v -2.00000 -1.00000 3.00000
v 1.00000 -1.00000 3.00000
v 1.00000 0.00000 3.00000
v -4.00000 2.00000 3.00000
v -4.00000 1.00000 3.00000
v -2.00000 1.00000 3.00000
v -2.00000 2.00000 3.00000
v 1.00000 2.00000 3.00000
v 1.00000 1.00000 3.00000
v 3.00000 1.00000 3.00000
v 3.00000 2.00000 3.00000
v -1.00000 1.00000 3.00000
v -1.00000 0.00000 3.00000
v 0.00000 0.00000 3.00000
v 0.00000 1.00000 3.00000
v 2.00000 -1.00000 -2.00000
v 2.00000 -2.00000 -2.00000
v 2.00000 -2.00000 2.00000
v -3.00000 -2.00000 -2.00000
v -3.00000 -1.00000 -2.00000
v -3.00000 -2.00000 2.00000
v -2.00000 1.00000 -2.00000
v 1.00000 1.00000 -2.00000
v -4.00000 -3.00000 2.00000
v -4.00000 -3.00000 -2.00000
v 3.00000 -3.00000 -2.00000
v 3.00000 -3.00000 2.00000

vt 0.01563 0.21875
vt 0.01563 0.03125
vt 0.04688 0.03125
vt 0.04688 0.21875
vt 0.07813 0.21875
vt 0.07813 0.03125
vt 0.10938 0.03125
vt 0.10938 0.21875
vt 0.14063 0.21875
vt 0.14063 0.03125
vt 0.17188 0.03125
vt 0.17188 0.21875
vt 0.20313 0.21875
vt 0.20313 0.03125
vt 0.23438 0.03125
vt 0.23438 0.21875
vt 0.26563 0.21875
vt 0.26563 0.03125
vt 0.28125 0.03125
vt 0.28125 0.21875
vt 0.31250 0.21875
vt 0.31250 0.03125
vt 0.32813 0.03125
vt 0.32813 0.21875
vt 0.35938 0.21875
vt 0.35938 0.03125
vt 0.37500 0.03125
vt 0.37500 0.21875
vt 0.40625 0.21875
vt 0.40625 0.03125
vt 0.42188 0.03125
vt 0.42188 0.21875
vt 0.45313 0.18750
vt 0.45313 0.03125
vt 0.46875 0.03125
vt 0.46875 0.18750
vt 0.50000 0.18750
vt 0.50000 0.03125
vt 0.51563 0.03125
vt 0.51563 0.18750
vt 0.54688 0.15625
vt 0.54688 0.03125
vt 0.62500 0.03125
vt 0.62500 0.15625
vt 0.65625 0.15625
vt 0.65625 0.03125
vt 0.67188 0.03125
vt 0.67188 0.15625
vt 0.70313 0.15625
vt 0.70313 0.03125
vt 0.71875 0.03125
vt 0.71875 0.15625
vt 0.75000 0.09375
vt 0.75000 0.03125
vt 0.89063 0.03125
vt 0.89063 0.09375
vt 0.01563 0.34375
vt 0.01563 0.28125
vt 0.10938 0.28125
vt 0.10938 0.34375
vt 0.14063 0.34375
vt 0.14063 0.28125
vt 0.23438 0.28125
vt 0.23438 0.34375
vt 0.26563 0.34375
vt 0.26563 0.28125
vt 0.34375 0.28125
vt 0.34375 0.34375
vt 0.37500 0.34375
vt 0.37500 0.28125
vt 0.45313 0.28125
vt 0.45313 0.34375
vt 0.48438 0.34375
vt 0.48438 0.28125
vt 0.56250 0.28125
vt 0.56250 0.34375
vt 0.92188 0.09375
vt 0.92188 0.03125
vt 0.95313 0.03125
vt 0.95313 0.09375
vt 0.59375 0.34375
vt 0.59375 0.28125
vt 0.62500 0.28125
vt 0.62500 0.34375
vt 0.65625 0.31250
vt 0.65625 0.28125
vt 0.76563 0.28125
vt 0.76563 0.31250
vt 0.79688 0.31250
vt 0.79688 0.28125
vt 0.90625 0.28125
vt 0.90625 0.31250
vt 0.01563 0.43750
vt 0.01563 0.40625
vt 0.12500 0.40625
vt 0.12500 0.43750
vt 0.15625 0.43750
vt 0.15625 0.40625
vt 0.26563 0.40625
vt 0.26563 0.43750
vt 0.29688 0.43750
vt 0.29688 0.40625
vt 0.39063 0.40625
vt 0.39063 0.43750
vt 0.42188 0.43750
vt 0.42188 0.40625
vt 0.51563 0.40625
vt 0.51563 0.43750
vt 0.54688 0.43750
vt 0.54688 0.40625
vt 0.64063 0.40625
vt 0.64063 0.43750
vt 0.67188 0.43750
vt 0.67188 0.40625
vt 0.76563 0.40625
vt 0.76563 0.43750
vt 0.79688 0.43750
vt 0.79688 0.40625
vt 0.89063 0.40625
vt 0.89063 0.43750
vt 0.01563 0.53125
vt 0.01563 0.50000
vt 0.10938 0.50000
vt 0.10938 0.53125
vt 0.14063 0.53125
vt 0.14063 0.50000
vt 0.21875 0.50000
vt 0.21875 0.53125
vt 0.25000 0.53125
vt 0.25000 0.50000
vt 0.32813 0.50000
vt 0.32813 0.53125
vt 0.92188 0.43750
vt 0.92188 0.40625
vt 0.98438 0.40625
vt 0.98438 0.43750
vt 0.35938 0.53125
vt 0.35938 0.50000
vt 0.42188 0.50000
vt 0.42188 0.53125
vt 0.93750 0.31250
vt 0.93750 0.28125
vt 0.98438 0.28125
vt 0.98438 0.31250
vt 0.45313 0.53125
vt 0.45313 0.50000
vt 0.50000 0.50000
vt 0.50000 0.53125
vt 0.53125 0.53125
vt 0.53125 0.50000
vt 0.57813 0.50000
vt 0.57813 0.53125
vt 0.60938 0.53125
vt 0.60938 0.50000
vt 0.64063 0.50000
vt 0.64063 0.53125
vt 0.67188 0.53125
vt 0.67188 0.50000
vt 0.70313 0.50000
vt 0.70313 0.53125
vt 0.73438 0.53125
vt 0.73438 0.50000
vt 0.76563 0.50000
vt 0.76563 0.53125
vt 0.79688 0.53125
vt 0.79688 0.50000
vt 0.82813 0.50000
vt 0.82813 0.53125
vt 0.85938 0.53125
vt 0.85938 0.50000
vt 0.87500 0.50000
vt 0.87500 0.53125
vt 0.90625 0.53125
vt 0.90625 0.50000
vt 0.92188 0.50000
vt 0.92188 0.53125
vt 0.95313 0.53125
vt 0.95313 0.50000
vt 0.96875 0.50000
vt 0.96875 0.53125
vt 0.01563 0.62500
vt 0.01563 0.59375
vt 0.03125 0.59375
vt 0.03125 0.62500
vt 0.06250 0.62500
vt 0.06250 0.59375
vt 0.07813 0.59375
vt 0.07813 0.62500
vt 0.10938 0.62500
vt 0.10938 0.59375
vt 0.12500 0.59375
vt 0.12500 0.62500
vt 0.15625 0.62500
vt 0.15625 0.59375
vt 0.17188 0.59375
vt 0.17188 0.62500
vt 0.20313 0.62500
vt 0.20313 0.59375
vt 0.21875 0.59375
vt 0.21875 0.62500
vt 0.25000 0.62500
vt 0.25000 0.59375
vt 0.26563 0.59375
vt 0.26563 0.62500
vt 0.29688 0.62500
vt 0.29688 0.59375
vt 0.31250 0.59375
vt 0.31250 0.62500
vt 0.34375 0.62500
vt 0.34375 0.59375
vt 0.35938 0.59375
vt 0.35938 0.62500
vt 0.39063 0.62500
vt 0.39063 0.59375
vt 0.40625 0.59375
vt 0.40625 0.62500
vt 0.43750 0.62500
vt 0.43750 0.59375
vt 0.45313 0.59375
vt 0.45313 0.62500
vt 0.48438 0.62500
vt 0.48438 0.59375
vt 0.50000 0.59375
vt 0.50000 0.62500
vt 0.53125 0.62500
vt 0.53125 0.59375
vt 0.54688 0.59375
vt 0.54688 0.62500
vt 0.84375 0.09375
vt 0.87500 0.09375
vt 0.76563 0.09375
vt 0.79688 0.09375
vt 0.78125 0.03125
vt 0.85938 0.03125
vt 0.28125 0.34375
vt 0.32813 0.34375
vt 0.34375 0.31250
vt 0.26563 0.31250
vt 0.81250 0.31250
vt 0.89063 0.31250
vt 0.46875 0.53125
vt 0.48438 0.53125
vt 0.56250 0.15625
vt 0.60938 0.15625
vt 0.62500 0.09375
vt 0.62500 0.06250
vt 0.54688 0.06250
vt 0.54688 0.09375
vt 0.60938 0.34375
vt 0.93750 0.09375
vt 0.67188 0.31250
vt 0.75000 0.31250
vt 0.26563 0.53125
vt 0.31250 0.53125
vt 0.54688 0.53125
vt 0.56250 0.53125
vt 0.81250 0.50000
vt 0.62500 0.50000
vt 0.54688 0.28125
vt 0.75000 0.40625
vt 0.68750 0.40625
vt 0.43750 0.40625
vt 0.39063 0.28125
vt 0.62500 0.40625
vt 0.09375 0.50000
vt 0.03125 0.50000
vt 0.28125 0.18750
vt 0.28125 0.06250
vt 0.35938 0.18750
vt 0.35938 0.06250
vt 0.10938 0.18750
vt 0.10938 0.06250
vt 0.01563 0.18750
vt 0.01563 0.06250
vt 0.17188 0.43750
vt 0.25000 0.43750
vt 0.10938 0.40625
vt 0.03125 0.40625

g mtx_armourSmall
usemtl armourSmall_Material
f 26/231/2 1/53/2 2/54/2
f 2/54/2 27/232/2 26/231/2
f 27/232/2 2/54/2 13/233/2
f 13/233/2 22/229/2 27/232/2
f 22/229/2 13/233/2 16/234/2
f 16/234/2 23/230/2 22/229/2
f 23/230/2 16/234/2 3/55/2
f 3/55/2 4/56/2 23/230/2
f 18/235/2 5/65/2 69/238/2
f 69/238/2 19/236/2 18/235/2
f 19/236/2 69/238/2 6/66/2
f 6/66/2 8/68/2 19/236/2
f 8/68/2 6/66/2 7/67/2
f 7/67/2 72/237/2 8/68/2
f 14/239/2 9/89/2 10/90/2
f 10/90/2 15/240/2 14/239/2
f 15/240/2 10/90/2 11/91/2
f 11/91/2 12/92/2 15/240/2
f 14/126/2 16/128/2 13/125/2
f 14/126/2 15/127/2 16/128/2
f 30/241/2 17/145/2 18/146/2
f 18/146/2 31/242/2 30/241/2
f 31/242/2 18/146/2 19/147/2
f 19/147/2 20/148/2 31/242/2
f 22/158/2 24/160/2 21/157/2
f 22/158/2 23/159/2 24/160/2
f 26/162/2 28/164/2 25/161/2
f 26/162/2 27/163/2 28/164/2
f 30/170/2 32/172/2 29/169/2
f 30/170/2 31/171/2 32/172/2
f 73/243/1 33/41/1 71/248/1
f 71/248/1 74/244/1 73/243/1
f 74/244/1 71/248/1 70/247/1
f 70/247/1 36/44/1 74/244/1
f 36/44/1 70/247/1 34/42/1
f 34/42/1 67/245/1 36/44/1
f 67/245/1 34/42/1 35/43/1
f 35/43/1 68/246/1 67/245/1
f 56/249/1 37/81/1 38/82/1
f 38/82/1 40/84/1 56/249/1
f 40/84/1 38/82/1 39/83/1
f 61/250/1 41/77/1 42/78/1
f 42/78/1 44/80/1 61/250/1
f 44/80/1 42/78/1 43/79/1
f 49/251/1 45/85/1 46/86/1
f 46/86/1 50/252/1 49/251/1
f 50/252/1 46/86/1 47/87/1
f 47/87/1 48/88/1 50/252/1
f 52/253/1 39/129/1 49/130/1
f 49/130/1 53/254/1 52/253/1
f 53/254/1 49/130/1 50/131/1
f 50/131/1 42/132/1 53/254/1
f 64/255/1 51/149/1 52/150/1
f 52/150/1 65/256/1 64/255/1
f 65/256/1 52/150/1 53/151/1
f 53/151/1 54/152/1 65/256/1
f 58/168/1 55/165/1 56/166/1
f 56/166/1 57/167/1 58/168/1
f 57/167/1 56/166/1 40/257/1
f 62/156/1 59/153/1 60/154/1
f 60/154/1 61/155/1 62/156/1
f 61/155/1 60/154/1 41/258/1
f 64/214/1 66/216/1 63/213/1
f 64/214/1 65/215/1 66/216/1
f 3/58/3 37/60/3 4/57/3
f 3/58/3 38/59/3 37/60/3
f 41/76/3 36/73/3 67/74/3
f 67/74/3 42/75/3 41/76/3
f 42/75/3 67/74/3 5/259/3
f 45/116/3 12/113/3 11/114/3
f 11/114/3 46/115/3 45/116/3
f 46/115/3 11/114/3 76/261/3
f 76/261/3 75/260/3 46/115/3
f 23/102/3 55/104/3 24/101/3
f 23/102/3 56/103/3 55/104/3
f 59/108/3 28/105/3 27/106/3
f 27/106/3 60/107/3 59/108/3
f 60/107/3 27/106/3 74/262/3
f 35/134/3 69/136/3 68/133/3
f 35/134/3 6/135/3 69/136/3
f 15/226/3 71/228/3 16/225/3
f 15/226/3 70/227/3 71/228/3
f 72/222/3 39/224/3 8/221/3
f 72/222/3 49/223/3 39/224/3
f 19/218/3 51/220/3 20/217/3
f 19/218/3 52/219/3 51/220/3
f 31/202/3 63/204/3 32/201/3
f 31/202/3 64/203/3 63/204/3
f 43/62/4 1/64/4 44/61/4
f 43/62/4 2/63/4 1/64/4
f 33/72/4 40/69/4 39/70/4
f 39/70/4 71/71/4 33/72/4
f 71/71/4 39/70/4 8/263/4
f 21/112/4 58/109/4 57/110/4
f 57/110/4 22/111/4 21/112/4
f 22/111/4 57/110/4 73/264/4
f 9/124/4 48/121/4 47/122/4
f 47/122/4 10/123/4 9/124/4
f 10/123/4 47/122/4 78/266/4
f 78/266/4 77/265/4 10/123/4
f 61/118/4 25/120/4 62/117/4
f 61/118/4 26/119/4 25/120/4
f 7/138/4 70/140/4 72/137/4
f 7/138/4 34/139/4 70/140/4
f 68/178/4 13/180/4 67/177/4
f 68/178/4 14/179/4 13/180/4
f 65/198/4 29/200/4 66/197/4
f 65/198/4 30/199/4 29/200/4
f 53/194/4 17/196/4 54/193/4
f 53/194/4 18/195/4 17/196/4
f 50/190/4 5/192/4 42/189/4
f 50/190/4 69/191/4 5/192/4
f 24/9/5 55/10/5 21/12/5
f 55/10/5 58/11/5 21/12/5
f 28/13/5 59/14/5 25/16/5
f 59/14/5 62/15/5 25/16/5
f 4/21/5 37/22/5 23/24/5
f 37/22/5 56/23/5 23/24/5
f 15/20/5 12/17/5 45/18/5
f 45/18/5 49/19/5 15/20/5
f 70/267/5 15/20/5 49/19/5
f 49/19/5 72/268/5 70/267/5
f 9/28/5 14/25/5 68/269/5
f 68/269/5 69/270/5 9/28/5
f 48/27/5 9/28/5 69/270/5
f 69/270/5 50/26/5 48/27/5
f 26/29/5 61/30/5 1/32/5
f 61/30/5 44/31/5 1/32/5
f 22/141/5 73/142/5 27/144/5
f 73/142/5 74/143/5 27/144/5
f 8/181/5 39/182/5 19/184/5
f 39/182/5 52/183/5 19/184/5
f 20/185/5 51/186/5 31/188/5
f 51/186/5 64/187/5 31/188/5
f 32/205/5 63/206/5 29/208/5
f 63/206/5 66/207/5 29/208/5
f 30/209/5 65/210/5 17/212/5
f 65/210/5 54/211/5 17/212/5
f 18/173/5 53/174/5 5/176/5
f 53/174/5 42/175/5 5/176/5
f 39/8/6 38/5/6 3/6/6
f 3/6/6 16/7/6 39/8/6
f 8/271/6 39/8/6 16/7/6
f 16/7/6 71/272/6 8/271/6
f 43/4/6 42/1/6 5/273/6
f 5/273/6 67/274/6 43/4/6
f 2/3/6 43/4/6 67/274/6
f 67/274/6 13/2/6 2/3/6
f 40/37/6 33/38/6 57/40/6
f 33/38/6 73/39/6 57/40/6
f 60/33/6 74/34/6 41/36/6
f 74/34/6 36/35/6 41/36/6
f 75/45/6 76/46/6 7/48/6
f 76/46/6 34/47/6 7/48/6
f 6/49/6 35/50/6 78/52/6
f 35/50/6 77/51/6 78/52/6
f 34/275/6 76/97/6 11/98/6
f 11/98/6 10/99/6 34/275/6
f 35/276/6 34/275/6 10/99/6
f 10/99/6 77/100/6 35/276/6
f 47/96/6 46/93/6 75/94/6
f 75/94/6 7/278/6 47/96/6
f 78/95/6 47/96/6 7/278/6
f 7/278/6 6/277/6 78/95/6
