# This file was created with Minddesk Qubicle 3.0
# Get Qubicle at www.getqubicle.com

mtllib hammer2.mtl

vn 0.0 0.0 1.0
vn 0.0 0.0 -1.0
vn -1.0 0.0 0.0
vn 1.0 0.0 0.0
vn 0.0 1.0 0.0
vn 0.0 -1.0 0.0

v 1.00000 5.00000 -1.00000
v 1.00000 -10.00000 -1.00000
v 0.00000 -10.00000 -1.00000
v 0.00000 5.00000 -1.00000
v -1.00000 10.00000 2.00000
v -1.00000 5.00000 2.00000
v -2.00000 5.00000 2.00000
v -2.00000 10.00000 2.00000
v 3.00000 10.00000 2.00000
v 3.00000 5.00000 2.00000
v 2.00000 5.00000 2.00000
v 2.00000 10.00000 2.00000
v -2.00000 10.00000 3.00000
v -2.00000 5.00000 3.00000
v -3.00000 5.00000 3.00000
v -3.00000 10.00000 3.00000
v 4.00000 10.00000 3.00000
v 4.00000 5.00000 3.00000
v 3.00000 5.00000 3.00000
v 3.00000 10.00000 3.00000
v 3.00000 7.00000 -2.00000
v 3.00000 6.00000 -2.00000
v -2.00000 6.00000 -2.00000
v -2.00000 7.00000 -2.00000
v 3.00000 9.00000 -2.00000
v 3.00000 8.00000 -2.00000
v -2.00000 8.00000 -2.00000
v -2.00000 9.00000 -2.00000
v 3.00000 8.00000 -1.00000
v 3.00000 7.00000 -1.00000
v -2.00000 7.00000 -1.00000
v -2.00000 8.00000 -1.00000
v 4.00000 4.00000 3.00000
v -3.00000 4.00000 3.00000
v 4.00000 11.00000 3.00000
v -3.00000 11.00000 3.00000
v 0.00000 6.00000 -4.00000
v 0.00000 5.00000 -4.00000
v -2.00000 5.00000 -4.00000
v -2.00000 6.00000 -4.00000
v 0.00000 10.00000 -4.00000
v 0.00000 9.00000 -4.00000
v -2.00000 9.00000 -4.00000
v -2.00000 10.00000 -4.00000
v 3.00000 6.00000 -4.00000
v 3.00000 5.00000 -4.00000
v 1.00000 5.00000 -4.00000
v 1.00000 6.00000 -4.00000
v 3.00000 10.00000 -4.00000
v 3.00000 9.00000 -4.00000
v 1.00000 9.00000 -4.00000
v 1.00000 10.00000 -4.00000
v 1.00000 6.00000 -2.00000
v 1.00000 5.00000 -2.00000
v 0.00000 5.00000 -2.00000
v 0.00000 6.00000 -2.00000
v 1.00000 10.00000 -2.00000
v 1.00000 9.00000 -2.00000
v 0.00000 9.00000 -2.00000
v 0.00000 10.00000 -2.00000
v 0.00000 5.00000 1.00000
v 0.00000 -10.00000 1.00000
v 1.00000 -10.00000 1.00000
v 1.00000 5.00000 1.00000
v -3.00000 11.00000 8.00000
v -3.00000 4.00000 8.00000
v 4.00000 4.00000 8.00000
v 4.00000 11.00000 8.00000
v -2.00000 10.00000 0.00000
v -2.00000 5.00000 0.00000
v -1.00000 5.00000 0.00000
v -1.00000 10.00000 0.00000
v 2.00000 10.00000 0.00000
v 2.00000 5.00000 0.00000
v 3.00000 5.00000 0.00000
v 3.00000 10.00000 0.00000
v -2.00000 6.00000 0.00000
v -2.00000 9.00000 0.00000
v -2.00000 7.00000 0.00000
v -2.00000 8.00000 0.00000
v 3.00000 6.00000 0.00000
v 3.00000 9.00000 0.00000
v 3.00000 7.00000 0.00000
v 3.00000 8.00000 0.00000
v -2.00000 10.00000 -2.00000
v 3.00000 10.00000 -2.00000
v -2.00000 5.00000 -2.00000
v 3.00000 5.00000 -2.00000
v -2.00000 5.00000 -1.00000
v 3.00000 5.00000 -1.00000
v -1.00000 5.00000 1.00000
v 2.00000 5.00000 1.00000
v 0.00000 5.00000 0.00000
v 1.00000 5.00000 0.00000

vt 0.01563 0.50000
vt 0.01563 0.03125
vt 0.04688 0.03125
vt 0.04688 0.50000
vt 0.07813 0.50000
vt 0.07813 0.03125
vt 0.10938 0.03125
vt 0.10938 0.50000
vt 0.14063 0.50000
vt 0.14063 0.03125
vt 0.15625 0.03125
vt 0.15625 0.50000
vt 0.18750 0.50000
vt 0.18750 0.03125
vt 0.20313 0.03125
vt 0.20313 0.50000
vt 0.23438 0.25000
vt 0.23438 0.03125
vt 0.34375 0.03125
vt 0.34375 0.25000
vt 0.37500 0.25000
vt 0.37500 0.03125
vt 0.45313 0.03125
vt 0.45313 0.25000
vt 0.48438 0.25000
vt 0.48438 0.03125
vt 0.56250 0.03125
vt 0.56250 0.25000
vt 0.59375 0.18750
vt 0.59375 0.03125
vt 0.70313 0.03125
vt 0.70313 0.18750
vt 0.73438 0.18750
vt 0.73438 0.03125
vt 0.84375 0.03125
vt 0.84375 0.18750
vt 0.87500 0.18750
vt 0.87500 0.03125
vt 0.90625 0.03125
vt 0.90625 0.18750
vt 0.93750 0.18750
vt 0.93750 0.03125
vt 0.96875 0.03125
vt 0.96875 0.18750
vt 0.23438 0.46875
vt 0.23438 0.31250
vt 0.25000 0.31250
vt 0.25000 0.46875
vt 0.28125 0.46875
vt 0.28125 0.31250
vt 0.29688 0.31250
vt 0.29688 0.46875
vt 0.32813 0.46875
vt 0.32813 0.31250
vt 0.34375 0.31250
vt 0.34375 0.46875
vt 0.37500 0.46875
vt 0.37500 0.31250
vt 0.39063 0.31250
vt 0.39063 0.46875
vt 0.42188 0.46875
vt 0.42188 0.31250
vt 0.43750 0.31250
vt 0.43750 0.46875
vt 0.46875 0.46875
vt 0.46875 0.31250
vt 0.48438 0.31250
vt 0.48438 0.46875
vt 0.51563 0.46875
vt 0.51563 0.31250
vt 0.53125 0.31250
vt 0.53125 0.46875
vt 0.56250 0.46875
vt 0.56250 0.31250
vt 0.57813 0.31250
vt 0.57813 0.46875
vt 0.60938 0.37500
vt 0.60938 0.31250
vt 0.68750 0.31250
vt 0.68750 0.37500
vt 0.71875 0.37500
vt 0.71875 0.31250
vt 0.76563 0.31250
vt 0.76563 0.37500
vt 0.79688 0.37500
vt 0.79688 0.31250
vt 0.82813 0.31250
vt 0.82813 0.37500
vt 0.85938 0.37500
vt 0.85938 0.31250
vt 0.89063 0.31250
vt 0.89063 0.37500
vt 0.92188 0.37500
vt 0.92188 0.31250
vt 0.95313 0.31250
vt 0.95313 0.37500
vt 0.01563 0.62500
vt 0.01563 0.56250
vt 0.04688 0.56250
vt 0.04688 0.62500
vt 0.07813 0.62500
vt 0.07813 0.56250
vt 0.10938 0.56250
vt 0.10938 0.62500
vt 0.14063 0.62500
vt 0.14063 0.56250
vt 0.17188 0.56250
vt 0.17188 0.62500
vt 0.20313 0.62500
vt 0.20313 0.56250
vt 0.23438 0.56250
vt 0.23438 0.62500
vt 0.26563 0.62500
vt 0.26563 0.56250
vt 0.29688 0.56250
vt 0.29688 0.62500
vt 0.32813 0.62500
vt 0.32813 0.56250
vt 0.34375 0.56250
vt 0.34375 0.62500
vt 0.60938 0.46875
vt 0.60938 0.43750
vt 0.71875 0.43750
vt 0.71875 0.46875
vt 0.75000 0.46875
vt 0.75000 0.43750
vt 0.85938 0.43750
vt 0.85938 0.46875
vt 0.89063 0.46875
vt 0.89063 0.43750
vt 0.96875 0.43750
vt 0.96875 0.46875
vt 0.37500 0.59375
vt 0.37500 0.56250
vt 0.45313 0.56250
vt 0.45313 0.59375
vt 0.48438 0.59375
vt 0.48438 0.56250
vt 0.56250 0.56250
vt 0.56250 0.59375
vt 0.59375 0.59375
vt 0.59375 0.56250
vt 0.67188 0.56250
vt 0.67188 0.59375
vt 0.70313 0.59375
vt 0.70313 0.56250
vt 0.78125 0.56250
vt 0.78125 0.59375
vt 0.81250 0.59375
vt 0.81250 0.56250
vt 0.89063 0.56250
vt 0.89063 0.59375
vt 0.01563 0.71875
vt 0.01563 0.68750
vt 0.09375 0.68750
vt 0.09375 0.71875
vt 0.12500 0.71875
vt 0.12500 0.68750
vt 0.20313 0.68750
vt 0.20313 0.71875
vt 0.92188 0.59375
vt 0.92188 0.56250
vt 0.98438 0.56250
vt 0.98438 0.59375
vt 0.23438 0.71875
vt 0.23438 0.68750
vt 0.29688 0.68750
vt 0.29688 0.71875
vt 0.32813 0.71875
vt 0.32813 0.68750
vt 0.39063 0.68750
vt 0.39063 0.71875
vt 0.42188 0.71875
vt 0.42188 0.68750
vt 0.48438 0.68750
vt 0.48438 0.71875
vt 0.51563 0.71875
vt 0.51563 0.68750
vt 0.56250 0.68750
vt 0.56250 0.71875
vt 0.59375 0.71875
vt 0.59375 0.68750
vt 0.62500 0.68750
vt 0.62500 0.71875
vt 0.65625 0.71875
vt 0.65625 0.68750
vt 0.68750 0.68750
vt 0.68750 0.71875
vt 0.71875 0.71875
vt 0.71875 0.68750
vt 0.75000 0.68750
vt 0.75000 0.71875
vt 0.78125 0.71875
vt 0.78125 0.68750
vt 0.81250 0.68750
vt 0.81250 0.71875
vt 0.84375 0.71875
vt 0.84375 0.68750
vt 0.87500 0.68750
vt 0.87500 0.71875
vt 0.90625 0.71875
vt 0.90625 0.68750
vt 0.93750 0.68750
vt 0.93750 0.71875
vt 0.01563 0.81250
vt 0.01563 0.78125
vt 0.04688 0.78125
vt 0.04688 0.81250
vt 0.07813 0.81250
vt 0.07813 0.78125
vt 0.10938 0.78125
vt 0.10938 0.81250
vt 0.14063 0.81250
vt 0.14063 0.78125
vt 0.17188 0.78125
vt 0.17188 0.81250
vt 0.20313 0.81250
vt 0.20313 0.78125
vt 0.23438 0.78125
vt 0.23438 0.81250
vt 0.26563 0.81250
vt 0.26563 0.78125
vt 0.29688 0.78125
vt 0.29688 0.81250
vt 0.32813 0.81250
vt 0.32813 0.78125
vt 0.35938 0.78125
vt 0.35938 0.81250
vt 0.39063 0.81250
vt 0.39063 0.78125
vt 0.42188 0.78125
vt 0.42188 0.81250
vt 0.45313 0.81250
vt 0.45313 0.78125
vt 0.48438 0.78125
vt 0.48438 0.81250
vt 0.96875 0.71875
vt 0.96875 0.68750
vt 0.98438 0.68750
vt 0.98438 0.71875
vt 0.51563 0.81250
vt 0.51563 0.78125
vt 0.53125 0.78125
vt 0.53125 0.81250
vt 0.56250 0.81250
vt 0.56250 0.78125
vt 0.57813 0.78125
vt 0.57813 0.81250
vt 0.60938 0.81250
vt 0.60938 0.78125
vt 0.62500 0.78125
vt 0.62500 0.81250
vt 0.65625 0.81250
vt 0.65625 0.78125
vt 0.67188 0.78125
vt 0.67188 0.81250
vt 0.70313 0.81250
vt 0.70313 0.78125
vt 0.71875 0.78125
vt 0.71875 0.81250
vt 0.84375 0.56250
vt 0.85938 0.56250
vt 0.51563 0.59375
vt 0.53125 0.59375
vt 0.70313 0.46875
vt 0.62500 0.46875
vt 0.84375 0.43750
vt 0.76563 0.43750
vt 0.56250 0.34375
vt 0.56250 0.43750
vt 0.56250 0.37500
vt 0.56250 0.40625
vt 0.43750 0.34375
vt 0.43750 0.43750
vt 0.43750 0.37500
vt 0.43750 0.40625
vt 0.03125 0.50000
vt 0.48438 0.06250
vt 0.48438 0.21875
vt 0.89063 0.03125
vt 0.95313 0.59375
vt 0.95313 0.56250
vt 0.96875 0.56250
vt 0.45313 0.71875
vt 0.45313 0.68750
vt 0.03125 0.81250
vt 0.92188 0.68750
vt 0.09375 0.50000
vt 0.45313 0.21875
vt 0.45313 0.06250
vt 0.95313 0.03125
vt 0.26563 0.71875
vt 0.26563 0.68750
vt 0.25000 0.68750
vt 0.35938 0.71875
vt 0.35938 0.68750
vt 0.15625 0.81250
vt 0.09375 0.78125
vt 0.62500 0.31250
vt 0.67188 0.31250
vt 0.65625 0.37500
vt 0.64063 0.37500
vt 0.60938 0.59375
vt 0.65625 0.59375
vt 0.42188 0.56250
vt 0.40625 0.56250
vt 0.42188 0.59375
vt 0.40625 0.59375
vt 0.03125 0.68750
vt 0.07813 0.68750
vt 0.53125 0.68750
vt 0.54688 0.68750
vt 0.40625 0.81250
vt 0.34375 0.81250

g mtx_hammer2
usemtl hammer2_Material
f 2/10/2 4/12/2 1/9/2
f 2/10/2 3/11/2 4/12/2
f 6/58/2 8/60/2 5/57/2
f 6/58/2 7/59/2 8/60/2
f 10/50/2 12/52/2 9/49/2
f 10/50/2 11/51/2 12/52/2
f 14/46/2 16/48/2 13/45/2
f 14/46/2 15/47/2 16/48/2
f 18/70/2 20/72/2 17/69/2
f 18/70/2 19/71/2 20/72/2
f 24/152/2 21/149/2 22/150/2
f 22/150/2 23/151/2 24/152/2
f 23/151/2 22/150/2 53/261/2
f 53/261/2 56/262/2 23/151/2
f 58/263/2 25/137/2 26/138/2
f 26/138/2 59/264/2 58/263/2
f 59/264/2 26/138/2 27/139/2
f 27/139/2 28/140/2 59/264/2
f 30/130/2 32/132/2 29/129/2
f 30/130/2 31/131/2 32/132/2
f 19/266/2 18/121/2 33/122/2
f 33/122/2 14/265/2 19/266/2
f 14/265/2 33/122/2 34/123/2
f 34/123/2 15/124/2 14/265/2
f 36/128/2 35/125/2 17/126/2
f 17/126/2 16/127/2 36/128/2
f 16/127/2 17/126/2 20/268/2
f 20/268/2 13/267/2 16/127/2
f 38/190/2 40/192/2 37/189/2
f 38/190/2 39/191/2 40/192/2
f 42/194/2 44/196/2 41/193/2
f 42/194/2 43/195/2 44/196/2
f 46/182/2 48/184/2 45/181/2
f 46/182/2 47/183/2 48/184/2
f 50/186/2 52/188/2 49/185/2
f 50/186/2 51/187/2 52/188/2
f 54/258/2 56/260/2 53/257/2
f 54/258/2 55/259/2 56/260/2
f 58/238/2 60/240/2 57/237/2
f 58/238/2 59/239/2 60/240/2
f 62/14/1 64/16/1 61/13/1
f 62/14/1 63/15/1 64/16/1
f 66/18/1 68/20/1 65/17/1
f 66/18/1 67/19/1 68/20/1
f 72/76/1 69/73/1 78/270/1
f 78/270/1 71/75/1 72/76/1
f 71/75/1 78/270/1 80/272/1
f 80/272/1 70/74/1 71/75/1
f 70/74/1 80/272/1 79/271/1
f 79/271/1 77/269/1 70/74/1
f 76/64/1 73/61/1 74/62/1
f 74/62/1 82/274/1 76/64/1
f 82/274/1 74/62/1 75/63/1
f 75/63/1 84/276/1 82/274/1
f 84/276/1 75/63/1 81/273/1
f 81/273/1 83/275/1 84/276/1
f 93/277/3 4/1/3 3/2/3
f 3/2/3 61/4/3 93/277/3
f 61/4/3 3/2/3 62/3/3
f 65/28/3 36/25/3 16/279/3
f 16/279/3 66/27/3 65/28/3
f 66/27/3 16/279/3 15/278/3
f 15/278/3 34/26/3 66/27/3
f 5/40/3 72/37/3 71/38/3
f 71/38/3 6/39/3 5/40/3
f 6/39/3 71/38/3 91/280/3
f 7/54/3 13/56/3 8/53/3
f 7/54/3 14/55/3 13/56/3
f 23/281/3 40/161/3 39/162/3
f 39/162/3 77/164/3 23/281/3
f 77/164/3 39/162/3 87/282/3
f 87/282/3 70/163/3 77/164/3
f 70/163/3 87/282/3 89/283/3
f 85/284/3 44/173/3 43/174/3
f 43/174/3 69/176/3 85/284/3
f 69/176/3 43/174/3 28/285/3
f 28/285/3 78/175/3 69/176/3
f 47/234/3 53/236/3 48/233/3
f 47/234/3 54/235/3 53/236/3
f 51/222/3 57/224/3 52/221/3
f 51/222/3 58/223/3 57/224/3
f 31/286/3 24/205/3 23/206/3
f 23/206/3 79/208/3 31/286/3
f 79/208/3 23/206/3 77/207/3
f 78/204/3 28/201/3 27/202/3
f 27/202/3 80/203/3 78/204/3
f 80/203/3 27/202/3 32/287/3
f 31/250/3 80/252/3 32/249/3
f 31/250/3 79/251/3 80/252/3
f 94/288/4 64/5/4 63/6/4
f 63/6/4 1/8/4 94/288/4
f 1/8/4 63/6/4 2/7/4
f 35/24/4 68/21/4 67/22/4
f 67/22/4 17/289/4 35/24/4
f 17/289/4 67/22/4 33/23/4
f 33/23/4 18/290/4 17/289/4
f 73/44/4 12/41/4 11/42/4
f 11/42/4 74/43/4 73/44/4
f 74/43/4 11/42/4 92/291/4
f 19/66/4 9/68/4 20/65/4
f 19/66/4 10/67/4 9/68/4
f 22/292/4 81/165/4 75/166/4
f 75/166/4 45/168/4 22/292/4
f 45/168/4 75/166/4 90/294/4
f 90/294/4 46/167/4 45/168/4
f 46/167/4 90/294/4 88/293/4
f 86/295/4 76/169/4 82/170/4
f 82/170/4 49/172/4 86/295/4
f 49/172/4 82/170/4 25/296/4
f 25/296/4 50/171/4 49/172/4
f 55/198/4 37/200/4 56/197/4
f 55/198/4 38/199/4 37/200/4
f 59/218/4 41/220/4 60/217/4
f 59/218/4 42/219/4 41/220/4
f 30/297/4 83/213/4 81/214/4
f 81/214/4 21/216/4 30/297/4
f 21/216/4 81/214/4 22/215/4
f 25/212/4 82/209/4 84/210/4
f 84/210/4 26/211/4 25/212/4
f 26/211/4 84/210/4 29/298/4
f 83/242/4 29/244/4 84/241/4
f 83/242/4 30/243/4 29/244/4
f 36/33/5 65/34/5 35/36/5
f 65/34/5 68/35/5 35/36/5
f 60/302/5 85/77/5 69/78/5
f 69/78/5 72/299/5 60/302/5
f 57/301/5 60/302/5 72/299/5
f 72/299/5 73/300/5 57/301/5
f 86/80/5 57/301/5 73/300/5
f 73/300/5 76/79/5 86/80/5
f 72/81/5 5/82/5 73/84/5
f 5/82/5 12/83/5 73/84/5
f 40/109/5 23/110/5 37/112/5
f 23/110/5 56/111/5 37/112/5
f 44/105/5 85/106/5 41/108/5
f 85/106/5 60/107/5 41/108/5
f 48/101/5 53/102/5 45/104/5
f 53/102/5 22/103/5 45/104/5
f 52/113/5 57/114/5 49/116/5
f 57/114/5 86/115/5 49/116/5
f 24/145/5 31/146/5 21/148/5
f 31/146/5 30/147/5 21/148/5
f 5/303/5 8/141/5 13/142/5
f 13/142/5 20/143/5 5/303/5
f 12/304/5 5/303/5 20/143/5
f 20/143/5 9/144/5 12/304/5
f 66/29/6 34/30/6 67/32/6
f 34/30/6 33/31/6 67/32/6
f 87/89/6 39/90/6 55/92/6
f 39/90/6 38/91/6 55/92/6
f 28/85/6 43/86/6 59/88/6
f 43/86/6 42/87/6 59/88/6
f 54/97/6 47/98/6 88/100/6
f 47/98/6 46/99/6 88/100/6
f 58/93/6 51/94/6 25/96/6
f 51/94/6 50/95/6 25/96/6
f 62/117/6 3/118/6 63/120/6
f 3/118/6 2/119/6 63/120/6
f 4/308/6 89/133/6 87/134/6
f 87/134/6 55/306/6 4/308/6
f 1/307/6 4/308/6 55/306/6
f 55/306/6 54/305/6 1/307/6
f 90/136/6 1/307/6 54/305/6
f 54/305/6 88/135/6 90/136/6
f 32/157/6 27/158/6 29/160/6
f 27/158/6 26/159/6 29/160/6
f 19/156/6 14/153/6 7/154/6
f 7/154/6 6/309/6 19/156/6
f 10/155/6 19/156/6 6/309/6
f 6/309/6 11/310/6 10/155/6
f 11/180/6 6/177/6 91/178/6
f 91/178/6 61/311/6 11/180/6
f 92/179/6 11/180/6 61/311/6
f 61/311/6 64/312/6 92/179/6
f 71/313/6 70/229/6 89/230/6
f 89/230/6 4/231/6 71/313/6
f 93/232/6 71/313/6 4/231/6
f 74/314/6 94/225/6 1/226/6
f 1/226/6 90/227/6 74/314/6
f 75/228/6 74/314/6 90/227/6
f 91/253/6 71/254/6 61/256/6
f 71/254/6 93/255/6 61/256/6
f 64/245/6 94/246/6 92/248/6
f 94/246/6 74/247/6 92/248/6
