# This file was created with Minddesk Qubicle 2.0
# Get Qubicle at www.minddesk.com

mtllib env_citygate.mtl

vn 0.0 0.0 1.0
vn 0.0 0.0 -1.0
vn -1.0 0.0 0.0
vn 1.0 0.0 0.0
vn 0.0 1.0 0.0
vn 0.0 -1.0 0.0

v 15.50000 31.50000 -3.50000
v 15.50000 -0.50000 -3.50000
v -14.50000 -0.50000 -3.50000
v -14.50000 31.50000 -3.50000
v -9.50000 39.50000 -3.50000
v -9.50000 31.50000 -3.50000
v -14.50000 39.50000 -3.50000
v 6.50000 35.50000 -3.50000
v 6.50000 31.50000 -3.50000
v -9.50000 35.50000 -3.50000
v -1.50000 37.50000 -3.50000
v -1.50000 35.50000 -3.50000
v -9.50000 37.50000 -3.50000
v 14.50000 33.50000 -3.50000
v 14.50000 31.50000 -3.50000
v 6.50000 33.50000 -3.50000
v -5.50000 38.50000 -3.50000
v -5.50000 37.50000 -3.50000
v -9.50000 38.50000 -3.50000
v 2.50000 36.50000 -3.50000
v 2.50000 35.50000 -3.50000
v -1.50000 36.50000 -3.50000
v 10.50000 34.50000 -3.50000
v 10.50000 33.50000 -3.50000
v 6.50000 34.50000 -3.50000
v 15.50000 32.50000 -3.50000
v 14.50000 32.50000 -3.50000
v -14.50000 31.50000 4.50000
v -14.50000 -0.50000 4.50000
v 15.50000 -0.50000 4.50000
v 15.50000 31.50000 4.50000
v -14.50000 39.50000 4.50000
v -9.50000 31.50000 4.50000
v -9.50000 39.50000 4.50000
v -9.50000 35.50000 4.50000
v 6.50000 31.50000 4.50000
v 6.50000 35.50000 4.50000
v -9.50000 37.50000 4.50000
v -1.50000 35.50000 4.50000
v -1.50000 37.50000 4.50000
v 6.50000 33.50000 4.50000
v 14.50000 31.50000 4.50000
v 14.50000 33.50000 4.50000
v -9.50000 38.50000 4.50000
v -5.50000 37.50000 4.50000
v -5.50000 38.50000 4.50000
v -1.50000 36.50000 4.50000
v 2.50000 35.50000 4.50000
v 2.50000 36.50000 4.50000
v 6.50000 34.50000 4.50000
v 10.50000 33.50000 4.50000
v 10.50000 34.50000 4.50000
v 14.50000 32.50000 4.50000
v 15.50000 32.50000 4.50000

vt 0.00781 0.64063
vt 0.00781 0.01563
vt 0.07031 0.01563
vt 0.07031 0.64063
vt 0.08594 0.53125
vt 0.08594 0.01563
vt 0.14844 0.01563
vt 0.14844 0.53125
vt 0.16406 0.51563
vt 0.16406 0.01563
vt 0.39844 0.01563
vt 0.39844 0.51563
vt 0.41406 0.51563
vt 0.41406 0.01563
vt 0.64844 0.01563
vt 0.64844 0.51563
vt 0.66406 0.14063
vt 0.66406 0.01563
vt 0.89844 0.01563
vt 0.89844 0.14063
vt 0.91406 0.14063
vt 0.91406 0.01563
vt 0.95313 0.01563
vt 0.95313 0.14063
vt 0.66406 0.29688
vt 0.66406 0.17188
vt 0.70313 0.17188
vt 0.70313 0.29688
vt 0.71875 0.29688
vt 0.71875 0.17188
vt 0.75781 0.17188
vt 0.75781 0.29688
vt 0.77344 0.29688
vt 0.77344 0.17188
vt 0.80469 0.17188
vt 0.80469 0.29688
vt 0.82031 0.29688
vt 0.82031 0.17188
vt 0.85156 0.17188
vt 0.85156 0.29688
vt 0.86719 0.29688
vt 0.86719 0.17188
vt 0.89844 0.17188
vt 0.89844 0.29688
vt 0.91406 0.29688
vt 0.91406 0.17188
vt 0.94531 0.17188
vt 0.94531 0.29688
vt 0.96094 0.29688
vt 0.96094 0.17188
vt 0.99219 0.17188
vt 0.99219 0.29688
vt 0.66406 0.45313
vt 0.66406 0.32813
vt 0.69531 0.32813
vt 0.69531 0.45313
vt 0.96875 0.14063
vt 0.96875 0.01563
vt 0.97656 0.01563
vt 0.97656 0.14063
vt 0.71094 0.39063
vt 0.71094 0.32813
vt 0.83594 0.32813
vt 0.83594 0.39063
vt 0.85156 0.39063
vt 0.85156 0.32813
vt 0.97656 0.32813
vt 0.97656 0.39063
vt 0.71094 0.45313
vt 0.71094 0.42188
vt 0.77344 0.42188
vt 0.77344 0.45313
vt 0.78906 0.45313
vt 0.78906 0.42188
vt 0.85156 0.42188
vt 0.85156 0.45313
vt 0.86719 0.45313
vt 0.86719 0.42188
vt 0.92969 0.42188
vt 0.92969 0.45313
vt 0.66406 0.51563
vt 0.66406 0.48438
vt 0.72656 0.48438
vt 0.72656 0.51563
vt 0.74219 0.50000
vt 0.74219 0.48438
vt 0.80469 0.48438
vt 0.80469 0.50000
vt 0.82031 0.50000
vt 0.82031 0.48438
vt 0.88281 0.48438
vt 0.88281 0.50000
vt 0.89844 0.50000
vt 0.89844 0.48438
vt 0.96094 0.48438
vt 0.96094 0.50000
vt 0.08594 0.57813
vt 0.08594 0.56250
vt 0.14844 0.56250
vt 0.14844 0.57813
vt 0.16406 0.57813
vt 0.16406 0.56250
vt 0.22656 0.56250
vt 0.22656 0.57813
vt 0.24219 0.57813
vt 0.24219 0.56250
vt 0.30469 0.56250
vt 0.30469 0.57813
vt 0.32031 0.57813
vt 0.32031 0.56250
vt 0.38281 0.56250
vt 0.38281 0.57813
vt 0.94531 0.43750
vt 0.94531 0.42188
vt 0.97656 0.42188
vt 0.97656 0.43750
vt 0.39844 0.57813
vt 0.39844 0.56250
vt 0.42969 0.56250
vt 0.42969 0.57813
vt 0.44531 0.57813
vt 0.44531 0.56250
vt 0.47656 0.56250
vt 0.47656 0.57813
vt 0.49219 0.57813
vt 0.49219 0.56250
vt 0.52344 0.56250
vt 0.52344 0.57813
vt 0.53906 0.57813
vt 0.53906 0.56250
vt 0.57031 0.56250
vt 0.57031 0.57813
vt 0.58594 0.57813
vt 0.58594 0.56250
vt 0.61719 0.56250
vt 0.61719 0.57813
vt 0.97656 0.50000
vt 0.97656 0.48438
vt 0.98438 0.48438
vt 0.98438 0.50000
vt 0.63281 0.57813
vt 0.63281 0.56250
vt 0.64063 0.56250
vt 0.64063 0.57813
vt 0.35938 0.51563
vt 0.23438 0.51563
vt 0.17188 0.51563
vt 0.71875 0.23438
vt 0.71875 0.26563
vt 0.71875 0.28125
vt 0.77344 0.39063
vt 0.74219 0.39063
vt 0.71094 0.35938
vt 0.71094 0.37500
vt 0.69531 0.51563
vt 0.66406 0.50000
vt 0.74219 0.45313
vt 0.71094 0.43750
vt 0.45313 0.51563
vt 0.57813 0.51563
vt 0.64063 0.51563
vt 0.70313 0.23438
vt 0.70313 0.26563
vt 0.70313 0.28125
vt 0.91406 0.39063
vt 0.94531 0.39063
vt 0.97656 0.35938
vt 0.97656 0.37500
vt 0.82031 0.45313
vt 0.85156 0.43750
vt 0.89844 0.45313
vt 0.92969 0.43750
vt 0.07031 0.51563
vt 0.00781 0.51563
vt 0.14844 0.51563
vt 0.08594 0.51563

g mtx_env_citygate
usemtl env_citygate_Material
f  15/147/2 1/9/2 2/10/2
f  2/10/2 9/146/2 15/147/2
f  9/146/2 2/10/2 3/11/2
f  3/11/2 6/145/2 9/146/2
f  6/145/2 3/11/2 4/12/2
f  7/32/2 5/29/2 19/150/2
f  19/150/2 4/31/2 7/32/2
f  4/31/2 19/150/2 13/149/2
f  13/149/2 6/30/2 4/31/2
f  6/30/2 13/149/2 10/148/2
f  21/152/2 8/61/2 25/154/2
f  25/154/2 12/151/2 21/152/2
f  12/151/2 25/154/2 16/153/2
f  16/153/2 10/64/2 12/151/2
f  10/64/2 16/153/2 9/62/2
f  9/62/2 6/63/2 10/64/2
f  18/155/2 11/81/2 22/156/2
f  22/156/2 13/84/2 18/155/2
f  13/84/2 22/156/2 12/82/2
f  12/82/2 10/83/2 13/84/2
f  24/157/2 14/69/2 27/158/2
f  27/158/2 16/72/2 24/157/2
f  16/72/2 27/158/2 15/70/2
f  15/70/2 9/71/2 16/72/2
f  18/114/2 19/116/2 17/113/2
f  18/114/2 13/115/2 19/116/2
f  21/118/2 22/120/2 20/117/2
f  21/118/2 12/119/2 22/120/2
f  24/130/2 25/132/2 23/129/2
f  24/130/2 16/131/2 25/132/2
f  1/142/2 27/144/2 26/141/2
f  1/142/2 15/143/2 27/144/2
f  33/159/1 28/13/1 29/14/1
f  29/14/1 36/160/1 33/159/1
f  36/160/1 29/14/1 30/15/1
f  30/15/1 42/161/1 36/160/1
f  42/161/1 30/15/1 31/16/1
f  34/28/1 32/25/1 28/26/1
f  28/26/1 44/164/1 34/28/1
f  44/164/1 28/26/1 33/27/1
f  33/27/1 38/163/1 44/164/1
f  38/163/1 33/27/1 35/162/1
f  39/165/1 35/65/1 33/66/1
f  33/66/1 48/166/1 39/165/1
f  48/166/1 33/66/1 36/67/1
f  36/67/1 37/68/1 48/166/1
f  37/68/1 36/67/1 41/167/1
f  41/167/1 50/168/1 37/68/1
f  45/169/1 38/73/1 35/74/1
f  35/74/1 40/76/1 45/169/1
f  40/76/1 35/74/1 39/75/1
f  39/75/1 47/170/1 40/76/1
f  51/171/1 41/77/1 36/78/1
f  36/78/1 43/80/1 51/171/1
f  43/80/1 36/78/1 42/79/1
f  42/79/1 53/172/1 43/80/1
f  38/134/1 46/136/1 44/133/1
f  38/134/1 45/135/1 46/136/1
f  39/122/1 49/124/1 47/121/1
f  39/122/1 48/123/1 49/124/1
f  41/126/1 52/128/1 50/125/1
f  41/126/1 51/127/1 52/128/1
f  42/138/1 54/140/1 53/137/1
f  42/138/1 31/139/1 54/140/1
f  32/4/3 7/1/3 4/174/3
f  4/174/3 28/173/3 32/4/3
f  28/173/3 4/174/3 3/2/3
f  3/2/3 29/3/3 28/173/3
f  26/8/4 54/5/4 31/176/4
f  31/176/4 1/175/4 26/8/4
f  1/175/4 31/176/4 30/6/4
f  30/6/4 2/7/4 1/175/4
f  44/110/4 5/112/4 34/109/4
f  44/110/4 19/111/4 5/112/4
f  45/98/4 17/100/4 46/97/4
f  45/98/4 18/99/4 17/100/4
f  47/86/4 11/88/4 40/85/4
f  47/86/4 22/87/4 11/88/4
f  48/90/4 20/92/4 49/89/4
f  48/90/4 21/91/4 20/92/4
f  50/94/4 8/96/4 37/93/4
f  50/94/4 25/95/4 8/96/4
f  51/106/4 23/108/4 52/105/4
f  51/106/4 24/107/4 23/108/4
f  53/102/4 14/104/4 43/101/4
f  53/102/4 27/103/4 14/104/4
f  7/21/5 32/22/5 5/24/5
f  32/22/5 34/23/5 5/24/5
f  19/49/5 44/50/5 17/52/5
f  44/50/5 46/51/5 17/52/5
f  18/45/5 45/46/5 11/48/5
f  45/46/5 40/47/5 11/48/5
f  22/53/5 47/54/5 20/56/5
f  47/54/5 49/55/5 20/56/5
f  21/33/5 48/34/5 8/36/5
f  48/34/5 37/35/5 8/36/5
f  25/37/5 50/38/5 23/40/5
f  50/38/5 52/39/5 23/40/5
f  24/41/5 51/42/5 14/44/5
f  51/42/5 43/43/5 14/44/5
f  27/57/5 53/58/5 26/60/5
f  53/58/5 54/59/5 26/60/5
f  29/17/6 3/18/6 30/20/6
f  3/18/6 2/19/6 30/20/6
