# This file was created with Minddesk Qubicle 2.0
# Get Qubicle at www.minddesk.com

mtllib env_cow_32q.mtl

vn 0.0 0.0 1.0
vn 0.0 0.0 -1.0
vn -1.0 0.0 0.0
vn 1.0 0.0 0.0
vn 0.0 1.0 0.0
vn 0.0 -1.0 0.0

v 3.50000 18.50000 -14.50000
v 3.50000 -0.50000 -14.50000
v -3.50000 -0.50000 -14.50000
v -3.50000 18.50000 -14.50000
v 3.50000 5.50000 2.50000
v 3.50000 -0.50000 2.50000
v -3.50000 -0.50000 2.50000
v -3.50000 5.50000 2.50000
v 3.50000 11.50000 13.50000
v 3.50000 10.50000 13.50000
v -3.50000 10.50000 13.50000
v -3.50000 11.50000 13.50000
v 3.50000 18.50000 9.50000
v 3.50000 17.50000 9.50000
v -3.50000 17.50000 9.50000
v -3.50000 18.50000 9.50000
v 0.50000 6.50000 4.50000
v 0.50000 5.50000 4.50000
v -0.50000 5.50000 4.50000
v -0.50000 6.50000 4.50000
v -3.50000 5.50000 -11.50000
v -3.50000 -0.50000 -11.50000
v 3.50000 -0.50000 -11.50000
v 3.50000 5.50000 -11.50000
v -3.50000 7.50000 5.50000
v -3.50000 -0.50000 5.50000
v 3.50000 -0.50000 5.50000
v 3.50000 7.50000 5.50000
v -3.50000 15.50000 16.50000
v -3.50000 10.50000 16.50000
v 3.50000 10.50000 16.50000
v 3.50000 15.50000 16.50000
v -3.50000 17.50000 15.50000
v -3.50000 15.50000 15.50000
v 3.50000 15.50000 15.50000
v 3.50000 17.50000 15.50000
v -3.50000 8.50000 6.50000
v -3.50000 7.50000 6.50000
v 3.50000 7.50000 6.50000
v 3.50000 8.50000 6.50000
v -3.50000 9.50000 7.50000
v -3.50000 8.50000 7.50000
v 3.50000 8.50000 7.50000
v 3.50000 9.50000 7.50000
v -3.50000 10.50000 8.50000
v -3.50000 9.50000 8.50000
v 3.50000 9.50000 8.50000
v 3.50000 10.50000 8.50000
v -3.50000 11.50000 9.50000
v -3.50000 10.50000 9.50000
v 3.50000 10.50000 9.50000
v 3.50000 11.50000 9.50000
v -3.50000 18.50000 6.50000
v -3.50000 17.50000 6.50000
v 3.50000 17.50000 6.50000
v 3.50000 18.50000 6.50000
v -3.50000 18.50000 14.50000
v -3.50000 17.50000 14.50000
v 3.50000 17.50000 14.50000
v 3.50000 18.50000 14.50000
v -0.50000 6.50000 3.50000
v -0.50000 5.50000 3.50000
v 0.50000 5.50000 3.50000
v 0.50000 6.50000 3.50000
v -3.50000 17.50000 -14.50000
v -3.50000 5.50000 -14.50000
v -3.50000 5.50000 1.50000
v -3.50000 17.50000 1.50000
v -3.50000 15.50000 1.50000
v -3.50000 5.50000 5.50000
v -3.50000 15.50000 5.50000
v -3.50000 15.50000 9.50000
v -3.50000 15.50000 14.50000
v -3.50000 15.50000 6.50000
v -3.50000 14.50000 6.50000
v -3.50000 14.50000 7.50000
v -3.50000 12.50000 13.50000
v -3.50000 12.50000 16.50000
v -3.50000 13.50000 8.50000
v -3.50000 12.50000 8.50000
v -3.50000 13.50000 16.50000
v -3.50000 13.50000 7.50000
v -3.50000 13.50000 15.50000
v -3.50000 14.50000 15.50000
v -3.50000 14.50000 14.50000
v -3.50000 12.50000 9.50000
v 3.50000 17.50000 1.50000
v 3.50000 5.50000 1.50000
v 3.50000 5.50000 -14.50000
v 3.50000 17.50000 -14.50000
v 3.50000 15.50000 5.50000
v 3.50000 5.50000 5.50000
v 3.50000 15.50000 1.50000
v 3.50000 15.50000 14.50000
v 3.50000 15.50000 9.50000
v 3.50000 15.50000 6.50000
v 3.50000 14.50000 7.50000
v 3.50000 14.50000 6.50000
v 3.50000 12.50000 16.50000
v 3.50000 12.50000 13.50000
v 3.50000 13.50000 16.50000
v 3.50000 12.50000 8.50000
v 3.50000 13.50000 8.50000
v 3.50000 14.50000 15.50000
v 3.50000 13.50000 15.50000
v 3.50000 13.50000 7.50000
v 3.50000 14.50000 14.50000
v 3.50000 12.50000 9.50000

vt 0.01563 0.34375
vt 0.01563 0.01563
vt 0.12500 0.01563
vt 0.12500 0.34375
vt 0.15625 0.31250
vt 0.15625 0.01563
vt 0.26563 0.01563
vt 0.26563 0.31250
vt 0.29688 0.23438
vt 0.29688 0.01563
vt 0.40625 0.01563
vt 0.40625 0.23438
vt 0.43750 0.20313
vt 0.43750 0.01563
vt 0.68750 0.01563
vt 0.68750 0.20313
vt 0.71875 0.20313
vt 0.71875 0.01563
vt 0.96875 0.01563
vt 0.96875 0.20313
vt 0.01563 0.53125
vt 0.01563 0.37500
vt 0.07813 0.37500
vt 0.07813 0.53125
vt 0.10938 0.53125
vt 0.10938 0.37500
vt 0.17188 0.37500
vt 0.17188 0.53125
vt 0.20313 0.50000
vt 0.20313 0.37500
vt 0.31250 0.37500
vt 0.31250 0.50000
vt 0.34375 0.50000
vt 0.34375 0.37500
vt 0.35938 0.37500
vt 0.35938 0.50000
vt 0.39063 0.50000
vt 0.39063 0.37500
vt 0.40625 0.37500
vt 0.40625 0.50000
vt 0.43750 0.46875
vt 0.43750 0.37500
vt 0.54688 0.37500
vt 0.54688 0.46875
vt 0.57813 0.46875
vt 0.57813 0.37500
vt 0.68750 0.37500
vt 0.68750 0.46875
vt 0.71875 0.46875
vt 0.71875 0.37500
vt 0.76563 0.37500
vt 0.76563 0.46875
vt 0.79688 0.46875
vt 0.79688 0.37500
vt 0.84375 0.37500
vt 0.84375 0.46875
vt 0.87500 0.46875
vt 0.87500 0.37500
vt 0.92188 0.37500
vt 0.92188 0.46875
vt 0.01563 0.65625
vt 0.01563 0.56250
vt 0.06250 0.56250
vt 0.06250 0.65625
vt 0.95313 0.46875
vt 0.95313 0.37500
vt 0.96875 0.37500
vt 0.96875 0.46875
vt 0.09375 0.65625
vt 0.09375 0.56250
vt 0.10938 0.56250
vt 0.10938 0.65625
vt 0.14063 0.64063
vt 0.14063 0.56250
vt 0.25000 0.56250
vt 0.25000 0.64063
vt 0.28125 0.64063
vt 0.28125 0.56250
vt 0.39063 0.56250
vt 0.39063 0.64063
vt 0.42188 0.62500
vt 0.42188 0.56250
vt 0.53125 0.56250
vt 0.53125 0.62500
vt 0.56250 0.62500
vt 0.56250 0.56250
vt 0.57813 0.56250
vt 0.57813 0.62500
vt 0.60938 0.62500
vt 0.60938 0.56250
vt 0.62500 0.56250
vt 0.62500 0.62500
vt 0.29688 0.31250
vt 0.29688 0.26563
vt 0.40625 0.26563
vt 0.40625 0.31250
vt 0.43750 0.31250
vt 0.43750 0.26563
vt 0.54688 0.26563
vt 0.54688 0.31250
vt 0.57813 0.31250
vt 0.57813 0.26563
vt 0.68750 0.26563
vt 0.68750 0.31250
vt 0.71875 0.31250
vt 0.71875 0.26563
vt 0.82813 0.26563
vt 0.82813 0.31250
vt 0.85938 0.31250
vt 0.85938 0.26563
vt 0.93750 0.26563
vt 0.93750 0.31250
vt 0.65625 0.60938
vt 0.65625 0.56250
vt 0.73438 0.56250
vt 0.73438 0.60938
vt 0.96875 0.31250
vt 0.96875 0.26563
vt 0.98438 0.26563
vt 0.98438 0.31250
vt 0.76563 0.60938
vt 0.76563 0.56250
vt 0.78125 0.56250
vt 0.78125 0.60938
vt 0.81250 0.59375
vt 0.81250 0.56250
vt 0.93750 0.56250
vt 0.93750 0.59375
vt 0.01563 0.71875
vt 0.01563 0.68750
vt 0.14063 0.68750
vt 0.14063 0.71875
vt 0.17188 0.71875
vt 0.17188 0.68750
vt 0.28125 0.68750
vt 0.28125 0.71875
vt 0.31250 0.71875
vt 0.31250 0.68750
vt 0.35938 0.68750
vt 0.35938 0.71875
vt 0.39063 0.71875
vt 0.39063 0.68750
vt 0.43750 0.68750
vt 0.43750 0.71875
vt 0.96875 0.59375
vt 0.96875 0.56250
vt 0.98438 0.56250
vt 0.98438 0.59375
vt 0.46875 0.71875
vt 0.46875 0.68750
vt 0.48438 0.68750
vt 0.48438 0.71875
vt 0.51563 0.71875
vt 0.51563 0.68750
vt 0.53125 0.68750
vt 0.53125 0.71875
vt 0.56250 0.71875
vt 0.56250 0.68750
vt 0.57813 0.68750
vt 0.57813 0.71875
vt 0.60938 0.70313
vt 0.60938 0.68750
vt 0.93750 0.68750
vt 0.93750 0.70313
vt 0.01563 0.76563
vt 0.01563 0.75000
vt 0.34375 0.75000
vt 0.34375 0.76563
vt 0.37500 0.76563
vt 0.37500 0.75000
vt 0.50000 0.75000
vt 0.50000 0.76563
vt 0.53125 0.76563
vt 0.53125 0.75000
vt 0.65625 0.75000
vt 0.65625 0.76563
vt 0.68750 0.76563
vt 0.68750 0.75000
vt 0.81250 0.75000
vt 0.81250 0.76563
vt 0.84375 0.76563
vt 0.84375 0.75000
vt 0.96875 0.75000
vt 0.96875 0.76563
vt 0.01563 0.81250
vt 0.01563 0.79688
vt 0.14063 0.79688
vt 0.14063 0.81250
vt 0.17188 0.81250
vt 0.17188 0.79688
vt 0.29688 0.79688
vt 0.29688 0.81250
vt 0.32813 0.81250
vt 0.32813 0.79688
vt 0.43750 0.79688
vt 0.43750 0.81250
vt 0.46875 0.81250
vt 0.46875 0.79688
vt 0.57813 0.79688
vt 0.57813 0.81250
vt 0.60938 0.81250
vt 0.60938 0.79688
vt 0.71875 0.79688
vt 0.71875 0.81250
vt 0.75000 0.81250
vt 0.75000 0.79688
vt 0.85938 0.79688
vt 0.85938 0.81250
vt 0.01563 0.85938
vt 0.01563 0.84375
vt 0.12500 0.84375
vt 0.12500 0.85938
vt 0.15625 0.85938
vt 0.15625 0.84375
vt 0.26563 0.84375
vt 0.26563 0.85938
vt 0.29688 0.85938
vt 0.29688 0.84375
vt 0.40625 0.84375
vt 0.40625 0.85938
vt 0.43750 0.85938
vt 0.43750 0.84375
vt 0.54688 0.84375
vt 0.54688 0.85938
vt 0.57813 0.85938
vt 0.57813 0.84375
vt 0.68750 0.84375
vt 0.68750 0.85938
vt 0.71875 0.85938
vt 0.71875 0.84375
vt 0.82813 0.84375
vt 0.82813 0.85938
vt 0.85938 0.85938
vt 0.85938 0.84375
vt 0.96875 0.84375
vt 0.96875 0.85938
vt 0.01563 0.90625
vt 0.01563 0.89063
vt 0.12500 0.89063
vt 0.12500 0.90625
vt 0.15625 0.90625
vt 0.15625 0.89063
vt 0.26563 0.89063
vt 0.26563 0.90625
vt 0.29688 0.90625
vt 0.29688 0.89063
vt 0.40625 0.89063
vt 0.40625 0.90625
vt 0.89063 0.81250
vt 0.89063 0.79688
vt 0.95313 0.79688
vt 0.95313 0.81250
vt 0.43750 0.90625
vt 0.43750 0.89063
vt 0.50000 0.89063
vt 0.50000 0.90625
vt 0.96875 0.70313
vt 0.96875 0.68750
vt 0.98438 0.68750
vt 0.98438 0.70313
vt 0.53125 0.90625
vt 0.53125 0.89063
vt 0.54688 0.89063
vt 0.54688 0.90625
vt 0.57813 0.90625
vt 0.57813 0.89063
vt 0.59375 0.89063
vt 0.59375 0.90625
vt 0.62500 0.90625
vt 0.62500 0.89063
vt 0.64063 0.89063
vt 0.64063 0.90625
vt 0.67188 0.90625
vt 0.67188 0.89063
vt 0.68750 0.89063
vt 0.68750 0.90625
vt 0.71875 0.90625
vt 0.71875 0.89063
vt 0.73438 0.89063
vt 0.73438 0.90625

g mtx_cow_32q
usemtl env_cow_32q_Material
f  1/5/2 2/6/2 3/7/2 4/8/2
f  5/45/2 6/46/2 7/47/2 8/48/2
f  9/205/2 10/206/2 11/207/2 12/208/2
f  13/233/2 14/234/2 15/235/2 16/236/2
f  17/257/2 18/258/2 19/259/2 20/260/2
f  21/41/1 22/42/1 23/43/1 24/44/1
f  25/29/1 26/30/1 27/31/1 28/32/1
f  29/77/1 30/78/1 31/79/1 32/80/1
f  33/133/1 34/134/1 35/135/1 36/136/1
f  37/217/1 38/218/1 39/219/1 40/220/1
f  41/213/1 42/214/1 43/215/1 44/216/1
f  45/193/1 46/194/1 47/195/1 48/196/1
f  49/197/1 50/198/1 51/199/1 52/200/1
f  53/201/1 54/202/1 55/203/1 56/204/1
f  57/221/1 58/222/1 59/223/1 60/224/1
f  61/273/1 62/274/1 63/275/1 64/276/1
f  65/17/3 66/18/3 67/19/3 68/20/3
f  69/25/3 67/26/3 70/27/3 71/28/3
f  66/53/3 3/54/3 22/55/3 21/56/3
f  8/49/3 7/50/3 26/51/3 70/52/3
f  16/113/3 72/114/3 73/115/3 57/116/3
f  4/165/3 65/166/3 54/167/3 53/168/3
f  68/125/3 69/126/3 72/127/3 15/128/3
f  71/37/3 25/38/3 38/39/3 74/40/3
f  75/65/3 37/66/3 42/67/3 76/68/3
f  77/141/3 11/142/3 30/143/3 78/144/3
f  79/169/3 80/170/3 78/171/3 81/172/3
f  76/189/3 82/190/3 83/191/3 84/192/3
f  74/185/3 75/186/3 85/187/3 73/188/3
f  82/85/3 41/86/3 46/87/3 79/88/3
f  86/249/3 49/250/3 12/251/3 77/252/3
f  58/121/3 85/122/3 84/123/3 33/124/3
f  80/149/3 45/150/3 50/151/3 86/152/3
f  34/157/3 83/158/3 81/159/3 29/160/3
f  64/277/3 63/278/3 18/279/3 17/280/3
f  87/13/4 88/14/4 89/15/4 90/16/4
f  91/21/4 92/22/4 88/23/4 93/24/4
f  24/57/4 23/58/4 2/59/4 89/60/4
f  92/61/4 27/62/4 6/63/4 5/64/4
f  60/109/4 94/110/4 95/111/4 13/112/4
f  56/161/4 55/162/4 90/163/4 1/164/4
f  14/129/4 95/130/4 93/131/4 87/132/4
f  96/33/4 39/34/4 28/35/4 91/36/4
f  97/69/4 43/70/4 40/71/4 98/72/4
f  99/137/4 31/138/4 10/139/4 100/140/4
f  101/181/4 99/182/4 102/183/4 103/184/4
f  104/177/4 105/178/4 106/179/4 97/180/4
f  94/173/4 107/174/4 98/175/4 96/176/4
f  103/89/4 47/90/4 44/91/4 106/92/4
f  100/253/4 9/254/4 52/255/4 108/256/4
f  36/117/4 104/118/4 107/119/4 59/120/4
f  108/145/4 51/146/4 48/147/4 102/148/4
f  32/153/4 101/154/4 105/155/4 35/156/4
f  20/269/4 19/270/4 62/271/4 61/272/4
f  4/1/5 53/2/5 56/3/5 1/4/5
f  16/73/5 57/74/5 60/75/5 13/76/5
f  54/93/5 15/94/5 14/95/5 55/96/5
f  34/225/5 29/226/5 32/227/5 35/228/5
f  58/229/5 33/230/5 36/231/5 59/232/5
f  62/261/5 19/262/5 18/263/5 63/264/5
f  8/9/6 21/10/6 24/11/6 5/12/6
f  22/101/6 3/102/6 2/103/6 23/104/6
f  26/97/6 7/98/6 6/99/6 27/100/6
f  30/105/6 11/106/6 10/107/6 31/108/6
f  12/81/6 49/82/6 52/83/6 9/84/6
f  38/245/6 25/246/6 28/247/6 39/248/6
f  42/237/6 37/238/6 40/239/6 43/240/6
f  46/209/6 41/210/6 44/211/6 47/212/6
f  50/241/6 45/242/6 48/243/6 51/244/6
f  20/265/6 61/266/6 64/267/6 17/268/6
