# This file was created with Minddesk Qubicle 3.0
# Get Qubicle at www.getqubicle.com

mtllib spellbook.mtl

vn 0.0 0.0 1.0
vn 0.0 0.0 -1.0
vn -1.0 0.0 0.0
vn 1.0 0.0 0.0
vn 0.0 1.0 0.0
vn 0.0 -1.0 0.0

v 6.00000 1.00000 -3.00000
v 6.00000 -1.00000 -3.00000
v -5.00000 -1.00000 -3.00000
v -5.00000 1.00000 -3.00000
v 0.00000 2.00000 -3.00000
v 0.00000 1.00000 -3.00000
v -4.00000 1.00000 -3.00000
v -4.00000 2.00000 -3.00000
v 0.00000 -1.00000 -3.00000
v 0.00000 -2.00000 -3.00000
v -3.00000 -2.00000 -3.00000
v -3.00000 -1.00000 -3.00000
v 4.00000 -1.00000 -3.00000
v 4.00000 -2.00000 -3.00000
v 1.00000 -2.00000 -3.00000
v 1.00000 -1.00000 -3.00000
v 5.00000 2.00000 -3.00000
v 5.00000 1.00000 -3.00000
v 1.00000 1.00000 -3.00000
v 1.00000 2.00000 -3.00000
v -5.00000 1.00000 4.00000
v -5.00000 -1.00000 4.00000
v 6.00000 -1.00000 4.00000
v 6.00000 1.00000 4.00000
v -4.00000 2.00000 4.00000
v -4.00000 1.00000 4.00000
v 0.00000 1.00000 4.00000
v 0.00000 2.00000 4.00000
v -3.00000 -1.00000 4.00000
v -3.00000 -2.00000 4.00000
v 0.00000 -2.00000 4.00000
v 0.00000 -1.00000 4.00000
v 1.00000 -1.00000 4.00000
v 1.00000 -2.00000 4.00000
v 4.00000 -2.00000 4.00000
v 4.00000 -1.00000 4.00000
v 1.00000 2.00000 4.00000
v 1.00000 1.00000 4.00000
v 5.00000 1.00000 4.00000
v 5.00000 2.00000 4.00000

vt 0.03125 0.25000
vt 0.03125 0.03125
vt 0.15625 0.03125
vt 0.15625 0.25000
vt 0.21875 0.25000
vt 0.21875 0.03125
vt 0.34375 0.03125
vt 0.34375 0.25000
vt 0.40625 0.25000
vt 0.40625 0.03125
vt 0.50000 0.03125
vt 0.50000 0.25000
vt 0.56250 0.25000
vt 0.56250 0.03125
vt 0.65625 0.03125
vt 0.65625 0.25000
vt 0.71875 0.25000
vt 0.71875 0.03125
vt 0.78125 0.03125
vt 0.78125 0.25000
vt 0.84375 0.25000
vt 0.84375 0.03125
vt 0.90625 0.03125
vt 0.90625 0.25000
vt 0.03125 0.53125
vt 0.03125 0.31250
vt 0.06250 0.31250
vt 0.06250 0.53125
vt 0.12500 0.53125
vt 0.12500 0.31250
vt 0.15625 0.31250
vt 0.15625 0.53125
vt 0.21875 0.53125
vt 0.21875 0.31250
vt 0.25000 0.31250
vt 0.25000 0.53125
vt 0.31250 0.53125
vt 0.31250 0.31250
vt 0.34375 0.31250
vt 0.34375 0.53125
vt 0.40625 0.37500
vt 0.40625 0.31250
vt 0.75000 0.31250
vt 0.75000 0.37500
vt 0.40625 0.50000
vt 0.40625 0.43750
vt 0.75000 0.43750
vt 0.75000 0.50000
vt 0.03125 0.65625
vt 0.03125 0.59375
vt 0.25000 0.59375
vt 0.25000 0.65625
vt 0.31250 0.65625
vt 0.31250 0.59375
vt 0.53125 0.59375
vt 0.53125 0.65625
vt 0.59375 0.62500
vt 0.59375 0.59375
vt 0.81250 0.59375
vt 0.81250 0.62500
vt 0.03125 0.75000
vt 0.03125 0.71875
vt 0.25000 0.71875
vt 0.25000 0.75000
vt 0.31250 0.75000
vt 0.31250 0.71875
vt 0.53125 0.71875
vt 0.53125 0.75000
vt 0.59375 0.75000
vt 0.59375 0.71875
vt 0.81250 0.71875
vt 0.81250 0.75000
vt 0.03125 0.84375
vt 0.03125 0.81250
vt 0.25000 0.81250
vt 0.25000 0.84375
vt 0.31250 0.84375
vt 0.31250 0.81250
vt 0.53125 0.81250
vt 0.53125 0.84375
vt 0.59375 0.84375
vt 0.59375 0.81250
vt 0.81250 0.81250
vt 0.81250 0.84375
vt 0.03125 0.93750
vt 0.03125 0.90625
vt 0.25000 0.90625
vt 0.25000 0.93750
vt 0.81250 0.34375
vt 0.81250 0.31250
vt 0.93750 0.31250
vt 0.93750 0.34375
vt 0.81250 0.46875
vt 0.81250 0.43750
vt 0.93750 0.43750
vt 0.93750 0.46875
vt 0.31250 0.93750
vt 0.31250 0.90625
vt 0.43750 0.90625
vt 0.43750 0.93750
vt 0.50000 0.93750
vt 0.50000 0.90625
vt 0.62500 0.90625
vt 0.62500 0.93750
vt 0.87500 0.62500
vt 0.87500 0.59375
vt 0.96875 0.59375
vt 0.96875 0.62500
vt 0.87500 0.75000
vt 0.87500 0.71875
vt 0.96875 0.71875
vt 0.96875 0.75000
vt 0.87500 0.84375
vt 0.87500 0.81250
vt 0.96875 0.81250
vt 0.96875 0.84375
vt 0.68750 0.93750
vt 0.68750 0.90625
vt 0.78125 0.90625
vt 0.78125 0.93750
vt 0.59375 0.50000
vt 0.71875 0.50000
vt 0.43750 0.50000
vt 0.56250 0.50000
vt 0.59375 0.43750
vt 0.68750 0.43750
vt 0.46875 0.43750
vt 0.56250 0.43750
vt 0.43750 0.37500
vt 0.56250 0.37500
vt 0.59375 0.37500
vt 0.71875 0.37500
vt 0.46875 0.31250
vt 0.56250 0.31250
vt 0.59375 0.31250
vt 0.68750 0.31250

g mtx_book
usemtl spellbook_Material
f 18/123/2 1/45/2 2/46/2
f 2/46/2 19/124/2 18/123/2
f 19/124/2 2/46/2 13/127/2
f 13/127/2 6/121/2 19/124/2
f 6/121/2 13/127/2 16/128/2
f 16/128/2 7/122/2 6/121/2
f 7/122/2 16/128/2 9/125/2
f 9/125/2 4/48/2 7/122/2
f 4/48/2 9/125/2 12/126/2
f 12/126/2 3/47/2 4/48/2
f 6/94/2 8/96/2 5/93/2
f 6/94/2 7/95/2 8/96/2
f 10/110/2 12/112/2 9/109/2
f 10/110/2 11/111/2 12/112/2
f 14/118/2 16/120/2 13/117/2
f 14/118/2 15/119/2 16/120/2
f 18/90/2 20/92/2 17/89/2
f 18/90/2 19/91/2 20/92/2
f 26/129/1 21/41/1 22/42/1
f 22/42/1 27/130/1 26/129/1
f 27/130/1 22/42/1 29/133/1
f 29/133/1 38/131/1 27/130/1
f 38/131/1 29/133/1 32/134/1
f 32/134/1 39/132/1 38/131/1
f 39/132/1 32/134/1 33/135/1
f 33/135/1 24/44/1 39/132/1
f 24/44/1 33/135/1 36/136/1
f 36/136/1 23/43/1 24/44/1
f 26/102/1 28/104/1 25/101/1
f 26/102/1 27/103/1 28/104/1
f 30/114/1 32/116/1 29/113/1
f 30/114/1 31/115/1 32/116/1
f 34/106/1 36/108/1 33/105/1
f 34/106/1 35/107/1 36/108/1
f 38/98/1 40/100/1 37/97/1
f 38/98/1 39/99/1 40/100/1
f 3/54/3 21/56/3 4/53/3
f 3/54/3 22/55/3 21/56/3
f 7/62/3 25/64/3 8/61/3
f 7/62/3 26/63/3 25/64/3
f 11/58/3 29/60/3 12/57/3
f 11/58/3 30/59/3 29/60/3
f 15/66/3 33/68/3 16/65/3
f 15/66/3 34/67/3 33/68/3
f 19/82/3 37/84/3 20/81/3
f 19/82/3 38/83/3 37/84/3
f 23/50/4 1/52/4 24/49/4
f 23/50/4 2/51/4 1/52/4
f 31/86/4 9/88/4 32/85/4
f 31/86/4 10/87/4 9/88/4
f 27/78/4 5/80/4 28/77/4
f 27/78/4 6/79/4 5/80/4
f 35/74/4 13/76/4 36/73/4
f 35/74/4 14/75/4 13/76/4
f 39/70/4 17/72/4 40/69/4
f 39/70/4 18/71/4 17/72/4
f 8/5/5 25/6/5 5/8/5
f 25/6/5 28/7/5 5/8/5
f 20/1/5 37/2/5 17/4/5
f 37/2/5 40/3/5 17/4/5
f 4/29/5 21/30/5 7/32/5
f 21/30/5 26/31/5 7/32/5
f 6/37/5 27/38/5 19/40/5
f 27/38/5 38/39/5 19/40/5
f 18/33/5 39/34/5 1/36/5
f 39/34/5 24/35/5 1/36/5
f 30/9/6 11/10/6 31/12/6
f 11/10/6 10/11/6 31/12/6
f 34/13/6 15/14/6 35/16/6
f 15/14/6 14/15/6 35/16/6
f 22/21/6 3/22/6 29/24/6
f 3/22/6 12/23/6 29/24/6
f 36/17/6 13/18/6 23/20/6
f 13/18/6 2/19/6 23/20/6
f 32/25/6 9/26/6 33/28/6
f 9/26/6 16/27/6 33/28/6
