# This file was created with Minddesk Qubicle 2.0
# Get Qubicle at www.minddesk.com

mtllib env_fence_32q.mtl

vn 0.0 0.0 1.0
vn 0.0 0.0 -1.0
vn -1.0 0.0 0.0
vn 1.0 0.0 0.0
vn 0.0 1.0 0.0
vn 0.0 -1.0 0.0

v 15.50000 5.50000 -3.50000
v 15.50000 2.50000 -3.50000
v -16.50000 2.50000 -3.50000
v -16.50000 5.50000 -3.50000
v 15.50000 11.50000 -3.50000
v 15.50000 8.50000 -3.50000
v -16.50000 8.50000 -3.50000
v -16.50000 11.50000 -3.50000
v -13.50000 2.50000 -1.50000
v -13.50000 -0.50000 -1.50000
v -15.50000 -0.50000 -1.50000
v -15.50000 2.50000 -1.50000
v -13.50000 8.50000 -1.50000
v -13.50000 5.50000 -1.50000
v -15.50000 5.50000 -1.50000
v -15.50000 8.50000 -1.50000
v 14.50000 2.50000 -1.50000
v 14.50000 -0.50000 -1.50000
v 12.50000 -0.50000 -1.50000
v 12.50000 2.50000 -1.50000
v 14.50000 8.50000 -1.50000
v 14.50000 5.50000 -1.50000
v 12.50000 5.50000 -1.50000
v 12.50000 8.50000 -1.50000
v -13.50000 13.50000 -1.50000
v -13.50000 11.50000 -1.50000
v -15.50000 11.50000 -1.50000
v -15.50000 13.50000 -1.50000
v 14.50000 13.50000 -1.50000
v 14.50000 11.50000 -1.50000
v 12.50000 11.50000 -1.50000
v 12.50000 13.50000 -1.50000
v -15.50000 13.50000 0.50000
v -15.50000 -0.50000 0.50000
v -13.50000 -0.50000 0.50000
v -13.50000 13.50000 0.50000
v 12.50000 13.50000 0.50000
v 12.50000 -0.50000 0.50000
v 14.50000 -0.50000 0.50000
v 14.50000 13.50000 0.50000
v -16.50000 5.50000 -1.50000
v -16.50000 2.50000 -1.50000
v -16.50000 11.50000 -1.50000
v -16.50000 8.50000 -1.50000
v 15.50000 2.50000 -1.50000
v 15.50000 5.50000 -1.50000
v 15.50000 8.50000 -1.50000
v 15.50000 11.50000 -1.50000

vt 0.01563 0.23438
vt 0.01563 0.01563
vt 0.04688 0.01563
vt 0.04688 0.23438
vt 0.07813 0.23438
vt 0.07813 0.01563
vt 0.10938 0.01563
vt 0.10938 0.23438
vt 0.14063 0.23438
vt 0.14063 0.01563
vt 0.17188 0.01563
vt 0.17188 0.23438
vt 0.20313 0.23438
vt 0.20313 0.01563
vt 0.23438 0.01563
vt 0.23438 0.23438
vt 0.26563 0.23438
vt 0.26563 0.01563
vt 0.29688 0.01563
vt 0.29688 0.23438
vt 0.32813 0.23438
vt 0.32813 0.01563
vt 0.35938 0.01563
vt 0.35938 0.23438
vt 0.39063 0.06250
vt 0.39063 0.01563
vt 0.89063 0.01563
vt 0.89063 0.06250
vt 0.39063 0.14063
vt 0.39063 0.09375
vt 0.89063 0.09375
vt 0.89063 0.14063
vt 0.39063 0.21875
vt 0.39063 0.17188
vt 0.79688 0.17188
vt 0.79688 0.21875
vt 0.01563 0.31250
vt 0.01563 0.26563
vt 0.42188 0.26563
vt 0.42188 0.31250
vt 0.92188 0.06250
vt 0.92188 0.01563
vt 0.95313 0.01563
vt 0.95313 0.06250
vt 0.92188 0.14063
vt 0.92188 0.09375
vt 0.95313 0.09375
vt 0.95313 0.14063
vt 0.82813 0.21875
vt 0.82813 0.17188
vt 0.85938 0.17188
vt 0.85938 0.21875
vt 0.89063 0.21875
vt 0.89063 0.17188
vt 0.92188 0.17188
vt 0.92188 0.21875
vt 0.95313 0.21875
vt 0.95313 0.17188
vt 0.98438 0.17188
vt 0.98438 0.21875
vt 0.45313 0.31250
vt 0.45313 0.26563
vt 0.48438 0.26563
vt 0.48438 0.31250
vt 0.51563 0.31250
vt 0.51563 0.26563
vt 0.54688 0.26563
vt 0.54688 0.31250
vt 0.57813 0.31250
vt 0.57813 0.26563
vt 0.60938 0.26563
vt 0.60938 0.31250
vt 0.64063 0.31250
vt 0.64063 0.26563
vt 0.65625 0.26563
vt 0.65625 0.31250
vt 0.68750 0.31250
vt 0.68750 0.26563
vt 0.70313 0.26563
vt 0.70313 0.31250
vt 0.73438 0.31250
vt 0.73438 0.26563
vt 0.75000 0.26563
vt 0.75000 0.31250
vt 0.78125 0.31250
vt 0.78125 0.26563
vt 0.79688 0.26563
vt 0.79688 0.31250
vt 0.01563 0.37500
vt 0.01563 0.34375
vt 0.51563 0.34375
vt 0.51563 0.37500
vt 0.01563 0.43750
vt 0.01563 0.40625
vt 0.51563 0.40625
vt 0.51563 0.43750
vt 0.01563 0.50000
vt 0.01563 0.46875
vt 0.51563 0.46875
vt 0.51563 0.50000
vt 0.01563 0.56250
vt 0.01563 0.53125
vt 0.51563 0.53125
vt 0.51563 0.56250
vt 0.82813 0.29688
vt 0.82813 0.26563
vt 0.85938 0.26563
vt 0.85938 0.29688
vt 0.89063 0.29688
vt 0.89063 0.26563
vt 0.92188 0.26563
vt 0.92188 0.29688
vt 0.95313 0.29688
vt 0.95313 0.26563
vt 0.98438 0.26563
vt 0.98438 0.29688
vt 0.54688 0.37500
vt 0.54688 0.34375
vt 0.57813 0.34375
vt 0.57813 0.37500
vt 0.60938 0.37500
vt 0.60938 0.34375
vt 0.64063 0.34375
vt 0.64063 0.37500
vt 0.67188 0.37500
vt 0.67188 0.34375
vt 0.70313 0.34375
vt 0.70313 0.37500

g mtx_fence_32q
usemtl env_fence_32q_Material
f  1/25/2 2/26/2 3/27/2 4/28/2
f  5/29/2 6/30/2 7/31/2 8/32/2
f  9/57/2 10/58/2 11/59/2 12/60/2
f  13/53/2 14/54/2 15/55/2 16/56/2
f  17/49/2 18/50/2 19/51/2 20/52/2
f  21/69/2 22/70/2 23/71/2 24/72/2
f  25/113/2 26/114/2 27/115/2 28/116/2
f  29/117/2 30/118/2 31/119/2 32/120/2
f  14/37/1 9/38/1 20/39/1 23/40/1
f  26/33/1 13/34/1 24/35/1 31/36/1
f  33/21/1 34/22/1 35/23/1 36/24/1
f  37/17/1 38/18/1 39/19/1 40/20/1
f  41/73/1 42/74/1 12/75/1 15/76/1
f  43/85/1 44/86/1 16/87/1 27/88/1
f  22/81/1 17/82/1 45/83/1 46/84/1
f  30/77/1 21/78/1 47/79/1 48/80/1
f  28/5/3 11/6/3 34/7/3 33/8/3
f  32/1/3 19/2/3 38/3/3 37/4/3
f  4/41/3 3/42/3 42/43/3 41/44/3
f  8/45/3 7/46/3 44/47/3 43/48/3
f  36/13/4 35/14/4 10/15/4 25/16/4
f  40/9/4 39/10/4 18/11/4 29/12/4
f  46/61/4 45/62/4 2/63/4 1/64/4
f  48/65/4 47/66/4 6/67/4 5/68/4
f  4/101/5 41/102/5 46/103/5 1/104/5
f  8/97/5 43/98/5 48/99/5 5/100/5
f  28/125/5 33/126/5 36/127/5 25/128/5
f  32/121/5 37/122/5 40/123/5 29/124/5
f  42/93/6 3/94/6 2/95/6 45/96/6
f  44/89/6 7/90/6 6/91/6 47/92/6
f  34/109/6 11/110/6 10/111/6 35/112/6
f  38/105/6 19/106/6 18/107/6 39/108/6
