# This file was created with Minddesk Qubicle 3.0
# Get Qubicle at www.getqubicle.com

mtllib helmet2.mtl

vn 0.0 0.0 1.0
vn 0.0 0.0 -1.0
vn -1.0 0.0 0.0
vn 1.0 0.0 0.0
vn 0.0 1.0 0.0
vn 0.0 -1.0 0.0

v -1.00000 1.00000 -4.00000
v -1.00000 -2.00000 -4.00000
v -5.00000 -2.00000 -4.00000
v -5.00000 1.00000 -4.00000
v 5.00000 1.00000 -4.00000
v 5.00000 -2.00000 -4.00000
v 1.00000 -2.00000 -4.00000
v 1.00000 1.00000 -4.00000
v 1.00000 2.00000 -5.00000
v 1.00000 -2.00000 -5.00000
v -1.00000 -2.00000 -5.00000
v -1.00000 2.00000 -5.00000
v -3.00000 -1.00000 3.00000
v -3.00000 -3.00000 3.00000
v -4.00000 -3.00000 3.00000
v -4.00000 -1.00000 3.00000
v 4.00000 -1.00000 3.00000
v 4.00000 -3.00000 3.00000
v 3.00000 -3.00000 3.00000
v 3.00000 -1.00000 3.00000
v 5.00000 -3.00000 -4.00000
v -5.00000 -3.00000 -4.00000
v -1.00000 2.00000 -3.00000
v -1.00000 1.00000 -3.00000
v -4.00000 1.00000 -3.00000
v -4.00000 2.00000 -3.00000
v 4.00000 2.00000 -3.00000
v 4.00000 1.00000 -3.00000
v 1.00000 1.00000 -3.00000
v 1.00000 2.00000 -3.00000
v 1.00000 3.00000 -4.00000
v 1.00000 2.00000 -4.00000
v -1.00000 2.00000 -4.00000
v -1.00000 3.00000 -4.00000
v 1.00000 4.00000 -3.00000
v 1.00000 3.00000 -3.00000
v -1.00000 3.00000 -3.00000
v -1.00000 4.00000 -3.00000
v -4.00000 -1.00000 -3.00000
v -4.00000 -3.00000 -3.00000
v 4.00000 -3.00000 -3.00000
v 4.00000 -1.00000 -3.00000
v -5.00000 -1.00000 4.00000
v -5.00000 -3.00000 4.00000
v -3.00000 -3.00000 4.00000
v -3.00000 -1.00000 4.00000
v 3.00000 -1.00000 4.00000
v 3.00000 -3.00000 4.00000
v 5.00000 -3.00000 4.00000
v 5.00000 -1.00000 4.00000
v -1.00000 2.00000 5.00000
v -1.00000 0.00000 5.00000
v 1.00000 0.00000 5.00000
v 1.00000 2.00000 5.00000
v -5.00000 0.00000 4.00000
v 5.00000 0.00000 4.00000
v -4.00000 2.00000 3.00000
v -4.00000 1.00000 3.00000
v -1.00000 1.00000 3.00000
v -1.00000 2.00000 3.00000
v 1.00000 2.00000 3.00000
v 1.00000 1.00000 3.00000
v 4.00000 1.00000 3.00000
v 4.00000 2.00000 3.00000
v -5.00000 1.00000 4.00000
v -1.00000 0.00000 4.00000
v -1.00000 1.00000 4.00000
v 1.00000 1.00000 4.00000
v 1.00000 0.00000 4.00000
v 5.00000 1.00000 4.00000
v -1.00000 4.00000 3.00000
v -1.00000 3.00000 3.00000
v 1.00000 3.00000 3.00000
v 1.00000 4.00000 3.00000
v -1.00000 3.00000 4.00000
v -1.00000 2.00000 4.00000
v 1.00000 2.00000 4.00000
v 1.00000 3.00000 4.00000
v -1.00000 1.00000 -5.00000
v -1.00000 1.00000 5.00000
v 1.00000 1.00000 -5.00000
v 1.00000 1.00000 5.00000
v -5.00000 1.00000 -3.00000
v -5.00000 1.00000 3.00000
v 5.00000 1.00000 3.00000
v 5.00000 1.00000 -3.00000
v -5.00000 -3.00000 3.00000
v -5.00000 -3.00000 -3.00000
v 5.00000 -3.00000 -3.00000
v 5.00000 -3.00000 3.00000

vt 0.01563 0.21875
vt 0.01563 0.03125
vt 0.14063 0.03125
vt 0.14063 0.21875
vt 0.17188 0.21875
vt 0.17188 0.03125
vt 0.21875 0.03125
vt 0.21875 0.21875
vt 0.25000 0.21875
vt 0.25000 0.03125
vt 0.29688 0.03125
vt 0.29688 0.21875
vt 0.32813 0.21875
vt 0.32813 0.03125
vt 0.35938 0.03125
vt 0.35938 0.21875
vt 0.39063 0.21875
vt 0.39063 0.03125
vt 0.40625 0.03125
vt 0.40625 0.21875
vt 0.43750 0.21875
vt 0.43750 0.03125
vt 0.45313 0.03125
vt 0.45313 0.21875
vt 0.48438 0.21875
vt 0.48438 0.03125
vt 0.50000 0.03125
vt 0.50000 0.21875
vt 0.53125 0.21875
vt 0.53125 0.03125
vt 0.54688 0.03125
vt 0.54688 0.21875
vt 0.57813 0.15625
vt 0.57813 0.03125
vt 0.70313 0.03125
vt 0.70313 0.15625
vt 0.73438 0.15625
vt 0.73438 0.03125
vt 0.85938 0.03125
vt 0.85938 0.15625
vt 0.89063 0.15625
vt 0.89063 0.03125
vt 0.92188 0.03125
vt 0.92188 0.15625
vt 0.01563 0.37500
vt 0.01563 0.28125
vt 0.07813 0.28125
vt 0.07813 0.37500
vt 0.10938 0.37500
vt 0.10938 0.28125
vt 0.17188 0.28125
vt 0.17188 0.37500
vt 0.95313 0.12500
vt 0.95313 0.03125
vt 0.96875 0.03125
vt 0.96875 0.12500
vt 0.20313 0.37500
vt 0.20313 0.28125
vt 0.21875 0.28125
vt 0.21875 0.37500
vt 0.25000 0.34375
vt 0.25000 0.28125
vt 0.37500 0.28125
vt 0.37500 0.34375
vt 0.40625 0.34375
vt 0.40625 0.28125
vt 0.50000 0.28125
vt 0.50000 0.34375
vt 0.53125 0.34375
vt 0.53125 0.28125
vt 0.62500 0.28125
vt 0.62500 0.34375
vt 0.65625 0.34375
vt 0.65625 0.28125
vt 0.68750 0.28125
vt 0.68750 0.34375
vt 0.71875 0.34375
vt 0.71875 0.28125
vt 0.75000 0.28125
vt 0.75000 0.34375
vt 0.78125 0.34375
vt 0.78125 0.28125
vt 0.81250 0.28125
vt 0.81250 0.34375
vt 0.84375 0.34375
vt 0.84375 0.28125
vt 0.85938 0.28125
vt 0.85938 0.34375
vt 0.89063 0.34375
vt 0.89063 0.28125
vt 0.90625 0.28125
vt 0.90625 0.34375
vt 0.93750 0.34375
vt 0.93750 0.28125
vt 0.95313 0.28125
vt 0.95313 0.34375
vt 0.01563 0.50000
vt 0.01563 0.43750
vt 0.03125 0.43750
vt 0.03125 0.50000
vt 0.06250 0.46875
vt 0.06250 0.43750
vt 0.21875 0.43750
vt 0.21875 0.46875
vt 0.25000 0.46875
vt 0.25000 0.43750
vt 0.40625 0.43750
vt 0.40625 0.46875
vt 0.43750 0.46875
vt 0.43750 0.43750
vt 0.59375 0.43750
vt 0.59375 0.46875
vt 0.62500 0.46875
vt 0.62500 0.43750
vt 0.75000 0.43750
vt 0.75000 0.46875
vt 0.78125 0.46875
vt 0.78125 0.43750
vt 0.90625 0.43750
vt 0.90625 0.46875
vt 0.01563 0.59375
vt 0.01563 0.56250
vt 0.10938 0.56250
vt 0.10938 0.59375
vt 0.14063 0.59375
vt 0.14063 0.56250
vt 0.23438 0.56250
vt 0.23438 0.59375
vt 0.26563 0.59375
vt 0.26563 0.56250
vt 0.35938 0.56250
vt 0.35938 0.59375
vt 0.39063 0.59375
vt 0.39063 0.56250
vt 0.48438 0.56250
vt 0.48438 0.59375
vt 0.51563 0.59375
vt 0.51563 0.56250
vt 0.60938 0.56250
vt 0.60938 0.59375
vt 0.64063 0.59375
vt 0.64063 0.56250
vt 0.70313 0.56250
vt 0.70313 0.59375
vt 0.73438 0.59375
vt 0.73438 0.56250
vt 0.79688 0.56250
vt 0.79688 0.59375
vt 0.82813 0.59375
vt 0.82813 0.56250
vt 0.89063 0.56250
vt 0.89063 0.59375
vt 0.92188 0.59375
vt 0.92188 0.56250
vt 0.98438 0.56250
vt 0.98438 0.59375
vt 0.01563 0.68750
vt 0.01563 0.65625
vt 0.07813 0.65625
vt 0.07813 0.68750
vt 0.10938 0.68750
vt 0.10938 0.65625
vt 0.17188 0.65625
vt 0.17188 0.68750
vt 0.93750 0.46875
vt 0.93750 0.43750
vt 0.98438 0.43750
vt 0.98438 0.46875
vt 0.20313 0.68750
vt 0.20313 0.65625
vt 0.25000 0.65625
vt 0.25000 0.68750
vt 0.28125 0.68750
vt 0.28125 0.65625
vt 0.32813 0.65625
vt 0.32813 0.68750
vt 0.35938 0.68750
vt 0.35938 0.65625
vt 0.40625 0.65625
vt 0.40625 0.68750
vt 0.43750 0.68750
vt 0.43750 0.65625
vt 0.46875 0.65625
vt 0.46875 0.68750
vt 0.50000 0.68750
vt 0.50000 0.65625
vt 0.53125 0.65625
vt 0.53125 0.68750
vt 0.56250 0.68750
vt 0.56250 0.65625
vt 0.59375 0.65625
vt 0.59375 0.68750
vt 0.62500 0.68750
vt 0.62500 0.65625
vt 0.65625 0.65625
vt 0.65625 0.68750
vt 0.68750 0.68750
vt 0.68750 0.65625
vt 0.71875 0.65625
vt 0.71875 0.68750
vt 0.75000 0.68750
vt 0.75000 0.65625
vt 0.78125 0.65625
vt 0.78125 0.68750
vt 0.81250 0.68750
vt 0.81250 0.65625
vt 0.84375 0.65625
vt 0.84375 0.68750
vt 0.87500 0.68750
vt 0.87500 0.65625
vt 0.90625 0.65625
vt 0.90625 0.68750
vt 0.93750 0.68750
vt 0.93750 0.65625
vt 0.96875 0.65625
vt 0.96875 0.68750
vt 0.01563 0.78125
vt 0.01563 0.75000
vt 0.04688 0.75000
vt 0.04688 0.78125
vt 0.07813 0.78125
vt 0.07813 0.75000
vt 0.10938 0.75000
vt 0.10938 0.78125
vt 0.14063 0.78125
vt 0.14063 0.75000
vt 0.17188 0.75000
vt 0.17188 0.78125
vt 0.20313 0.78125
vt 0.20313 0.75000
vt 0.23438 0.75000
vt 0.23438 0.78125
vt 0.26563 0.78125
vt 0.26563 0.75000
vt 0.29688 0.75000
vt 0.29688 0.78125
vt 0.32813 0.78125
vt 0.32813 0.75000
vt 0.35938 0.75000
vt 0.35938 0.78125
vt 0.39063 0.78125
vt 0.39063 0.75000
vt 0.42188 0.75000
vt 0.42188 0.78125
vt 0.45313 0.78125
vt 0.45313 0.75000
vt 0.46875 0.75000
vt 0.46875 0.78125
vt 0.50000 0.78125
vt 0.50000 0.75000
vt 0.51563 0.75000
vt 0.51563 0.78125
vt 0.92188 0.12500
vt 0.89063 0.12500
vt 0.53125 0.46875
vt 0.50000 0.46875
vt 0.68750 0.31250
vt 0.65625 0.31250
vt 0.12500 0.46875
vt 0.15625 0.46875
vt 0.09375 0.43750
vt 0.18750 0.43750
vt 0.59375 0.15625
vt 0.68750 0.15625
vt 0.70313 0.09375
vt 0.70313 0.12500
vt 0.68750 0.03125
vt 0.59375 0.03125
vt 0.57813 0.06250
vt 0.64063 0.46875
vt 0.73438 0.46875
vt 0.64063 0.43750
vt 0.73438 0.43750
vt 0.51563 0.68750
vt 0.51563 0.65625
vt 0.82813 0.68750
vt 0.82813 0.65625
vt 0.75000 0.15625
vt 0.84375 0.15625
vt 0.85938 0.06250
vt 0.84375 0.03125
vt 0.75000 0.03125
vt 0.73438 0.09375
vt 0.73438 0.12500
vt 0.89063 0.46875
vt 0.79688 0.46875
vt 0.89063 0.43750
vt 0.79688 0.43750
vt 0.64063 0.68750
vt 0.64063 0.65625
vt 0.34375 0.78125
vt 0.34375 0.75000
vt 0.75000 0.56250
vt 0.06250 0.65625
vt 0.12500 0.68750
vt 0.87500 0.59375
vt 0.03125 0.21875
vt 0.12500 0.21875
vt 0.26563 0.46875
vt 0.39063 0.46875
vt 0.09375 0.75000
vt 0.45313 0.65625

g mtx_helmet2
usemtl helmet2_Material
f 2/46/2 4/48/2 1/45/2
f 2/46/2 3/47/2 4/48/2
f 6/50/2 8/52/2 5/49/2
f 6/50/2 7/51/2 8/52/2
f 12/44/2 9/41/2 81/254/2
f 81/254/2 79/253/2 12/44/2
f 79/253/2 81/254/2 10/42/2
f 10/42/2 11/43/2 79/253/2
f 14/86/2 16/88/2 13/85/2
f 14/86/2 15/87/2 16/88/2
f 18/98/2 20/100/2 17/97/2
f 18/98/2 19/99/2 20/100/2
f 7/256/2 6/109/2 21/110/2
f 21/110/2 2/255/2 7/256/2
f 2/255/2 21/110/2 22/111/2
f 22/111/2 3/112/2 2/255/2
f 24/170/2 26/172/2 23/169/2
f 24/170/2 25/171/2 26/172/2
f 28/174/2 30/176/2 27/173/2
f 28/174/2 29/175/2 30/176/2
f 32/190/2 34/192/2 31/189/2
f 32/190/2 33/191/2 34/192/2
f 36/214/2 38/216/2 35/213/2
f 36/214/2 37/215/2 38/216/2
f 40/62/1 42/64/1 39/61/1
f 40/62/1 41/63/1 42/64/1
f 44/82/1 46/84/1 43/81/1
f 44/82/1 45/83/1 46/84/1
f 48/78/1 50/80/1 47/77/1
f 48/78/1 49/79/1 50/80/1
f 54/76/1 51/73/1 80/258/1
f 80/258/1 82/257/1 54/76/1
f 82/257/1 80/258/1 52/74/1
f 52/74/1 53/75/1 82/257/1
f 66/259/1 55/101/1 43/102/1
f 43/102/1 69/260/1 66/259/1
f 69/260/1 43/102/1 46/261/1
f 46/261/1 56/104/1 69/260/1
f 56/104/1 46/261/1 47/262/1
f 47/262/1 50/103/1 56/104/1
f 58/178/1 60/180/1 57/177/1
f 58/178/1 59/179/1 60/180/1
f 62/166/1 64/168/1 61/165/1
f 62/166/1 63/167/1 64/168/1
f 55/142/1 67/144/1 65/141/1
f 55/142/1 66/143/1 67/144/1
f 69/154/1 70/156/1 68/153/1
f 69/154/1 56/155/1 70/156/1
f 72/226/1 74/228/1 71/225/1
f 72/226/1 73/227/1 74/228/1
f 76/230/1 78/232/1 75/229/1
f 76/230/1 77/231/1 78/232/1
f 83/263/3 4/33/3 3/269/3
f 3/269/3 84/264/3 83/263/3
f 84/264/3 3/269/3 22/34/3
f 22/34/3 65/36/3 84/264/3
f 65/36/3 22/34/3 88/268/3
f 88/268/3 55/266/3 65/36/3
f 55/266/3 88/268/3 87/267/3
f 87/267/3 43/265/3 55/266/3
f 43/265/3 87/267/3 44/35/3
f 11/58/3 1/60/3 79/57/3
f 11/58/3 2/59/3 1/60/3
f 41/70/3 17/72/3 42/69/3
f 41/70/3 18/71/3 17/72/3
f 19/90/3 47/92/3 20/89/3
f 19/90/3 48/91/3 47/92/3
f 37/270/3 34/113/3 33/114/3
f 33/114/3 72/271/3 37/270/3
f 72/271/3 33/114/3 23/272/3
f 23/272/3 75/116/3 72/271/3
f 75/116/3 23/272/3 60/273/3
f 60/273/3 76/115/3 75/116/3
f 25/126/3 57/128/3 26/125/3
f 25/126/3 58/127/3 57/128/3
f 37/122/3 71/124/3 38/121/3
f 37/122/3 72/123/3 71/124/3
f 33/274/3 12/185/3 79/186/3
f 79/186/3 23/188/3 33/274/3
f 23/188/3 79/186/3 1/275/3
f 1/275/3 24/187/3 23/188/3
f 76/276/3 60/205/3 59/206/3
f 59/206/3 51/208/3 76/276/3
f 51/208/3 59/206/3 67/277/3
f 67/277/3 80/207/3 51/208/3
f 66/246/3 80/248/3 67/245/3
f 66/246/3 52/247/3 80/248/3
f 85/278/4 70/37/4 56/284/4
f 56/284/4 86/279/4 85/278/4
f 86/279/4 56/284/4 50/283/4
f 50/283/4 5/40/4 86/279/4
f 5/40/4 50/283/4 49/38/4
f 49/38/4 6/280/4 5/40/4
f 6/280/4 49/38/4 90/282/4
f 90/282/4 21/39/4 6/280/4
f 21/39/4 90/282/4 89/281/4
f 7/54/4 81/56/4 8/53/4
f 7/54/4 10/55/4 81/56/4
f 15/66/4 39/68/4 16/65/4
f 15/66/4 40/67/4 39/68/4
f 45/94/4 13/96/4 46/93/4
f 45/94/4 14/95/4 13/96/4
f 73/286/4 78/117/4 77/118/4
f 77/118/4 36/285/4 73/286/4
f 36/285/4 77/118/4 61/288/4
f 61/288/4 31/120/4 36/285/4
f 31/120/4 61/288/4 30/287/4
f 30/287/4 32/119/4 31/120/4
f 73/130/4 35/132/4 74/129/4
f 73/130/4 36/131/4 35/132/4
f 63/134/4 27/136/4 64/133/4
f 63/134/4 28/135/4 27/136/4
f 32/289/4 30/193/4 29/194/4
f 29/194/4 9/196/4 32/289/4
f 9/196/4 29/194/4 8/290/4
f 8/290/4 81/195/4 9/196/4
f 77/291/4 54/237/4 82/238/4
f 82/238/4 61/240/4 77/291/4
f 61/240/4 82/238/4 68/292/4
f 68/292/4 62/239/4 61/240/4
f 53/250/4 68/252/4 82/249/4
f 53/250/4 69/251/4 68/252/4
f 26/9/5 57/10/5 23/12/5
f 57/10/5 60/11/5 23/12/5
f 30/5/5 61/6/5 27/8/5
f 61/6/5 64/7/5 27/8/5
f 38/13/5 71/14/5 35/16/5
f 71/14/5 74/15/5 35/16/5
f 83/29/5 84/30/5 25/32/5
f 84/30/5 58/31/5 25/32/5
f 28/21/5 63/22/5 86/24/5
f 63/22/5 85/23/5 86/24/5
f 1/148/5 4/145/5 83/146/5
f 83/146/5 25/293/5 1/148/5
f 24/147/5 1/148/5 25/293/5
f 5/160/5 8/157/5 29/158/5
f 29/158/5 28/294/5 5/160/5
f 86/159/5 5/160/5 28/294/5
f 58/295/5 84/161/5 65/162/5
f 65/162/5 67/163/5 58/295/5
f 59/164/5 58/295/5 67/163/5
f 63/296/5 62/149/5 68/150/5
f 68/150/5 70/151/5 63/296/5
f 85/152/5 63/296/5 70/151/5
f 12/209/5 33/210/5 9/212/5
f 33/210/5 32/211/5 9/212/5
f 34/197/5 37/198/5 31/200/5
f 37/198/5 36/199/5 31/200/5
f 72/201/5 75/202/5 73/204/5
f 75/202/5 78/203/5 73/204/5
f 76/233/5 51/234/5 77/236/5
f 51/234/5 54/235/5 77/236/5
f 13/297/6 16/1/6 39/2/6
f 39/2/6 42/3/6 13/297/6
f 20/298/6 13/297/6 42/3/6
f 42/3/6 17/4/6 20/298/6
f 87/17/6 88/18/6 15/20/6
f 88/18/6 40/19/6 15/20/6
f 18/25/6 41/26/6 90/28/6
f 41/26/6 89/27/6 90/28/6
f 40/299/6 88/105/6 22/106/6
f 22/106/6 21/107/6 40/299/6
f 41/300/6 40/299/6 21/107/6
f 21/107/6 89/108/6 41/300/6
f 46/137/6 13/138/6 47/140/6
f 13/138/6 20/139/6 47/140/6
f 2/241/6 11/242/6 7/244/6
f 11/242/6 10/243/6 7/244/6
f 45/224/6 44/221/6 87/222/6
f 87/222/6 15/301/6 45/224/6
f 14/223/6 45/224/6 15/301/6
f 49/184/6 48/181/6 19/182/6
f 19/182/6 18/302/6 49/184/6
f 90/183/6 49/184/6 18/302/6
f 52/217/6 66/218/6 53/220/6
f 66/218/6 69/219/6 53/220/6
