# This file was created with Minddesk Qubicle 2.0
# Get Qubicle at www.minddesk.com

mtllib env_castleRoad_outer.mtl

vn 0.0 0.0 1.0
vn 0.0 0.0 -1.0
vn -1.0 0.0 0.0
vn 1.0 0.0 0.0
vn 0.0 1.0 0.0
vn 0.0 -1.0 0.0

v -31.50000 2.50000 -23.50000
v -31.50000 0.50000 -23.50000
v -35.50000 0.50000 -23.50000
v -35.50000 2.50000 -23.50000
v 34.50000 2.50000 -23.50000
v 34.50000 0.50000 -23.50000
v 30.50000 0.50000 -23.50000
v 30.50000 2.50000 -23.50000
v 34.50000 -0.50000 -23.50000
v -35.50000 -0.50000 -23.50000
v -35.50000 2.50000 21.50000
v -35.50000 0.50000 21.50000
v -31.50000 0.50000 21.50000
v -31.50000 2.50000 21.50000
v 30.50000 2.50000 21.50000
v 30.50000 0.50000 21.50000
v 34.50000 0.50000 21.50000
v 34.50000 2.50000 21.50000
v -35.50000 -0.50000 21.50000
v 34.50000 -0.50000 21.50000

vt 0.00781 0.35938
vt 0.00781 0.00781
vt 0.55469 0.00781
vt 0.55469 0.35938
vt 0.00781 0.72656
vt 0.00781 0.37500
vt 0.49219 0.37500
vt 0.49219 0.72656
vt 0.57031 0.35938
vt 0.57031 0.00781
vt 0.60156 0.00781
vt 0.60156 0.35938
vt 0.61719 0.35938
vt 0.61719 0.00781
vt 0.64844 0.00781
vt 0.64844 0.35938
vt 0.50781 0.39844
vt 0.50781 0.37500
vt 0.85938 0.37500
vt 0.85938 0.39844
vt 0.50781 0.43750
vt 0.50781 0.41406
vt 0.85938 0.41406
vt 0.85938 0.43750
vt 0.50781 0.46875
vt 0.50781 0.45313
vt 0.85938 0.45313
vt 0.85938 0.46875
vt 0.50781 0.50000
vt 0.50781 0.48438
vt 0.85938 0.48438
vt 0.85938 0.50000
vt 0.66406 0.02344
vt 0.66406 0.00781
vt 0.69531 0.00781
vt 0.69531 0.02344
vt 0.71094 0.02344
vt 0.71094 0.00781
vt 0.74219 0.00781
vt 0.74219 0.02344
vt 0.75781 0.02344
vt 0.75781 0.00781
vt 0.78906 0.00781
vt 0.78906 0.02344
vt 0.80469 0.02344
vt 0.80469 0.00781
vt 0.83594 0.00781
vt 0.83594 0.02344
vt 0.00781 0.75000
vt 0.00781 0.74219
vt 0.55469 0.74219
vt 0.55469 0.75000
vt 0.00781 0.77344
vt 0.00781 0.76563
vt 0.55469 0.76563
vt 0.55469 0.77344
vt 0.52344 0.77344
vt 0.03906 0.77344
vt 0.03906 0.75000
vt 0.52344 0.75000
vt 0.85938 0.38281
vt 0.50781 0.38281
vt 0.85938 0.42188
vt 0.50781 0.42188

g mtx_CastleRoad_outer
usemtl env_castleRoad_outer_Material
f  2/38/2 4/40/2 1/37/2
f  2/38/2 3/39/2 4/40/2
f  6/34/2 8/36/2 5/33/2
f  6/34/2 7/35/2 8/36/2
f  7/58/2 6/53/2 9/54/2
f  9/54/2 2/57/2 7/58/2
f  2/57/2 9/54/2 10/55/2
f  10/55/2 3/56/2 2/57/2
f  12/42/1 14/44/1 11/41/1
f  12/42/1 13/43/1 14/44/1
f  16/46/1 18/48/1 15/45/1
f  16/46/1 17/47/1 18/48/1
f  13/59/1 12/49/1 19/50/1
f  19/50/1 16/60/1 13/59/1
f  16/60/1 19/50/1 20/51/1
f  20/51/1 17/52/1 16/60/1
f  11/20/3 4/17/3 3/62/3
f  3/62/3 12/61/3 11/20/3
f  12/61/3 3/62/3 10/18/3
f  10/18/3 19/19/3 12/61/3
f  7/30/3 15/32/3 8/29/3
f  7/30/3 16/31/3 15/32/3
f  5/24/4 18/21/4 17/64/4
f  17/64/4 6/63/4 5/24/4
f  6/63/4 17/64/4 20/22/4
f  20/22/4 9/23/4 6/63/4
f  13/26/4 1/28/4 14/25/4
f  13/26/4 2/27/4 1/28/4
f  2/5/5 13/6/5 7/8/5
f  13/6/5 16/7/5 7/8/5
f  4/9/5 11/10/5 1/12/5
f  11/10/5 14/11/5 1/12/5
f  8/13/5 15/14/5 5/16/5
f  15/14/5 18/15/5 5/16/5
f  19/1/6 10/2/6 20/4/6
f  10/2/6 9/3/6 20/4/6
