# This file was created with Minddesk Qubicle 3.0
# Get Qubicle at www.getqubicle.com

mtllib cane_green.mtl

vn 0.0 0.0 1.0
vn 0.0 0.0 -1.0
vn -1.0 0.0 0.0
vn 1.0 0.0 0.0
vn 0.0 1.0 0.0
vn 0.0 -1.0 0.0

v 0.00000 -2.00000 -1.00000
v 0.00000 -11.00000 -1.00000
v -1.00000 -11.00000 -1.00000
v -1.00000 -2.00000 -1.00000
v 1.00000 7.00000 -2.00000
v 1.00000 1.00000 -2.00000
v -2.00000 1.00000 -2.00000
v -2.00000 7.00000 -2.00000
v 1.00000 -11.00000 -2.00000
v 1.00000 -15.00000 -2.00000
v -2.00000 -15.00000 -2.00000
v -2.00000 -11.00000 -2.00000
v 0.00000 1.00000 -1.00000
v -2.00000 -2.00000 -1.00000
v -2.00000 1.00000 -1.00000
v 0.00000 10.00000 -3.00000
v 0.00000 7.00000 -3.00000
v -1.00000 7.00000 -3.00000
v -1.00000 10.00000 -3.00000
v 0.00000 14.00000 -2.00000
v 0.00000 11.00000 -2.00000
v -1.00000 11.00000 -2.00000
v -1.00000 14.00000 -2.00000
v -2.00000 10.00000 -1.00000
v -2.00000 7.00000 -1.00000
v -3.00000 7.00000 -1.00000
v -3.00000 10.00000 -1.00000
v -1.00000 14.00000 -1.00000
v -1.00000 11.00000 -1.00000
v -2.00000 11.00000 -1.00000
v -2.00000 14.00000 -1.00000
v 1.00000 14.00000 -1.00000
v 1.00000 11.00000 -1.00000
v 0.00000 11.00000 -1.00000
v 0.00000 14.00000 -1.00000
v 2.00000 10.00000 -1.00000
v 2.00000 7.00000 -1.00000
v 1.00000 7.00000 -1.00000
v 1.00000 10.00000 -1.00000
v 0.00000 10.00000 1.00000
v 0.00000 8.00000 1.00000
v -1.00000 8.00000 1.00000
v -1.00000 10.00000 1.00000
v -1.00000 8.00000 -2.00000
v -1.00000 7.00000 -2.00000
v -2.00000 8.00000 -2.00000
v 1.00000 8.00000 -2.00000
v 0.00000 7.00000 -2.00000
v 0.00000 8.00000 -2.00000
v 0.00000 10.00000 -1.00000
v -1.00000 10.00000 -1.00000
v 0.00000 15.00000 -1.00000
v -1.00000 15.00000 -1.00000
v -1.00000 -2.00000 0.00000
v -1.00000 -11.00000 0.00000
v 0.00000 -11.00000 0.00000
v 0.00000 -2.00000 0.00000
v -2.00000 7.00000 1.00000
v -2.00000 1.00000 1.00000
v 1.00000 1.00000 1.00000
v 1.00000 7.00000 1.00000
v -2.00000 -11.00000 1.00000
v -2.00000 -15.00000 1.00000
v 1.00000 -15.00000 1.00000
v 1.00000 -11.00000 1.00000
v -2.00000 1.00000 0.00000
v -2.00000 -2.00000 0.00000
v 0.00000 1.00000 0.00000
v -3.00000 10.00000 0.00000
v -3.00000 7.00000 0.00000
v -2.00000 7.00000 0.00000
v -2.00000 10.00000 0.00000
v -2.00000 14.00000 0.00000
v -2.00000 11.00000 0.00000
v -1.00000 11.00000 0.00000
v -1.00000 14.00000 0.00000
v 0.00000 14.00000 0.00000
v 0.00000 11.00000 0.00000
v 1.00000 11.00000 0.00000
v 1.00000 14.00000 0.00000
v 1.00000 10.00000 0.00000
v 1.00000 7.00000 0.00000
v 2.00000 7.00000 0.00000
v 2.00000 10.00000 0.00000
v -1.00000 14.00000 1.00000
v -1.00000 11.00000 1.00000
v 0.00000 11.00000 1.00000
v 0.00000 14.00000 1.00000
v -1.00000 10.00000 2.00000
v -1.00000 7.00000 2.00000
v 0.00000 7.00000 2.00000
v 0.00000 10.00000 2.00000
v -1.00000 10.00000 -2.00000
v 0.00000 10.00000 -2.00000
v -1.00000 10.00000 0.00000
v 0.00000 10.00000 0.00000
v -1.00000 15.00000 0.00000
v 0.00000 15.00000 0.00000
v -2.00000 8.00000 1.00000
v -1.00000 7.00000 1.00000
v 0.00000 7.00000 1.00000
v 1.00000 8.00000 1.00000
v 1.00000 8.00000 -1.00000
v 1.00000 8.00000 0.00000
v -2.00000 8.00000 -1.00000
v -2.00000 8.00000 0.00000
v -2.00000 -11.00000 -1.00000
v 1.00000 -11.00000 -1.00000
v -2.00000 -11.00000 0.00000
v 1.00000 -11.00000 0.00000
v 1.00000 1.00000 -1.00000
v 1.00000 1.00000 0.00000

vt 0.01563 0.40625
vt 0.01563 0.03125
vt 0.03125 0.03125
vt 0.03125 0.40625
vt 0.06250 0.31250
vt 0.06250 0.03125
vt 0.07813 0.03125
vt 0.07813 0.31250
vt 0.10938 0.31250
vt 0.10938 0.03125
vt 0.12500 0.03125
vt 0.12500 0.31250
vt 0.15625 0.31250
vt 0.15625 0.03125
vt 0.17188 0.03125
vt 0.17188 0.31250
vt 0.20313 0.21875
vt 0.20313 0.03125
vt 0.25000 0.03125
vt 0.25000 0.21875
vt 0.28125 0.21875
vt 0.28125 0.03125
vt 0.32813 0.03125
vt 0.32813 0.21875
vt 0.35938 0.21875
vt 0.35938 0.03125
vt 0.40625 0.03125
vt 0.40625 0.21875
vt 0.43750 0.21875
vt 0.43750 0.03125
vt 0.48438 0.03125
vt 0.48438 0.21875
vt 0.51563 0.15625
vt 0.51563 0.03125
vt 0.56250 0.03125
vt 0.56250 0.15625
vt 0.59375 0.15625
vt 0.59375 0.03125
vt 0.64063 0.03125
vt 0.64063 0.15625
vt 0.67188 0.15625
vt 0.67188 0.03125
vt 0.71875 0.03125
vt 0.71875 0.15625
vt 0.75000 0.15625
vt 0.75000 0.03125
vt 0.79688 0.03125
vt 0.79688 0.15625
vt 0.82813 0.12500
vt 0.82813 0.03125
vt 0.87500 0.03125
vt 0.87500 0.12500
vt 0.90625 0.12500
vt 0.90625 0.03125
vt 0.95313 0.03125
vt 0.95313 0.12500
vt 0.01563 0.56250
vt 0.01563 0.46875
vt 0.04688 0.46875
vt 0.04688 0.56250
vt 0.07813 0.56250
vt 0.07813 0.46875
vt 0.10938 0.46875
vt 0.10938 0.56250
vt 0.14063 0.56250
vt 0.14063 0.46875
vt 0.15625 0.46875
vt 0.15625 0.56250
vt 0.18750 0.56250
vt 0.18750 0.46875
vt 0.20313 0.46875
vt 0.20313 0.56250
vt 0.23438 0.56250
vt 0.23438 0.46875
vt 0.25000 0.46875
vt 0.25000 0.56250
vt 0.28125 0.56250
vt 0.28125 0.46875
vt 0.29688 0.46875
vt 0.29688 0.56250
vt 0.32813 0.56250
vt 0.32813 0.46875
vt 0.34375 0.46875
vt 0.34375 0.56250
vt 0.37500 0.56250
vt 0.37500 0.46875
vt 0.39063 0.46875
vt 0.39063 0.56250
vt 0.42188 0.56250
vt 0.42188 0.46875
vt 0.43750 0.46875
vt 0.43750 0.56250
vt 0.46875 0.56250
vt 0.46875 0.46875
vt 0.48438 0.46875
vt 0.48438 0.56250
vt 0.51563 0.56250
vt 0.51563 0.46875
vt 0.53125 0.46875
vt 0.53125 0.56250
vt 0.56250 0.56250
vt 0.56250 0.46875
vt 0.57813 0.46875
vt 0.57813 0.56250
vt 0.60938 0.56250
vt 0.60938 0.46875
vt 0.62500 0.46875
vt 0.62500 0.56250
vt 0.65625 0.56250
vt 0.65625 0.46875
vt 0.67188 0.46875
vt 0.67188 0.56250
vt 0.70313 0.56250
vt 0.70313 0.46875
vt 0.71875 0.46875
vt 0.71875 0.56250
vt 0.75000 0.56250
vt 0.75000 0.46875
vt 0.76563 0.46875
vt 0.76563 0.56250
vt 0.79688 0.56250
vt 0.79688 0.46875
vt 0.81250 0.46875
vt 0.81250 0.56250
vt 0.84375 0.56250
vt 0.84375 0.46875
vt 0.85938 0.46875
vt 0.85938 0.56250
vt 0.89063 0.56250
vt 0.89063 0.46875
vt 0.90625 0.46875
vt 0.90625 0.56250
vt 0.93750 0.56250
vt 0.93750 0.46875
vt 0.95313 0.46875
vt 0.95313 0.56250
vt 0.01563 0.71875
vt 0.01563 0.62500
vt 0.03125 0.62500
vt 0.03125 0.71875
vt 0.06250 0.71875
vt 0.06250 0.62500
vt 0.07813 0.62500
vt 0.07813 0.71875
vt 0.10938 0.71875
vt 0.10938 0.62500
vt 0.12500 0.62500
vt 0.12500 0.71875
vt 0.15625 0.71875
vt 0.15625 0.62500
vt 0.17188 0.62500
vt 0.17188 0.71875
vt 0.20313 0.71875
vt 0.20313 0.62500
vt 0.21875 0.62500
vt 0.21875 0.71875
vt 0.25000 0.71875
vt 0.25000 0.62500
vt 0.26563 0.62500
vt 0.26563 0.71875
vt 0.29688 0.71875
vt 0.29688 0.62500
vt 0.31250 0.62500
vt 0.31250 0.71875
vt 0.34375 0.68750
vt 0.34375 0.62500
vt 0.35938 0.62500
vt 0.35938 0.68750
vt 0.39063 0.68750
vt 0.39063 0.62500
vt 0.40625 0.62500
vt 0.40625 0.68750
vt 0.43750 0.68750
vt 0.43750 0.62500
vt 0.45313 0.62500
vt 0.45313 0.68750
vt 0.48438 0.68750
vt 0.48438 0.62500
vt 0.50000 0.62500
vt 0.50000 0.68750
vt 0.20313 0.31250
vt 0.20313 0.28125
vt 0.25000 0.28125
vt 0.25000 0.31250
vt 0.28125 0.31250
vt 0.28125 0.28125
vt 0.32813 0.28125
vt 0.32813 0.31250
vt 0.35938 0.31250
vt 0.35938 0.28125
vt 0.40625 0.28125
vt 0.40625 0.31250
vt 0.43750 0.31250
vt 0.43750 0.28125
vt 0.48438 0.28125
vt 0.48438 0.31250
vt 0.51563 0.31250
vt 0.51563 0.28125
vt 0.53125 0.28125
vt 0.53125 0.31250
vt 0.56250 0.31250
vt 0.56250 0.28125
vt 0.57813 0.28125
vt 0.57813 0.31250
vt 0.60938 0.31250
vt 0.60938 0.28125
vt 0.62500 0.28125
vt 0.62500 0.31250
vt 0.65625 0.31250
vt 0.65625 0.28125
vt 0.67188 0.28125
vt 0.67188 0.31250
vt 0.70313 0.31250
vt 0.70313 0.28125
vt 0.71875 0.28125
vt 0.71875 0.31250
vt 0.75000 0.31250
vt 0.75000 0.28125
vt 0.76563 0.28125
vt 0.76563 0.31250
vt 0.79688 0.31250
vt 0.79688 0.28125
vt 0.81250 0.28125
vt 0.81250 0.31250
vt 0.84375 0.31250
vt 0.84375 0.28125
vt 0.85938 0.28125
vt 0.85938 0.31250
vt 0.89063 0.31250
vt 0.89063 0.28125
vt 0.90625 0.28125
vt 0.90625 0.31250
vt 0.93750 0.31250
vt 0.93750 0.28125
vt 0.95313 0.28125
vt 0.95313 0.31250
vt 0.06250 0.40625
vt 0.06250 0.37500
vt 0.07813 0.37500
vt 0.07813 0.40625
vt 0.10938 0.40625
vt 0.10938 0.37500
vt 0.12500 0.37500
vt 0.12500 0.40625
vt 0.15625 0.40625
vt 0.15625 0.37500
vt 0.17188 0.37500
vt 0.17188 0.40625
vt 0.20313 0.40625
vt 0.20313 0.37500
vt 0.21875 0.37500
vt 0.21875 0.40625
vt 0.25000 0.40625
vt 0.25000 0.37500
vt 0.26563 0.37500
vt 0.26563 0.40625
vt 0.29688 0.40625
vt 0.29688 0.37500
vt 0.31250 0.37500
vt 0.31250 0.40625
vt 0.34375 0.40625
vt 0.34375 0.37500
vt 0.35938 0.37500
vt 0.35938 0.40625
vt 0.39063 0.40625
vt 0.39063 0.37500
vt 0.40625 0.37500
vt 0.40625 0.40625
vt 0.43750 0.40625
vt 0.43750 0.37500
vt 0.45313 0.37500
vt 0.45313 0.40625
vt 0.48438 0.40625
vt 0.48438 0.37500
vt 0.50000 0.37500
vt 0.50000 0.40625
vt 0.53125 0.40625
vt 0.53125 0.37500
vt 0.54688 0.37500
vt 0.54688 0.40625
vt 0.57813 0.40625
vt 0.57813 0.37500
vt 0.59375 0.37500
vt 0.59375 0.40625
vt 0.62500 0.40625
vt 0.62500 0.37500
vt 0.64063 0.37500
vt 0.64063 0.40625
vt 0.67188 0.40625
vt 0.67188 0.37500
vt 0.68750 0.37500
vt 0.68750 0.40625
vt 0.71875 0.40625
vt 0.71875 0.37500
vt 0.73438 0.37500
vt 0.73438 0.40625
vt 0.76563 0.40625
vt 0.76563 0.37500
vt 0.78125 0.37500
vt 0.78125 0.40625
vt 0.81250 0.40625
vt 0.81250 0.37500
vt 0.82813 0.37500
vt 0.82813 0.40625
vt 0.85938 0.40625
vt 0.85938 0.37500
vt 0.87500 0.37500
vt 0.87500 0.40625
vt 0.90625 0.40625
vt 0.90625 0.37500
vt 0.92188 0.37500
vt 0.92188 0.40625
vt 0.95313 0.40625
vt 0.95313 0.37500
vt 0.96875 0.37500
vt 0.96875 0.40625
vt 0.53125 0.65625
vt 0.53125 0.62500
vt 0.54688 0.62500
vt 0.54688 0.65625
vt 0.57813 0.65625
vt 0.57813 0.62500
vt 0.59375 0.62500
vt 0.59375 0.65625
vt 0.62500 0.65625
vt 0.62500 0.62500
vt 0.64063 0.62500
vt 0.64063 0.65625
vt 0.67188 0.65625
vt 0.67188 0.62500
vt 0.68750 0.62500
vt 0.68750 0.65625
vt 0.71875 0.65625
vt 0.71875 0.62500
vt 0.73438 0.62500
vt 0.73438 0.65625
vt 0.76563 0.65625
vt 0.76563 0.62500
vt 0.78125 0.62500
vt 0.78125 0.65625
vt 0.81250 0.65625
vt 0.81250 0.62500
vt 0.82813 0.62500
vt 0.82813 0.65625
vt 0.85938 0.65625
vt 0.85938 0.62500
vt 0.87500 0.62500
vt 0.87500 0.65625
vt 0.23438 0.21875
vt 0.21875 0.21875
vt 0.03125 0.46875
vt 0.93750 0.50000
vt 0.03125 0.65625
vt 0.37500 0.21875
vt 0.39063 0.21875
vt 0.09375 0.46875
vt 0.90625 0.50000
vt 0.20313 0.65625
vt 0.45313 0.21875
vt 0.46875 0.21875
vt 0.45313 0.03125
vt 0.46875 0.03125
vt 0.76563 0.15625
vt 0.78125 0.15625
vt 0.48438 0.50000
vt 0.75000 0.50000
vt 0.03125 0.31250
vt 0.01563 0.31250
vt 0.31250 0.21875
vt 0.29688 0.21875
vt 0.31250 0.03125
vt 0.29688 0.03125
vt 0.70313 0.15625
vt 0.68750 0.15625
vt 0.65625 0.50000
vt 0.39063 0.50000
vt 0.90625 0.09375
vt 0.90625 0.06250
vt 0.93750 0.03125
vt 0.92188 0.03125
vt 0.95313 0.09375
vt 0.95313 0.06250
vt 0.92188 0.12500
vt 0.93750 0.12500
vt 0.39063 0.28125
vt 0.37500 0.28125
vt 0.45313 0.31250
vt 0.46875 0.31250
vt 0.31250 0.31250
vt 0.23438 0.28125

g mtc_cane
usemtl cane_green_Material
f 2/10/2 4/12/2 1/9/2
f 2/10/2 3/11/2 4/12/2
f 48/350/2 5/17/2 6/18/2
f 6/18/2 45/349/2 48/350/2
f 45/349/2 6/18/2 7/19/2
f 7/19/2 8/20/2 45/349/2
f 10/34/2 12/36/2 9/33/2
f 10/34/2 11/35/2 12/36/2
f 15/60/2 13/57/2 1/58/2
f 1/58/2 14/59/2 15/60/2
f 14/59/2 1/58/2 4/351/2
f 17/126/2 19/128/2 16/125/2
f 17/126/2 18/127/2 19/128/2
f 21/122/2 23/124/2 20/121/2
f 21/122/2 22/123/2 23/124/2
f 27/136/2 24/133/2 105/352/2
f 105/352/2 26/135/2 27/136/2
f 26/135/2 105/352/2 25/134/2
f 29/146/2 31/148/2 28/145/2
f 29/146/2 30/147/2 31/148/2
f 33/142/2 35/144/2 32/141/2
f 33/142/2 34/143/2 35/144/2
f 39/140/2 36/137/2 37/138/2
f 37/138/2 103/353/2 39/140/2
f 103/353/2 37/138/2 38/139/2
f 41/170/2 43/172/2 40/169/2
f 41/170/2 42/171/2 43/172/2
f 45/218/2 46/220/2 44/217/2
f 45/218/2 8/219/2 46/220/2
f 5/198/2 49/200/2 47/197/2
f 5/198/2 48/199/2 49/200/2
f 50/210/2 29/212/2 34/209/2
f 50/210/2 51/211/2 29/212/2
f 35/206/2 53/208/2 52/205/2
f 35/206/2 28/207/2 53/208/2
f 55/14/1 57/16/1 54/13/1
f 55/14/1 56/15/1 57/16/1
f 100/354/1 58/25/1 59/26/1
f 59/26/1 101/355/1 100/354/1
f 101/355/1 59/26/1 60/27/1
f 60/27/1 61/28/1 101/355/1
f 63/38/1 65/40/1 62/37/1
f 63/38/1 64/39/1 65/40/1
f 68/64/1 66/61/1 67/62/1
f 67/62/1 57/63/1 68/64/1
f 57/63/1 67/62/1 54/356/1
f 72/132/1 69/129/1 70/130/1
f 70/130/1 106/357/1 72/132/1
f 106/357/1 70/130/1 71/131/1
f 74/150/1 76/152/1 73/149/1
f 74/150/1 75/151/1 76/152/1
f 78/162/1 80/164/1 77/161/1
f 78/162/1 79/163/1 80/164/1
f 84/156/1 81/153/1 104/358/1
f 104/358/1 83/155/1 84/156/1
f 83/155/1 104/358/1 82/154/1
f 86/158/1 88/160/1 85/157/1
f 86/158/1 87/159/1 88/160/1
f 90/82/1 92/84/1 89/81/1
f 90/82/1 91/83/1 92/84/1
f 44/174/1 94/176/1 93/173/1
f 44/174/1 49/175/1 94/176/1
f 95/202/1 78/204/1 75/201/1
f 95/202/1 96/203/1 78/204/1
f 76/222/1 98/224/1 97/221/1
f 76/222/1 77/223/1 98/224/1
f 58/226/1 42/228/1 99/225/1
f 58/226/1 100/227/1 42/228/1
f 101/214/1 102/216/1 41/213/1
f 101/214/1 61/215/1 102/216/1
f 3/6/3 54/8/3 4/5/3
f 3/6/3 55/7/3 54/8/3
f 25/359/3 8/29/3 7/30/3
f 7/30/3 71/360/3 25/359/3
f 71/360/3 7/30/3 15/361/3
f 15/361/3 58/32/3 71/360/3
f 58/32/3 15/361/3 66/362/3
f 66/362/3 59/31/3 58/32/3
f 107/363/3 12/45/3 11/46/3
f 11/46/3 109/364/3 107/363/3
f 109/364/3 11/46/3 63/47/3
f 63/47/3 62/48/3 109/364/3
f 93/96/3 19/93/3 18/94/3
f 18/94/3 44/365/3 93/96/3
f 44/365/3 18/94/3 45/95/3
f 22/98/3 28/100/3 23/97/3
f 22/98/3 29/99/3 28/100/3
f 26/102/3 69/104/3 27/101/3
f 26/102/3 70/103/3 69/104/3
f 14/106/3 66/108/3 15/105/3
f 14/106/3 67/107/3 66/108/3
f 30/90/3 73/92/3 31/89/3
f 30/90/3 74/91/3 73/92/3
f 75/114/3 85/116/3 76/113/3
f 75/114/3 86/115/3 85/116/3
f 89/120/3 43/117/3 42/366/3
f 42/366/3 90/119/3 89/120/3
f 90/119/3 42/366/3 100/118/3
f 103/166/3 81/168/3 39/165/3
f 103/166/3 104/167/3 81/168/3
f 8/306/3 105/308/3 46/305/3
f 8/306/3 25/307/3 105/308/3
f 51/310/3 75/312/3 29/309/3
f 51/310/3 95/311/3 75/312/3
f 28/314/3 97/316/3 53/313/3
f 28/314/3 76/315/3 97/316/3
f 71/302/3 99/304/3 106/301/3
f 71/302/3 58/303/3 99/304/3
f 13/4/4 68/1/4 57/368/4
f 57/368/4 1/367/4 13/4/4
f 1/367/4 57/368/4 56/2/4
f 56/2/4 2/3/4 1/367/4
f 82/370/4 61/21/4 60/22/4
f 60/22/4 38/369/4 82/370/4
f 38/369/4 60/22/4 112/372/4
f 112/372/4 5/24/4 38/369/4
f 5/24/4 112/372/4 111/371/4
f 111/371/4 6/23/4 5/24/4
f 110/374/4 65/41/4 64/42/4
f 64/42/4 108/373/4 110/374/4
f 108/373/4 64/42/4 10/43/4
f 10/43/4 9/44/4 108/373/4
f 16/112/4 94/109/4 49/375/4
f 49/375/4 17/111/4 16/112/4
f 17/111/4 49/375/4 48/110/4
f 34/74/4 20/76/4 35/73/4
f 34/74/4 21/75/4 20/76/4
f 79/70/4 32/72/4 80/69/4
f 79/70/4 33/71/4 32/72/4
f 83/66/4 36/68/4 84/65/4
f 83/66/4 37/67/4 36/68/4
f 87/78/4 77/80/4 88/77/4
f 87/78/4 78/79/4 77/80/4
f 40/88/4 92/85/4 91/86/4
f 91/86/4 41/376/4 40/88/4
f 41/376/4 91/86/4 101/87/4
f 106/178/4 24/180/4 72/177/4
f 106/178/4 105/179/4 24/180/4
f 38/290/4 47/292/4 103/289/4
f 38/290/4 5/291/4 47/292/4
f 96/294/4 34/296/4 78/293/4
f 96/294/4 50/295/4 34/296/4
f 77/298/4 52/300/4 98/297/4
f 77/298/4 35/299/4 52/300/4
f 61/318/4 104/320/4 102/317/4
f 61/318/4 82/319/4 104/320/4
f 44/383/5 46/53/5 105/377/5
f 105/377/5 106/378/5 44/383/5
f 49/384/5 44/383/5 106/378/5
f 106/378/5 99/54/5 49/384/5
f 47/56/5 49/384/5 99/54/5
f 99/54/5 42/380/5 47/56/5
f 103/381/5 47/56/5 42/380/5
f 42/380/5 41/379/5 103/381/5
f 104/382/5 103/381/5 41/379/5
f 41/379/5 102/55/5 104/382/5
f 9/192/5 12/189/5 107/190/5
f 107/190/5 3/386/5 9/192/5
f 108/191/5 9/192/5 3/386/5
f 3/386/5 2/385/5 108/191/5
f 55/387/5 109/193/5 62/194/5
f 62/194/5 65/195/5 55/387/5
f 56/388/5 55/387/5 65/195/5
f 65/195/5 110/196/5 56/388/5
f 19/337/5 93/338/5 16/340/5
f 93/338/5 94/339/5 16/340/5
f 23/341/5 28/342/5 20/344/5
f 28/342/5 35/343/5 20/344/5
f 27/345/5 69/346/5 24/348/5
f 69/346/5 72/347/5 24/348/5
f 107/333/5 109/334/5 3/336/5
f 109/334/5 55/335/5 3/336/5
f 31/321/5 73/322/5 28/324/5
f 73/322/5 76/323/5 28/324/5
f 53/325/5 97/326/5 52/328/5
f 97/326/5 98/327/5 52/328/5
f 2/329/5 56/330/5 108/332/5
f 56/330/5 110/331/5 108/332/5
f 35/245/5 77/246/5 32/248/5
f 77/246/5 80/247/5 32/248/5
f 39/249/5 81/250/5 36/252/5
f 81/250/5 84/251/5 36/252/5
f 76/253/5 85/254/5 77/256/5
f 85/254/5 88/255/5 77/256/5
f 43/241/5 89/242/5 40/244/5
f 89/242/5 92/243/5 40/244/5
f 63/49/6 11/50/6 64/52/6
f 11/50/6 10/51/6 64/52/6
f 13/389/6 15/185/6 7/186/6
f 7/186/6 6/187/6 13/389/6
f 111/188/6 13/389/6 6/187/6
f 60/184/6 59/181/6 66/182/6
f 66/182/6 68/390/6 60/184/6
f 112/183/6 60/184/6 68/390/6
f 45/229/6 18/230/6 48/232/6
f 18/230/6 17/231/6 48/232/6
f 29/233/6 22/234/6 34/236/6
f 22/234/6 21/235/6 34/236/6
f 70/237/6 26/238/6 71/240/6
f 26/238/6 25/239/6 71/240/6
f 67/257/6 14/258/6 54/260/6
f 14/258/6 4/259/6 54/260/6
f 74/277/6 30/278/6 75/280/6
f 30/278/6 29/279/6 75/280/6
f 95/281/6 51/282/6 96/284/6
f 51/282/6 50/283/6 96/284/6
f 68/285/6 13/286/6 112/288/6
f 13/286/6 111/287/6 112/288/6
f 78/273/6 34/274/6 79/276/6
f 34/274/6 33/275/6 79/276/6
f 82/261/6 38/262/6 83/264/6
f 38/262/6 37/263/6 83/264/6
f 86/265/6 75/266/6 87/268/6
f 75/266/6 78/267/6 87/268/6
f 90/269/6 100/270/6 91/272/6
f 100/270/6 101/271/6 91/272/6
