# This file was created with Minddesk Qubicle 2.0
# Get Qubicle at www.minddesk.com

mtllib env_castleRoad_curb.mtl

vn 0.0 0.0 1.0
vn 0.0 0.0 -1.0
vn -1.0 0.0 0.0
vn 1.0 0.0 0.0
vn 0.0 1.0 0.0
vn 0.0 -1.0 0.0

v 1.50000 2.50000 -9.50000
v 1.50000 -0.50000 -9.50000
v -2.50000 -0.50000 -9.50000
v -2.50000 2.50000 -9.50000
v -2.50000 2.50000 9.50000
v -2.50000 -0.50000 9.50000
v 1.50000 -0.50000 9.50000
v 1.50000 2.50000 9.50000

vt 0.03125 0.62500
vt 0.03125 0.03125
vt 0.15625 0.03125
vt 0.15625 0.62500
vt 0.21875 0.62500
vt 0.21875 0.03125
vt 0.34375 0.03125
vt 0.34375 0.62500
vt 0.03125 0.78125
vt 0.03125 0.68750
vt 0.62500 0.68750
vt 0.62500 0.78125
vt 0.03125 0.93750
vt 0.03125 0.84375
vt 0.62500 0.84375
vt 0.62500 0.93750
vt 0.40625 0.12500
vt 0.40625 0.03125
vt 0.53125 0.03125
vt 0.53125 0.12500
vt 0.59375 0.12500
vt 0.59375 0.03125
vt 0.71875 0.03125
vt 0.71875 0.12500

g mtx_CastleRoad_curb
usemtl env_castleRoad_curb_Material
f  2/18/2 4/20/2 1/17/2
f  2/18/2 3/19/2 4/20/2
f  6/22/1 8/24/1 5/21/1
f  6/22/1 7/23/1 8/24/1
f  3/10/3 5/12/3 4/9/3
f  3/10/3 6/11/3 5/12/3
f  7/14/4 1/16/4 8/13/4
f  7/14/4 2/15/4 1/16/4
f  4/1/5 5/2/5 1/4/5
f  5/2/5 8/3/5 1/4/5
f  6/5/6 3/6/6 7/8/6
f  3/6/6 2/7/6 7/8/6
