# This file was created with Minddesk Qubicle 2.0
# Get Qubicle at www.minddesk.com

mtllib env_boatWithNoise.mtl

vn 0.0 0.0 1.0
vn 0.0 0.0 -1.0
vn -1.0 0.0 0.0
vn 1.0 0.0 0.0
vn 0.0 1.0 0.0
vn 0.0 -1.0 0.0

v 13.50000 2.50000 -5.50000
v 13.50000 -0.50000 -5.50000
v -17.50000 -0.50000 -5.50000
v -17.50000 2.50000 -5.50000
v 13.50000 5.50000 -8.50000
v 13.50000 2.50000 -8.50000
v -17.50000 2.50000 -8.50000
v -17.50000 5.50000 -8.50000
v -8.50000 5.50000 4.50000
v -8.50000 2.50000 4.50000
v -17.50000 2.50000 4.50000
v -17.50000 5.50000 4.50000
v 3.50000 5.50000 4.50000
v 3.50000 2.50000 4.50000
v -5.50000 2.50000 4.50000
v -5.50000 5.50000 4.50000
v 12.50000 5.50000 4.50000
v 12.50000 2.50000 4.50000
v 6.50000 2.50000 4.50000
v 6.50000 5.50000 4.50000
v -17.50000 5.50000 -5.50000
v -20.50000 2.50000 -5.50000
v -20.50000 5.50000 -5.50000
v 15.50000 5.50000 -6.50000
v 15.50000 2.50000 -6.50000
v 13.50000 2.50000 -6.50000
v 13.50000 5.50000 -6.50000
v -17.50000 -0.50000 4.50000
v 13.50000 -0.50000 4.50000
v 13.50000 2.50000 4.50000
v -17.50000 5.50000 7.50000
v -17.50000 2.50000 7.50000
v 13.50000 2.50000 7.50000
v 13.50000 5.50000 7.50000
v -8.50000 2.50000 -5.50000
v -8.50000 5.50000 -5.50000
v -5.50000 5.50000 -5.50000
v -5.50000 2.50000 -5.50000
v 3.50000 2.50000 -5.50000
v 3.50000 5.50000 -5.50000
v 6.50000 5.50000 -5.50000
v 6.50000 2.50000 -5.50000
v 12.50000 2.50000 -5.50000
v 12.50000 5.50000 -5.50000
v -20.50000 5.50000 4.50000
v -20.50000 2.50000 4.50000
v 13.50000 5.50000 5.50000
v 13.50000 2.50000 5.50000
v 15.50000 2.50000 5.50000
v 15.50000 5.50000 5.50000
v -7.50000 5.50000 -5.50000
v -7.50000 5.50000 -8.50000
v -7.50000 5.50000 7.50000
v -7.50000 5.50000 4.50000
v -5.50000 5.50000 -8.50000
v 4.50000 5.50000 -5.50000
v 4.50000 5.50000 -8.50000
v -5.50000 5.50000 7.50000
v 4.50000 5.50000 7.50000
v 4.50000 5.50000 4.50000
v 6.50000 5.50000 7.50000
v 6.50000 5.50000 -8.50000
v 12.50000 5.50000 -8.50000
v 12.50000 5.50000 7.50000
v -17.50000 2.50000 -6.50000
v 14.50000 2.50000 -6.50000
v 14.50000 2.50000 -5.50000
v 14.50000 2.50000 4.50000
v 15.50000 2.50000 4.50000

vt 0.00781 0.26563
vt 0.00781 0.01563
vt 0.02344 0.01563
vt 0.02344 0.26563
vt 0.03906 0.26563
vt 0.03906 0.01563
vt 0.05469 0.01563
vt 0.05469 0.26563
vt 0.07031 0.26563
vt 0.07031 0.01563
vt 0.07813 0.01563
vt 0.07813 0.26563
vt 0.09375 0.20313
vt 0.09375 0.01563
vt 0.10938 0.01563
vt 0.10938 0.20313
vt 0.12500 0.18750
vt 0.12500 0.01563
vt 0.13281 0.01563
vt 0.13281 0.18750
vt 0.14844 0.17188
vt 0.14844 0.01563
vt 0.39063 0.01563
vt 0.39063 0.17188
vt 0.40625 0.17188
vt 0.40625 0.01563
vt 0.47656 0.01563
vt 0.47656 0.17188
vt 0.49219 0.17188
vt 0.49219 0.01563
vt 0.56250 0.01563
vt 0.56250 0.17188
vt 0.57813 0.17188
vt 0.57813 0.01563
vt 0.62500 0.01563
vt 0.62500 0.17188
vt 0.64063 0.17188
vt 0.64063 0.01563
vt 0.66406 0.01563
vt 0.66406 0.17188
vt 0.67969 0.17188
vt 0.67969 0.01563
vt 0.70313 0.01563
vt 0.70313 0.17188
vt 0.71875 0.17188
vt 0.71875 0.01563
vt 0.72656 0.01563
vt 0.72656 0.17188
vt 0.74219 0.17188
vt 0.74219 0.01563
vt 0.75000 0.01563
vt 0.75000 0.17188
vt 0.76563 0.17188
vt 0.76563 0.01563
vt 0.77344 0.01563
vt 0.77344 0.17188
vt 0.00781 0.34375
vt 0.00781 0.29688
vt 0.25000 0.29688
vt 0.25000 0.34375
vt 0.26563 0.34375
vt 0.26563 0.29688
vt 0.50781 0.29688
vt 0.50781 0.34375
vt 0.52344 0.34375
vt 0.52344 0.29688
vt 0.76563 0.29688
vt 0.76563 0.34375
vt 0.00781 0.42188
vt 0.00781 0.37500
vt 0.25000 0.37500
vt 0.25000 0.42188
vt 0.26563 0.42188
vt 0.26563 0.37500
vt 0.50781 0.37500
vt 0.50781 0.42188
vt 0.78906 0.06250
vt 0.78906 0.01563
vt 0.88281 0.01563
vt 0.88281 0.06250
vt 0.89844 0.06250
vt 0.89844 0.01563
vt 0.97656 0.01563
vt 0.97656 0.06250
vt 0.78906 0.14063
vt 0.78906 0.09375
vt 0.86719 0.09375
vt 0.86719 0.14063
vt 0.88281 0.14063
vt 0.88281 0.09375
vt 0.96094 0.09375
vt 0.96094 0.14063
vt 0.78125 0.34375
vt 0.78125 0.29688
vt 0.85938 0.29688
vt 0.85938 0.34375
vt 0.87500 0.34375
vt 0.87500 0.29688
vt 0.95313 0.29688
vt 0.95313 0.34375
vt 0.52344 0.42188
vt 0.52344 0.37500
vt 0.60156 0.37500
vt 0.60156 0.42188
vt 0.61719 0.42188
vt 0.61719 0.37500
vt 0.69531 0.37500
vt 0.69531 0.42188
vt 0.71094 0.42188
vt 0.71094 0.37500
vt 0.78906 0.37500
vt 0.78906 0.42188
vt 0.80469 0.42188
vt 0.80469 0.37500
vt 0.88281 0.37500
vt 0.88281 0.42188
vt 0.89844 0.42188
vt 0.89844 0.37500
vt 0.97656 0.37500
vt 0.97656 0.42188
vt 0.00781 0.50000
vt 0.00781 0.45313
vt 0.08594 0.45313
vt 0.08594 0.50000
vt 0.10156 0.50000
vt 0.10156 0.45313
vt 0.17969 0.45313
vt 0.17969 0.50000
vt 0.19531 0.50000
vt 0.19531 0.45313
vt 0.27344 0.45313
vt 0.27344 0.50000
vt 0.28906 0.50000
vt 0.28906 0.45313
vt 0.35938 0.45313
vt 0.35938 0.50000
vt 0.37500 0.50000
vt 0.37500 0.45313
vt 0.44531 0.45313
vt 0.44531 0.50000
vt 0.46094 0.50000
vt 0.46094 0.45313
vt 0.53125 0.45313
vt 0.53125 0.50000
vt 0.54688 0.50000
vt 0.54688 0.45313
vt 0.61719 0.45313
vt 0.61719 0.50000
vt 0.63281 0.50000
vt 0.63281 0.45313
vt 0.67969 0.45313
vt 0.67969 0.50000
vt 0.69531 0.50000
vt 0.69531 0.45313
vt 0.74219 0.45313
vt 0.74219 0.50000
vt 0.75781 0.50000
vt 0.75781 0.45313
vt 0.80469 0.45313
vt 0.80469 0.50000
vt 0.82031 0.50000
vt 0.82031 0.45313
vt 0.86719 0.45313
vt 0.86719 0.50000
vt 0.96875 0.34375
vt 0.96875 0.29688
vt 0.99219 0.29688
vt 0.99219 0.34375
vt 0.88281 0.50000
vt 0.88281 0.45313
vt 0.90625 0.45313
vt 0.90625 0.50000
vt 0.92188 0.50000
vt 0.92188 0.45313
vt 0.94531 0.45313
vt 0.94531 0.50000
vt 0.96094 0.50000
vt 0.96094 0.45313
vt 0.98438 0.45313
vt 0.98438 0.50000
vt 0.97656 0.14063
vt 0.97656 0.09375
vt 0.99219 0.09375
vt 0.99219 0.14063
vt 0.00781 0.57813
vt 0.00781 0.53125
vt 0.02344 0.53125
vt 0.02344 0.57813
vt 0.03906 0.57813
vt 0.03906 0.53125
vt 0.05469 0.53125
vt 0.05469 0.57813
vt 0.07031 0.57813
vt 0.07031 0.53125
vt 0.08594 0.53125
vt 0.08594 0.57813
vt 0.09375 0.26563
vt 0.09375 0.23438
vt 0.33594 0.23438
vt 0.33594 0.26563
vt 0.35156 0.25000
vt 0.35156 0.23438
vt 0.60156 0.23438
vt 0.60156 0.25000
vt 0.61719 0.25000
vt 0.61719 0.23438
vt 0.63281 0.23438
vt 0.63281 0.25000

g mtx_boat
usemtl env_boatWithNoise_Material
f  1/61/2 2/62/2 3/63/2 4/64/2
f  5/57/2 6/58/2 7/59/2 8/60/2
f  9/133/2 10/134/2 11/135/2 12/136/2
f  13/141/2 14/142/2 15/143/2 16/144/2
f  17/157/2 18/158/2 19/159/2 20/160/2
f  21/165/2 4/166/2 22/167/2 23/168/2
f  24/189/2 25/190/2 26/191/2 27/192/2
f  11/65/1 28/66/1 29/67/1 30/68/1
f  31/69/1 32/70/1 33/71/1 34/72/1
f  21/145/1 4/146/1 35/147/1 36/148/1
f  37/137/1 38/138/1 39/139/1 40/140/1
f  41/149/1 42/150/1 43/151/1 44/152/1
f  45/177/1 46/178/1 11/179/1 12/180/1
f  47/181/1 48/182/1 49/183/1 50/184/1
f  23/101/3 22/102/3 46/103/3 45/104/3
f  4/97/3 3/98/3 28/99/3 11/100/3
f  36/109/3 35/110/3 10/111/3 9/112/3
f  40/105/3 39/106/3 14/107/3 13/108/3
f  44/85/3 43/86/3 18/87/3 17/88/3
f  8/173/3 7/174/3 4/175/3 21/176/3
f  12/169/3 11/170/3 32/171/3 31/172/3
f  12/81/4 11/82/4 4/83/4 21/84/4
f  16/93/4 15/94/4 38/95/4 37/96/4
f  20/89/4 19/90/4 42/91/4 41/92/4
f  30/129/4 29/130/4 2/131/4 1/132/4
f  50/77/4 49/78/4 25/79/4 24/80/4
f  27/185/4 26/186/4 6/187/4 5/188/4
f  34/193/4 33/194/4 48/195/4 47/196/4
f  4/29/5 11/30/5 10/31/5 35/32/5
f  38/25/5 15/26/5 14/27/5 39/28/5
f  42/33/5 19/34/5 18/35/5 43/36/5
f  23/37/5 45/38/5 12/39/5 21/40/5
f  8/121/5 21/122/5 51/123/5 52/124/5
f  12/125/5 31/126/5 53/127/5 54/128/5
f  55/113/5 37/114/5 56/115/5 57/116/5
f  16/117/5 58/118/5 59/119/5 60/120/5
f  52/5/5 53/6/5 58/7/5 55/8/5
f  57/1/5 59/2/5 61/3/5 62/4/5
f  62/161/5 41/162/5 44/163/5 63/164/5
f  20/153/5 61/154/5 64/155/5 17/156/5
f  27/13/5 47/14/5 50/15/5 24/16/5
f  36/53/5 9/54/5 54/55/5 51/56/5
f  40/49/5 13/50/5 60/51/5 56/52/5
f  63/9/5 64/10/5 34/11/5 5/12/5
f  28/21/6 3/22/6 2/23/6 29/24/6
f  32/73/6 11/74/6 30/75/6 33/76/6
f  46/41/6 22/42/6 4/43/6 11/44/6
f  65/197/6 7/198/6 6/199/6 26/200/6
f  4/201/6 65/202/6 66/203/6 67/204/6
f  30/45/6 1/46/6 67/47/6 68/48/6
f  68/17/6 66/18/6 25/19/6 69/20/6
f  48/205/6 30/206/6 69/207/6 49/208/6
