# This file was created with Minddesk Qubicle 3.0
# Get Qubicle at www.getqubicle.com

mtllib sword4.mtl

vn 0.0 0.0 1.0
vn 0.0 0.0 -1.0
vn -1.0 0.0 0.0
vn 1.0 0.0 0.0
vn 0.0 1.0 0.0
vn 0.0 -1.0 0.0

v 2.00000 8.00000 -1.00000
v 2.00000 -6.00000 -1.00000
v -2.00000 -6.00000 -1.00000
v -2.00000 8.00000 -1.00000
v 1.00000 -7.00000 -1.00000
v 1.00000 -10.00000 -1.00000
v -1.00000 -10.00000 -1.00000
v -1.00000 -7.00000 -1.00000
v 1.00000 10.00000 -1.00000
v 1.00000 8.00000 -1.00000
v -1.00000 8.00000 -1.00000
v -1.00000 10.00000 -1.00000
v 3.00000 -6.00000 -1.00000
v 3.00000 -7.00000 -1.00000
v -3.00000 -7.00000 -1.00000
v -3.00000 -6.00000 -1.00000
v -2.00000 8.00000 0.00000
v -2.00000 -6.00000 0.00000
v 2.00000 -6.00000 0.00000
v 2.00000 8.00000 0.00000
v -1.00000 -7.00000 0.00000
v -1.00000 -10.00000 0.00000
v 1.00000 -10.00000 0.00000
v 1.00000 -7.00000 0.00000
v -1.00000 10.00000 0.00000
v -1.00000 8.00000 0.00000
v 1.00000 8.00000 0.00000
v 1.00000 10.00000 0.00000
v -3.00000 -6.00000 0.00000
v -3.00000 -7.00000 0.00000
v 3.00000 -7.00000 0.00000
v 3.00000 -6.00000 0.00000

vt 0.03125 0.46875
vt 0.03125 0.03125
vt 0.15625 0.03125
vt 0.15625 0.46875
vt 0.21875 0.46875
vt 0.21875 0.03125
vt 0.34375 0.03125
vt 0.34375 0.46875
vt 0.40625 0.46875
vt 0.40625 0.03125
vt 0.43750 0.03125
vt 0.43750 0.46875
vt 0.50000 0.46875
vt 0.50000 0.03125
vt 0.53125 0.03125
vt 0.53125 0.46875
vt 0.59375 0.12500
vt 0.59375 0.03125
vt 0.65625 0.03125
vt 0.65625 0.12500
vt 0.71875 0.12500
vt 0.71875 0.03125
vt 0.78125 0.03125
vt 0.78125 0.12500
vt 0.84375 0.12500
vt 0.84375 0.03125
vt 0.87500 0.03125
vt 0.87500 0.12500
vt 0.93750 0.12500
vt 0.93750 0.03125
vt 0.96875 0.03125
vt 0.96875 0.12500
vt 0.59375 0.25000
vt 0.59375 0.18750
vt 0.65625 0.18750
vt 0.65625 0.25000
vt 0.71875 0.25000
vt 0.71875 0.18750
vt 0.78125 0.18750
vt 0.78125 0.25000
vt 0.84375 0.25000
vt 0.84375 0.18750
vt 0.87500 0.18750
vt 0.87500 0.25000
vt 0.93750 0.25000
vt 0.93750 0.18750
vt 0.96875 0.18750
vt 0.96875 0.25000
vt 0.59375 0.34375
vt 0.59375 0.31250
vt 0.78125 0.31250
vt 0.78125 0.34375
vt 0.59375 0.43750
vt 0.59375 0.40625
vt 0.78125 0.40625
vt 0.78125 0.43750
vt 0.84375 0.34375
vt 0.84375 0.31250
vt 0.90625 0.31250
vt 0.90625 0.34375
vt 0.84375 0.43750
vt 0.84375 0.40625
vt 0.90625 0.40625
vt 0.90625 0.43750
vt 0.03125 0.56250
vt 0.03125 0.53125
vt 0.09375 0.53125
vt 0.09375 0.56250
vt 0.15625 0.56250
vt 0.15625 0.53125
vt 0.21875 0.53125
vt 0.21875 0.56250
vt 0.28125 0.56250
vt 0.28125 0.53125
vt 0.31250 0.53125
vt 0.31250 0.56250
vt 0.37500 0.56250
vt 0.37500 0.53125
vt 0.40625 0.53125
vt 0.40625 0.56250
vt 0.46875 0.56250
vt 0.46875 0.53125
vt 0.50000 0.53125
vt 0.50000 0.56250
vt 0.56250 0.56250
vt 0.56250 0.53125
vt 0.59375 0.53125
vt 0.59375 0.56250
vt 0.65625 0.56250
vt 0.65625 0.53125
vt 0.68750 0.53125
vt 0.68750 0.56250
vt 0.75000 0.56250
vt 0.75000 0.53125
vt 0.78125 0.53125
vt 0.78125 0.56250
vt 0.25000 0.46875
vt 0.31250 0.46875
vt 0.62500 0.43750
vt 0.75000 0.43750
vt 0.65625 0.40625
vt 0.71875 0.40625
vt 0.06250 0.46875
vt 0.12500 0.46875
vt 0.62500 0.34375
vt 0.75000 0.34375
vt 0.65625 0.31250
vt 0.71875 0.31250

g mtx_orcSword
usemtl sword4_Material
f 10/97/2 1/5/2 2/6/2
f 2/6/2 11/98/2 10/97/2
f 11/98/2 2/6/2 3/7/2
f 3/7/2 4/8/2 11/98/2
f 6/22/2 8/24/2 5/21/2
f 6/22/2 7/23/2 8/24/2
f 10/38/2 12/40/2 9/37/2
f 10/38/2 11/39/2 12/40/2
f 2/99/2 13/53/2 14/54/2
f 14/54/2 3/100/2 2/99/2
f 3/100/2 14/54/2 5/101/2
f 5/101/2 16/56/2 3/100/2
f 16/56/2 5/101/2 8/102/2
f 8/102/2 15/55/2 16/56/2
f 26/103/1 17/1/1 18/2/1
f 18/2/1 27/104/1 26/103/1
f 27/104/1 18/2/1 19/3/1
f 19/3/1 20/4/1 27/104/1
f 22/18/1 24/20/1 21/17/1
f 22/18/1 23/19/1 24/20/1
f 26/34/1 28/36/1 25/33/1
f 26/34/1 27/35/1 28/36/1
f 18/105/1 29/49/1 30/50/1
f 30/50/1 19/106/1 18/105/1
f 19/106/1 30/50/1 21/107/1
f 21/107/1 32/52/1 19/106/1
f 32/52/1 21/107/1 24/108/1
f 24/108/1 31/51/1 32/52/1
f 3/14/3 17/16/3 4/13/3
f 3/14/3 18/15/3 17/16/3
f 7/30/3 21/32/3 8/29/3
f 7/30/3 22/31/3 21/32/3
f 11/42/3 25/44/3 12/41/3
f 11/42/3 26/43/3 25/44/3
f 15/86/3 29/88/3 16/85/3
f 15/86/3 30/87/3 29/88/3
f 19/10/4 1/12/4 20/9/4
f 19/10/4 2/11/4 1/12/4
f 23/26/4 5/28/4 24/25/4
f 23/26/4 6/27/4 5/28/4
f 27/46/4 9/48/4 28/45/4
f 27/46/4 10/47/4 9/48/4
f 31/90/4 13/92/4 32/89/4
f 31/90/4 14/91/4 13/92/4
f 12/65/5 25/66/5 9/68/5
f 25/66/5 28/67/5 9/68/5
f 16/93/5 29/94/5 3/96/5
f 29/94/5 18/95/5 3/96/5
f 4/73/5 17/74/5 11/76/5
f 17/74/5 26/75/5 11/76/5
f 10/77/5 27/78/5 1/80/5
f 27/78/5 20/79/5 1/80/5
f 2/81/5 19/82/5 13/84/5
f 19/82/5 32/83/5 13/84/5
f 30/69/6 15/70/6 21/72/6
f 15/70/6 8/71/6 21/72/6
f 22/61/6 7/62/6 23/64/6
f 7/62/6 6/63/6 23/64/6
f 24/57/6 5/58/6 31/60/6
f 5/58/6 14/59/6 31/60/6
