# This file was created with Minddesk Qubicle 3.0
# Get Qubicle at www.getqubicle.com

mtllib sword2.mtl

vn 0.0 0.0 1.0
vn 0.0 0.0 -1.0
vn -1.0 0.0 0.0
vn 1.0 0.0 0.0
vn 0.0 1.0 0.0
vn 0.0 -1.0 0.0

v 3.00000 8.00000 -1.00000
v 3.00000 -4.00000 -1.00000
v -1.00000 -4.00000 -1.00000
v -1.00000 8.00000 -1.00000
v 2.00000 11.00000 -1.00000
v 2.00000 8.00000 -1.00000
v -1.00000 11.00000 -1.00000
v 1.00000 -10.00000 -1.00000
v 1.00000 -14.00000 -1.00000
v -1.00000 -14.00000 -1.00000
v -1.00000 -10.00000 -1.00000
v 2.00000 -14.00000 -2.00000
v 2.00000 -16.00000 -2.00000
v -2.00000 -16.00000 -2.00000
v -2.00000 -14.00000 -2.00000
v 2.00000 -4.00000 -1.00000
v 2.00000 -6.00000 -1.00000
v -1.00000 -6.00000 -1.00000
v 1.00000 -8.00000 -2.00000
v 1.00000 -10.00000 -2.00000
v -1.00000 -10.00000 -2.00000
v -1.00000 -8.00000 -2.00000
v 4.00000 -7.00000 -2.00000
v 4.00000 -8.00000 -2.00000
v -4.00000 -8.00000 -2.00000
v -4.00000 -7.00000 -2.00000
v 3.00000 -6.00000 -2.00000
v 3.00000 -7.00000 -2.00000
v -3.00000 -7.00000 -2.00000
v -3.00000 -6.00000 -2.00000
v -2.00000 -8.00000 -2.00000
v -2.00000 -9.00000 -2.00000
v -5.00000 -9.00000 -2.00000
v -5.00000 -8.00000 -2.00000
v 5.00000 -8.00000 -2.00000
v 5.00000 -9.00000 -2.00000
v 2.00000 -9.00000 -2.00000
v 2.00000 -8.00000 -2.00000
v -2.00000 15.00000 -1.00000
v -2.00000 14.00000 -1.00000
v -5.00000 14.00000 -1.00000
v -5.00000 15.00000 -1.00000
v -1.00000 14.00000 -1.00000
v -1.00000 13.00000 -1.00000
v -4.00000 13.00000 -1.00000
v -4.00000 14.00000 -1.00000
v 0.00000 13.00000 -1.00000
v 0.00000 12.00000 -1.00000
v -3.00000 12.00000 -1.00000
v -3.00000 13.00000 -1.00000
v 1.00000 12.00000 -1.00000
v 1.00000 11.00000 -1.00000
v -2.00000 11.00000 -1.00000
v -2.00000 12.00000 -1.00000
v -3.00000 -9.00000 -2.00000
v -3.00000 -10.00000 -2.00000
v -5.00000 -10.00000 -2.00000
v 5.00000 -10.00000 -2.00000
v 3.00000 -10.00000 -2.00000
v 3.00000 -9.00000 -2.00000
v -4.00000 16.00000 -1.00000
v -4.00000 15.00000 -1.00000
v -5.00000 16.00000 -1.00000
v -1.00000 8.00000 1.00000
v -1.00000 -4.00000 1.00000
v 3.00000 -4.00000 1.00000
v 3.00000 8.00000 1.00000
v -1.00000 11.00000 1.00000
v 2.00000 8.00000 1.00000
v 2.00000 11.00000 1.00000
v -1.00000 -10.00000 1.00000
v -1.00000 -14.00000 1.00000
v 1.00000 -14.00000 1.00000
v 1.00000 -10.00000 1.00000
v -1.00000 -6.00000 1.00000
v 2.00000 -6.00000 1.00000
v 2.00000 -4.00000 1.00000
v -2.00000 -14.00000 2.00000
v -2.00000 -16.00000 2.00000
v 2.00000 -16.00000 2.00000
v 2.00000 -14.00000 2.00000
v -1.00000 -8.00000 2.00000
v -1.00000 -10.00000 2.00000
v 1.00000 -10.00000 2.00000
v 1.00000 -8.00000 2.00000
v -4.00000 -7.00000 2.00000
v -4.00000 -8.00000 2.00000
v 4.00000 -8.00000 2.00000
v 4.00000 -7.00000 2.00000
v -3.00000 -6.00000 2.00000
v -3.00000 -7.00000 2.00000
v 3.00000 -7.00000 2.00000
v 3.00000 -6.00000 2.00000
v -5.00000 15.00000 1.00000
v -5.00000 14.00000 1.00000
v -2.00000 14.00000 1.00000
v -2.00000 15.00000 1.00000
v -4.00000 14.00000 1.00000
v -4.00000 13.00000 1.00000
v -1.00000 13.00000 1.00000
v -1.00000 14.00000 1.00000
v -3.00000 13.00000 1.00000
v -3.00000 12.00000 1.00000
v 0.00000 12.00000 1.00000
v 0.00000 13.00000 1.00000
v -2.00000 12.00000 1.00000
v -2.00000 11.00000 1.00000
v 1.00000 11.00000 1.00000
v 1.00000 12.00000 1.00000
v -5.00000 -8.00000 2.00000
v -5.00000 -9.00000 2.00000
v -2.00000 -9.00000 2.00000
v -2.00000 -8.00000 2.00000
v 2.00000 -8.00000 2.00000
v 2.00000 -9.00000 2.00000
v 5.00000 -9.00000 2.00000
v 5.00000 -8.00000 2.00000
v -5.00000 -10.00000 2.00000
v -3.00000 -10.00000 2.00000
v -3.00000 -9.00000 2.00000
v 3.00000 -9.00000 2.00000
v 3.00000 -10.00000 2.00000
v 5.00000 -10.00000 2.00000
v -5.00000 16.00000 1.00000
v -4.00000 15.00000 1.00000
v -4.00000 16.00000 1.00000
v -3.00000 -6.00000 -1.00000
v -3.00000 -6.00000 1.00000
v -2.00000 -14.00000 -1.00000
v -2.00000 -14.00000 1.00000
v 2.00000 -14.00000 1.00000
v 2.00000 -14.00000 -1.00000
v 3.00000 -6.00000 1.00000
v 3.00000 -6.00000 -1.00000

vt 0.01563 0.28125
vt 0.01563 0.01563
vt 0.04688 0.01563
vt 0.04688 0.28125
vt 0.07813 0.20313
vt 0.07813 0.01563
vt 0.14063 0.01563
vt 0.14063 0.20313
vt 0.17188 0.20313
vt 0.17188 0.01563
vt 0.23438 0.01563
vt 0.23438 0.20313
vt 0.26563 0.20313
vt 0.26563 0.01563
vt 0.29688 0.01563
vt 0.29688 0.20313
vt 0.32813 0.07813
vt 0.32813 0.01563
vt 0.39063 0.01563
vt 0.39063 0.07813
vt 0.42188 0.07813
vt 0.42188 0.01563
vt 0.45313 0.01563
vt 0.45313 0.07813
vt 0.48438 0.07813
vt 0.48438 0.01563
vt 0.51563 0.01563
vt 0.51563 0.07813
vt 0.54688 0.07813
vt 0.54688 0.01563
vt 0.57813 0.01563
vt 0.57813 0.07813
vt 0.60938 0.07813
vt 0.60938 0.01563
vt 0.64063 0.01563
vt 0.64063 0.07813
vt 0.67188 0.07813
vt 0.67188 0.01563
vt 0.70313 0.01563
vt 0.70313 0.07813
vt 0.73438 0.07813
vt 0.73438 0.01563
vt 0.76563 0.01563
vt 0.76563 0.07813
vt 0.79688 0.07813
vt 0.79688 0.01563
vt 0.81250 0.01563
vt 0.81250 0.07813
vt 0.84375 0.07813
vt 0.84375 0.01563
vt 0.85938 0.01563
vt 0.85938 0.07813
vt 0.89063 0.07813
vt 0.89063 0.01563
vt 0.90625 0.01563
vt 0.90625 0.07813
vt 0.93750 0.07813
vt 0.93750 0.01563
vt 0.95313 0.01563
vt 0.95313 0.07813
vt 0.32813 0.17188
vt 0.32813 0.10938
vt 0.34375 0.10938
vt 0.34375 0.17188
vt 0.37500 0.17188
vt 0.37500 0.10938
vt 0.39063 0.10938
vt 0.39063 0.17188
vt 0.42188 0.17188
vt 0.42188 0.10938
vt 0.43750 0.10938
vt 0.43750 0.17188
vt 0.46875 0.17188
vt 0.46875 0.10938
vt 0.48438 0.10938
vt 0.48438 0.17188
vt 0.51563 0.15625
vt 0.51563 0.10938
vt 0.56250 0.10938
vt 0.56250 0.15625
vt 0.59375 0.15625
vt 0.59375 0.10938
vt 0.64063 0.10938
vt 0.64063 0.15625
vt 0.67188 0.15625
vt 0.67188 0.10938
vt 0.70313 0.10938
vt 0.70313 0.15625
vt 0.73438 0.14063
vt 0.73438 0.10938
vt 0.79688 0.10938
vt 0.79688 0.14063
vt 0.82813 0.14063
vt 0.82813 0.10938
vt 0.89063 0.10938
vt 0.89063 0.14063
vt 0.92188 0.14063
vt 0.92188 0.10938
vt 0.98438 0.10938
vt 0.98438 0.14063
vt 0.07813 0.26563
vt 0.07813 0.23438
vt 0.14063 0.23438
vt 0.14063 0.26563
vt 0.17188 0.26563
vt 0.17188 0.23438
vt 0.23438 0.23438
vt 0.23438 0.26563
vt 0.26563 0.26563
vt 0.26563 0.23438
vt 0.32813 0.23438
vt 0.32813 0.26563
vt 0.35938 0.26563
vt 0.35938 0.23438
vt 0.42188 0.23438
vt 0.42188 0.26563
vt 0.45313 0.26563
vt 0.45313 0.23438
vt 0.51563 0.23438
vt 0.51563 0.26563
vt 0.54688 0.26563
vt 0.54688 0.23438
vt 0.59375 0.23438
vt 0.59375 0.26563
vt 0.62500 0.26563
vt 0.62500 0.23438
vt 0.67188 0.23438
vt 0.67188 0.26563
vt 0.70313 0.26563
vt 0.70313 0.23438
vt 0.73438 0.23438
vt 0.73438 0.26563
vt 0.76563 0.26563
vt 0.76563 0.23438
vt 0.79688 0.23438
vt 0.79688 0.26563
vt 0.82813 0.26563
vt 0.82813 0.23438
vt 0.85938 0.23438
vt 0.85938 0.26563
vt 0.89063 0.26563
vt 0.89063 0.23438
vt 0.92188 0.23438
vt 0.92188 0.26563
vt 0.95313 0.26563
vt 0.95313 0.23438
vt 0.98438 0.23438
vt 0.98438 0.26563
vt 0.01563 0.34375
vt 0.01563 0.31250
vt 0.04688 0.31250
vt 0.04688 0.34375
vt 0.07813 0.34375
vt 0.07813 0.31250
vt 0.09375 0.31250
vt 0.09375 0.34375
vt 0.12500 0.34375
vt 0.12500 0.31250
vt 0.14063 0.31250
vt 0.14063 0.34375
vt 0.17188 0.34375
vt 0.17188 0.31250
vt 0.18750 0.31250
vt 0.18750 0.34375
vt 0.21875 0.34375
vt 0.21875 0.31250
vt 0.23438 0.31250
vt 0.23438 0.34375
vt 0.26563 0.34375
vt 0.26563 0.31250
vt 0.28125 0.31250
vt 0.28125 0.34375
vt 0.31250 0.34375
vt 0.31250 0.31250
vt 0.32813 0.31250
vt 0.32813 0.34375
vt 0.35938 0.34375
vt 0.35938 0.31250
vt 0.37500 0.31250
vt 0.37500 0.34375
vt 0.40625 0.34375
vt 0.40625 0.31250
vt 0.42188 0.31250
vt 0.42188 0.34375
vt 0.45313 0.34375
vt 0.45313 0.31250
vt 0.46875 0.31250
vt 0.46875 0.34375
vt 0.50000 0.34375
vt 0.50000 0.31250
vt 0.51563 0.31250
vt 0.51563 0.34375
vt 0.54688 0.34375
vt 0.54688 0.31250
vt 0.56250 0.31250
vt 0.56250 0.34375
vt 0.59375 0.34375
vt 0.59375 0.31250
vt 0.60938 0.31250
vt 0.60938 0.34375
vt 0.64063 0.34375
vt 0.64063 0.31250
vt 0.65625 0.31250
vt 0.65625 0.34375
vt 0.68750 0.34375
vt 0.68750 0.31250
vt 0.70313 0.31250
vt 0.70313 0.34375
vt 0.73438 0.32813
vt 0.73438 0.31250
vt 0.85938 0.31250
vt 0.85938 0.32813
vt 0.01563 0.39063
vt 0.01563 0.37500
vt 0.14063 0.37500
vt 0.14063 0.39063
vt 0.89063 0.32813
vt 0.89063 0.31250
vt 0.98438 0.31250
vt 0.98438 0.32813
vt 0.17188 0.39063
vt 0.17188 0.37500
vt 0.26563 0.37500
vt 0.26563 0.39063
vt 0.29688 0.39063
vt 0.29688 0.37500
vt 0.39063 0.37500
vt 0.39063 0.39063
vt 0.42188 0.39063
vt 0.42188 0.37500
vt 0.51563 0.37500
vt 0.51563 0.39063
vt 0.54688 0.39063
vt 0.54688 0.37500
vt 0.60938 0.37500
vt 0.60938 0.39063
vt 0.64063 0.39063
vt 0.64063 0.37500
vt 0.70313 0.37500
vt 0.70313 0.39063
vt 0.73438 0.39063
vt 0.73438 0.37500
vt 0.79688 0.37500
vt 0.79688 0.39063
vt 0.82813 0.39063
vt 0.82813 0.37500
vt 0.89063 0.37500
vt 0.89063 0.39063
vt 0.92188 0.39063
vt 0.92188 0.37500
vt 0.98438 0.37500
vt 0.98438 0.39063
vt 0.01563 0.43750
vt 0.01563 0.42188
vt 0.07813 0.42188
vt 0.07813 0.43750
vt 0.10938 0.43750
vt 0.10938 0.42188
vt 0.17188 0.42188
vt 0.17188 0.43750
vt 0.20313 0.43750
vt 0.20313 0.42188
vt 0.26563 0.42188
vt 0.26563 0.43750
vt 0.29688 0.43750
vt 0.29688 0.42188
vt 0.35938 0.42188
vt 0.35938 0.43750
vt 0.39063 0.43750
vt 0.39063 0.42188
vt 0.45313 0.42188
vt 0.45313 0.43750
vt 0.48438 0.43750
vt 0.48438 0.42188
vt 0.53125 0.42188
vt 0.53125 0.43750
vt 0.56250 0.43750
vt 0.56250 0.42188
vt 0.60938 0.42188
vt 0.60938 0.43750
vt 0.64063 0.43750
vt 0.64063 0.42188
vt 0.68750 0.42188
vt 0.68750 0.43750
vt 0.71875 0.43750
vt 0.71875 0.42188
vt 0.76563 0.42188
vt 0.76563 0.43750
vt 0.79688 0.43750
vt 0.79688 0.42188
vt 0.84375 0.42188
vt 0.84375 0.43750
vt 0.87500 0.43750
vt 0.87500 0.42188
vt 0.92188 0.42188
vt 0.92188 0.43750
vt 0.01563 0.48438
vt 0.01563 0.46875
vt 0.06250 0.46875
vt 0.06250 0.48438
vt 0.09375 0.48438
vt 0.09375 0.46875
vt 0.14063 0.46875
vt 0.14063 0.48438
vt 0.17188 0.48438
vt 0.17188 0.46875
vt 0.21875 0.46875
vt 0.21875 0.48438
vt 0.25000 0.48438
vt 0.25000 0.46875
vt 0.29688 0.46875
vt 0.29688 0.48438
vt 0.32813 0.48438
vt 0.32813 0.46875
vt 0.37500 0.46875
vt 0.37500 0.48438
vt 0.40625 0.48438
vt 0.40625 0.46875
vt 0.45313 0.46875
vt 0.45313 0.48438
vt 0.95313 0.43750
vt 0.95313 0.42188
vt 0.98438 0.42188
vt 0.98438 0.43750
vt 0.48438 0.48438
vt 0.48438 0.46875
vt 0.51563 0.46875
vt 0.51563 0.48438
vt 0.54688 0.48438
vt 0.54688 0.46875
vt 0.57813 0.46875
vt 0.57813 0.48438
vt 0.60938 0.48438
vt 0.60938 0.46875
vt 0.64063 0.46875
vt 0.64063 0.48438
vt 0.67188 0.48438
vt 0.67188 0.46875
vt 0.70313 0.46875
vt 0.70313 0.48438
vt 0.73438 0.48438
vt 0.73438 0.46875
vt 0.76563 0.46875
vt 0.76563 0.48438
vt 0.79688 0.48438
vt 0.79688 0.46875
vt 0.82813 0.46875
vt 0.82813 0.48438
vt 0.85938 0.48438
vt 0.85938 0.46875
vt 0.89063 0.46875
vt 0.89063 0.48438
vt 0.92188 0.48438
vt 0.92188 0.46875
vt 0.95313 0.46875
vt 0.95313 0.48438
vt 0.01563 0.53125
vt 0.01563 0.51563
vt 0.04688 0.51563
vt 0.04688 0.53125
vt 0.07813 0.53125
vt 0.07813 0.51563
vt 0.10938 0.51563
vt 0.10938 0.53125
vt 0.14063 0.53125
vt 0.14063 0.51563
vt 0.17188 0.51563
vt 0.17188 0.53125
vt 0.20313 0.53125
vt 0.20313 0.51563
vt 0.23438 0.51563
vt 0.23438 0.53125
vt 0.26563 0.53125
vt 0.26563 0.51563
vt 0.29688 0.51563
vt 0.29688 0.53125
vt 0.32813 0.53125
vt 0.32813 0.51563
vt 0.34375 0.51563
vt 0.34375 0.53125
vt 0.37500 0.53125
vt 0.37500 0.51563
vt 0.39063 0.51563
vt 0.39063 0.53125
vt 0.09375 0.20313
vt 0.09375 0.01563
vt 0.53125 0.15625
vt 0.03125 0.39063
vt 0.12500 0.39063
vt 0.06250 0.37500
vt 0.09375 0.37500
vt 0.10938 0.37500
vt 0.04688 0.37500
vt 0.90625 0.43750
vt 0.89063 0.42188
vt 0.03125 0.48438
vt 0.04688 0.46875
vt 0.75000 0.43750
vt 0.75000 0.42188
vt 0.65625 0.43750
vt 0.67188 0.42188
vt 0.57813 0.43750
vt 0.59375 0.42188
vt 0.50000 0.43750
vt 0.51563 0.42188
vt 0.21875 0.20313
vt 0.21875 0.01563
vt 0.62500 0.15625
vt 0.75000 0.32813
vt 0.84375 0.32813
vt 0.78125 0.31250
vt 0.81250 0.31250
vt 0.76563 0.31250
vt 0.82813 0.31250
vt 0.26563 0.48438
vt 0.26563 0.46875
vt 0.20313 0.48438
vt 0.18750 0.46875
vt 0.35938 0.48438
vt 0.34375 0.46875
vt 0.43750 0.48438
vt 0.42188 0.46875
vt 0.10938 0.48438
vt 0.12500 0.46875
vt 0.82813 0.43750
vt 0.81250 0.42188
vt 0.04688 0.23438
vt 0.04688 0.04688
vt 0.01563 0.04688
vt 0.01563 0.23438
vt 0.23438 0.25000
vt 0.17188 0.25000
vt 0.28125 0.26563
vt 0.31250 0.26563
vt 0.46875 0.23438
vt 0.50000 0.23438
vt 0.73438 0.25000
vt 0.70313 0.25000
vt 0.03125 0.43750
vt 0.06250 0.43750
vt 0.96875 0.10938
vt 0.93750 0.10938
vt 0.84375 0.14063
vt 0.87500 0.14063
vt 0.79688 0.12500
vt 0.73438 0.12500
vt 0.93750 0.39063
vt 0.96875 0.39063
vt 0.37500 0.37500
vt 0.32813 0.37500
vt 0.20313 0.39063
vt 0.25000 0.39063
vt 0.59375 0.37500
vt 0.56250 0.37500
vt 0.84375 0.39063
vt 0.87500 0.39063

g mtx_sword2
usemtl sword2_Material
f 6/385/2 1/5/2 2/6/2
f 2/6/2 4/8/2 6/385/2
f 4/8/2 2/6/2 16/386/2
f 16/386/2 3/7/2 4/8/2
f 52/387/2 5/77/2 6/78/2
f 6/78/2 7/80/2 52/387/2
f 7/80/2 6/78/2 4/79/2
f 9/22/2 11/24/2 8/21/2
f 9/22/2 10/23/2 11/24/2
f 13/114/2 15/116/2 12/113/2
f 13/114/2 14/115/2 15/116/2
f 17/126/2 3/128/2 16/125/2
f 17/126/2 18/127/2 3/128/2
f 20/142/2 22/144/2 19/141/2
f 20/142/2 21/143/2 22/144/2
f 28/388/2 23/213/2 24/214/2
f 24/214/2 29/389/2 28/388/2
f 29/389/2 24/214/2 38/393/2
f 38/393/2 26/216/2 29/389/2
f 26/216/2 38/393/2 19/390/2
f 19/390/2 25/215/2 26/216/2
f 25/215/2 19/390/2 22/391/2
f 22/391/2 31/392/2 25/215/2
f 28/230/2 30/232/2 27/229/2
f 28/230/2 29/231/2 30/232/2
f 25/394/2 31/293/2 32/294/2
f 32/294/2 34/296/2 25/394/2
f 34/296/2 32/294/2 55/395/2
f 55/395/2 33/295/2 34/296/2
f 24/396/2 35/297/2 36/298/2
f 36/298/2 38/300/2 24/396/2
f 38/300/2 36/298/2 60/397/2
f 60/397/2 37/299/2 38/300/2
f 62/398/2 39/285/2 40/286/2
f 40/286/2 42/288/2 62/398/2
f 42/288/2 40/286/2 46/399/2
f 46/399/2 41/287/2 42/288/2
f 40/400/2 43/281/2 44/282/2
f 44/282/2 46/284/2 40/400/2
f 46/284/2 44/282/2 50/401/2
f 50/401/2 45/283/2 46/284/2
f 44/402/2 47/277/2 48/278/2
f 48/278/2 50/280/2 44/402/2
f 50/280/2 48/278/2 54/403/2
f 54/403/2 49/279/2 50/280/2
f 48/404/2 51/273/2 52/274/2
f 52/274/2 54/276/2 48/404/2
f 54/276/2 52/274/2 7/405/2
f 7/405/2 53/275/2 54/276/2
f 56/326/2 33/328/2 55/325/2
f 56/326/2 57/327/2 33/328/2
f 58/366/2 60/368/2 36/365/2
f 58/366/2 59/367/2 60/368/2
f 62/378/2 63/380/2 61/377/2
f 62/378/2 42/379/2 63/380/2
f 69/406/1 64/9/1 65/10/1
f 65/10/1 67/12/1 69/406/1
f 67/12/1 65/10/1 77/407/1
f 77/407/1 66/11/1 67/12/1
f 108/408/1 68/81/1 64/82/1
f 64/82/1 70/84/1 108/408/1
f 70/84/1 64/82/1 69/83/1
f 72/38/1 74/40/1 71/37/1
f 72/38/1 73/39/1 74/40/1
f 75/122/1 77/124/1 65/121/1
f 75/122/1 76/123/1 77/124/1
f 79/102/1 81/104/1 78/101/1
f 79/102/1 80/103/1 81/104/1
f 83/134/1 85/136/1 82/133/1
f 83/134/1 84/135/1 85/136/1
f 91/409/1 86/209/1 87/210/1
f 87/210/1 92/410/1 91/409/1
f 92/410/1 87/210/1 113/413/1
f 113/413/1 89/212/1 92/410/1
f 89/212/1 113/413/1 82/411/1
f 82/411/1 88/211/1 89/212/1
f 88/211/1 82/411/1 85/412/1
f 85/412/1 114/414/1 88/211/1
f 91/218/1 93/220/1 90/217/1
f 91/218/1 92/219/1 93/220/1
f 125/415/1 94/309/1 95/310/1
f 95/310/1 97/312/1 125/415/1
f 97/312/1 95/310/1 98/416/1
f 98/416/1 96/311/1 97/312/1
f 96/417/1 98/305/1 99/306/1
f 99/306/1 101/308/1 96/417/1
f 101/308/1 99/306/1 102/418/1
f 102/418/1 100/307/1 101/308/1
f 100/419/1 102/313/1 103/314/1
f 103/314/1 105/316/1 100/419/1
f 105/316/1 103/314/1 106/420/1
f 106/420/1 104/315/1 105/316/1
f 104/421/1 106/317/1 107/318/1
f 107/318/1 109/320/1 104/421/1
f 109/320/1 107/318/1 68/422/1
f 68/422/1 108/319/1 109/320/1
f 87/423/1 110/301/1 111/302/1
f 111/302/1 113/304/1 87/423/1
f 113/304/1 111/302/1 120/424/1
f 120/424/1 112/303/1 113/304/1
f 88/425/1 114/289/1 115/290/1
f 115/290/1 117/292/1 88/425/1
f 117/292/1 115/290/1 121/426/1
f 121/426/1 116/291/1 117/292/1
f 118/358/1 120/360/1 111/357/1
f 118/358/1 119/359/1 120/360/1
f 122/374/1 116/376/1 121/373/1
f 122/374/1 123/375/1 116/376/1
f 94/382/1 126/384/1 124/381/1
f 94/382/1 125/383/1 126/384/1
f 68/4/3 7/1/3 4/430/3
f 4/430/3 64/427/3 68/4/3
f 64/427/3 4/430/3 3/429/3
f 3/429/3 65/428/3 64/427/3
f 65/428/3 3/429/3 18/2/3
f 18/2/3 75/3/3 65/428/3
f 10/34/3 71/36/3 11/33/3
f 10/34/3 72/35/3 71/36/3
f 110/108/3 34/105/3 33/432/3
f 33/432/3 111/431/3 110/108/3
f 111/431/3 33/432/3 57/106/3
f 57/106/3 118/107/3 111/431/3
f 129/433/3 15/109/3 14/110/3
f 14/110/3 130/434/3 129/433/3
f 130/434/3 14/110/3 79/111/3
f 79/111/3 78/112/3 130/434/3
f 82/120/3 22/117/3 21/118/3
f 21/118/3 83/119/3 82/120/3
f 83/119/3 21/118/3 11/435/3
f 11/435/3 71/436/3 83/119/3
f 124/132/3 63/129/3 42/438/3
f 42/438/3 94/437/3 124/132/3
f 94/437/3 42/438/3 41/130/3
f 41/130/3 95/131/3 94/437/3
f 25/266/3 86/268/3 26/265/3
f 25/266/3 87/267/3 86/268/3
f 127/439/3 30/253/3 29/254/3
f 29/254/3 128/440/3 127/439/3
f 128/440/3 29/254/3 91/255/3
f 91/255/3 90/256/3 128/440/3
f 37/262/3 114/264/3 38/261/3
f 37/262/3 115/263/3 114/264/3
f 59/238/3 121/240/3 60/237/3
f 59/238/3 122/239/3 121/240/3
f 45/370/3 98/372/3 46/369/3
f 45/370/3 99/371/3 98/372/3
f 49/338/3 102/340/3 50/337/3
f 49/338/3 103/339/3 102/340/3
f 53/334/3 106/336/3 54/333/3
f 53/334/3 107/335/3 106/336/3
f 66/14/4 1/16/4 67/13/4
f 66/14/4 2/15/4 1/16/4
f 73/42/4 8/44/4 74/41/4
f 73/42/4 9/43/4 8/44/4
f 69/86/4 5/88/4 70/85/4
f 69/86/4 6/87/4 5/88/4
f 19/100/4 85/97/4 84/98/4
f 84/98/4 20/99/4 19/100/4
f 20/99/4 84/98/4 74/442/4
f 74/442/4 8/441/4 20/99/4
f 131/443/4 81/93/4 80/94/4
f 80/94/4 132/444/4 131/443/4
f 132/444/4 80/94/4 13/95/4
f 13/95/4 12/96/4 132/444/4
f 35/92/4 117/89/4 116/446/4
f 116/446/4 36/445/4 35/92/4
f 36/445/4 116/446/4 123/90/4
f 123/90/4 58/91/4 36/445/4
f 76/138/4 16/140/4 77/137/4
f 76/138/4 17/139/4 16/140/4
f 119/258/4 55/260/4 120/257/4
f 119/258/4 56/259/4 55/260/4
f 112/270/4 31/272/4 113/269/4
f 112/270/4 32/271/4 31/272/4
f 133/447/4 93/249/4 92/250/4
f 92/250/4 134/448/4 133/447/4
f 134/448/4 92/250/4 28/251/4
f 28/251/4 27/252/4 134/448/4
f 88/242/4 23/244/4 89/241/4
f 88/242/4 24/243/4 23/244/4
f 125/330/4 61/332/4 126/329/4
f 125/330/4 62/331/4 61/332/4
f 96/342/4 39/344/4 97/341/4
f 96/342/4 40/343/4 39/344/4
f 100/354/4 43/356/4 101/353/4
f 100/354/4 44/355/4 43/356/4
f 104/350/4 47/352/4 105/349/4
f 104/350/4 48/351/4 47/352/4
f 108/346/4 51/348/4 109/345/4
f 108/346/4 52/347/4 51/348/4
f 34/45/5 110/46/5 25/48/5
f 110/46/5 87/47/5 25/48/5
f 26/61/5 86/62/5 29/64/5
f 86/62/5 91/63/5 29/64/5
f 28/53/5 92/54/5 23/56/5
f 92/54/5 89/55/5 23/56/5
f 24/49/5 88/50/5 35/52/5
f 88/50/5 117/51/5 35/52/5
f 62/145/5 125/146/5 39/148/5
f 125/146/5 97/147/5 39/148/5
f 127/149/5 128/150/5 18/152/5
f 128/150/5 75/151/5 18/152/5
f 63/197/5 124/198/5 61/200/5
f 124/198/5 126/199/5 61/200/5
f 129/193/5 130/194/5 10/196/5
f 130/194/5 72/195/5 10/196/5
f 40/205/5 96/206/5 43/208/5
f 96/206/5 101/207/5 43/208/5
f 44/201/5 100/202/5 47/204/5
f 100/202/5 105/203/5 47/204/5
f 48/189/5 104/190/5 51/192/5
f 104/190/5 109/191/5 51/192/5
f 9/165/5 73/166/5 132/168/5
f 73/166/5 131/167/5 132/168/5
f 52/157/5 108/158/5 5/160/5
f 108/158/5 70/159/5 5/160/5
f 17/153/5 76/154/5 134/156/5
f 76/154/5 133/155/5 134/156/5
f 6/181/5 69/182/5 1/184/5
f 69/182/5 67/183/5 1/184/5
f 27/228/5 30/225/5 127/226/5
f 127/226/5 18/450/5 27/228/5
f 134/227/5 27/228/5 18/450/5
f 18/450/5 17/449/5 134/227/5
f 75/451/5 128/221/5 90/222/5
f 90/222/5 93/223/5 75/451/5
f 76/452/5 75/451/5 93/223/5
f 93/223/5 133/224/5 76/452/5
f 12/236/5 15/233/5 129/234/5
f 129/234/5 10/454/5 12/236/5
f 132/235/5 12/236/5 10/454/5
f 10/454/5 9/453/5 132/235/5
f 72/455/5 130/245/5 78/246/5
f 78/246/5 81/247/5 72/455/5
f 73/456/5 72/455/5 81/247/5
f 81/247/5 131/248/5 73/456/5
f 79/17/6 14/18/6 80/20/6
f 14/18/6 13/19/6 80/20/6
f 118/29/6 57/30/6 119/32/6
f 57/30/6 56/31/6 119/32/6
f 122/25/6 59/26/6 123/28/6
f 59/26/6 58/27/6 123/28/6
f 120/69/6 55/70/6 112/72/6
f 55/70/6 32/71/6 112/72/6
f 113/73/6 31/74/6 82/76/6
f 31/74/6 22/75/6 82/76/6
f 85/65/6 19/66/6 114/68/6
f 19/66/6 38/67/6 114/68/6
f 115/57/6 37/58/6 121/60/6
f 37/58/6 60/59/6 121/60/6
f 95/177/6 41/178/6 98/180/6
f 41/178/6 46/179/6 98/180/6
f 99/169/6 45/170/6 102/172/6
f 45/170/6 50/171/6 102/172/6
f 103/173/6 49/174/6 106/176/6
f 49/174/6 54/175/6 106/176/6
f 107/161/6 53/162/6 68/164/6
f 53/162/6 7/163/6 68/164/6
f 77/185/6 16/186/6 66/188/6
f 16/186/6 2/187/6 66/188/6
f 11/361/6 21/362/6 8/364/6
f 21/362/6 20/363/6 8/364/6
f 83/321/6 71/322/6 84/324/6
f 71/322/6 74/323/6 84/324/6
