# This file was created with Minddesk Qubicle 2.0
# Get Qubicle at www.minddesk.com

mtllib cityHouse2_stone.mtl

vn 0.0 0.0 1.0
vn 0.0 0.0 -1.0
vn -1.0 0.0 0.0
vn 1.0 0.0 0.0
vn 0.0 1.0 0.0
vn 0.0 -1.0 0.0

v 20.50000 23.50000 -16.50000
v 20.50000 2.50000 -16.50000
v -21.50000 2.50000 -16.50000
v -21.50000 23.50000 -16.50000
v 17.50000 26.50000 12.50000
v 17.50000 2.50000 12.50000
v -18.50000 2.50000 12.50000
v -18.50000 26.50000 12.50000
v -11.50000 40.50000 -13.50000
v -11.50000 32.50000 -13.50000
v -17.50000 32.50000 -13.50000
v -17.50000 40.50000 -13.50000
v 23.50000 2.50000 -19.50000
v 23.50000 -0.50000 -19.50000
v -24.50000 -0.50000 -19.50000
v -24.50000 2.50000 -19.50000
v 23.50000 26.50000 -19.50000
v 23.50000 23.50000 -19.50000
v -24.50000 23.50000 -19.50000
v -24.50000 26.50000 -19.50000
v 23.50000 29.50000 -16.50000
v 23.50000 26.50000 -16.50000
v -24.50000 26.50000 -16.50000
v -24.50000 29.50000 -16.50000
v 23.50000 32.50000 -13.50000
v 23.50000 29.50000 -13.50000
v -24.50000 29.50000 -13.50000
v -24.50000 32.50000 -13.50000
v 23.50000 35.50000 -10.50000
v 23.50000 32.50000 -10.50000
v -11.50000 32.50000 -10.50000
v -11.50000 35.50000 -10.50000
v 23.50000 38.50000 -7.50000
v 23.50000 35.50000 -7.50000
v -11.50000 35.50000 -7.50000
v -11.50000 38.50000 -7.50000
v -17.50000 35.50000 -10.50000
v -17.50000 32.50000 -10.50000
v -24.50000 32.50000 -10.50000
v -24.50000 35.50000 -10.50000
v -17.50000 38.50000 -7.50000
v -17.50000 35.50000 -7.50000
v -24.50000 35.50000 -7.50000
v -24.50000 38.50000 -7.50000
v 17.50000 26.50000 3.50000
v 17.50000 24.50000 3.50000
v -18.50000 24.50000 3.50000
v -18.50000 26.50000 3.50000
v -21.50000 23.50000 15.50000
v -21.50000 2.50000 15.50000
v 20.50000 2.50000 15.50000
v 20.50000 23.50000 15.50000
v -18.50000 24.50000 -13.50000
v -18.50000 2.50000 -13.50000
v 17.50000 2.50000 -13.50000
v 17.50000 24.50000 -13.50000
v -4.50000 35.50000 15.50000
v -4.50000 29.50000 15.50000
v 4.50000 29.50000 15.50000
v 4.50000 35.50000 15.50000
v -24.50000 2.50000 18.50000
v -24.50000 -0.50000 18.50000
v 23.50000 -0.50000 18.50000
v 23.50000 2.50000 18.50000
v -24.50000 26.50000 18.50000
v -24.50000 23.50000 18.50000
v 23.50000 23.50000 18.50000
v 23.50000 26.50000 18.50000
v -24.50000 29.50000 15.50000
v -24.50000 26.50000 15.50000
v 23.50000 26.50000 15.50000
v 23.50000 29.50000 15.50000
v -24.50000 32.50000 12.50000
v -24.50000 29.50000 12.50000
v -4.50000 29.50000 12.50000
v -4.50000 32.50000 12.50000
v -24.50000 35.50000 9.50000
v -24.50000 32.50000 9.50000
v -4.50000 32.50000 9.50000
v -4.50000 35.50000 9.50000
v -24.50000 38.50000 6.50000
v -24.50000 35.50000 6.50000
v -1.50000 35.50000 6.50000
v -1.50000 38.50000 6.50000
v 1.50000 38.50000 6.50000
v 1.50000 35.50000 6.50000
v 23.50000 35.50000 6.50000
v 23.50000 38.50000 6.50000
v 4.50000 32.50000 12.50000
v 4.50000 29.50000 12.50000
v 23.50000 29.50000 12.50000
v 23.50000 32.50000 12.50000
v 4.50000 35.50000 9.50000
v 4.50000 32.50000 9.50000
v 23.50000 32.50000 9.50000
v 23.50000 35.50000 9.50000
v -1.50000 38.50000 15.50000
v -1.50000 35.50000 15.50000
v 1.50000 35.50000 15.50000
v 1.50000 38.50000 15.50000
v -17.50000 40.50000 -7.50000
v -11.50000 40.50000 -7.50000
v -18.50000 25.50000 -10.50000
v -18.50000 24.50000 -10.50000
v 17.50000 24.50000 -10.50000
v 17.50000 25.50000 -10.50000
v -18.50000 25.50000 6.50000
v -18.50000 24.50000 6.50000
v 17.50000 24.50000 6.50000
v 17.50000 25.50000 6.50000
v -18.50000 26.50000 -7.50000
v -18.50000 25.50000 -7.50000
v 17.50000 25.50000 -7.50000
v 17.50000 26.50000 -7.50000
v -18.50000 26.50000 9.50000
v -18.50000 25.50000 9.50000
v 17.50000 25.50000 9.50000
v 17.50000 26.50000 9.50000
v 17.50000 24.50000 12.50000
v -17.50000 35.50000 -13.50000
v -4.50000 32.50000 15.50000
v 17.50000 25.50000 3.50000
v 17.50000 25.50000 12.50000
v -18.50000 24.50000 12.50000
v -11.50000 35.50000 -13.50000
v 4.50000 32.50000 15.50000
v -18.50000 25.50000 3.50000
v -18.50000 25.50000 12.50000
v -24.50000 2.50000 -16.50000
v -24.50000 2.50000 15.50000
v 23.50000 2.50000 15.50000
v 23.50000 2.50000 -16.50000
v -1.50000 35.50000 9.50000
v 1.50000 35.50000 9.50000
v -24.50000 23.50000 15.50000
v -24.50000 23.50000 -16.50000
v 23.50000 23.50000 -16.50000
v 23.50000 23.50000 15.50000

vt 0.00391 0.30469
vt 0.00391 0.00781
vt 0.19141 0.00781
vt 0.19141 0.30469
vt 0.19922 0.25781
vt 0.19922 0.00781
vt 0.21094 0.00781
vt 0.21094 0.25781
vt 0.21875 0.25781
vt 0.21875 0.00781
vt 0.23047 0.00781
vt 0.23047 0.25781
vt 0.23828 0.25781
vt 0.23828 0.00781
vt 0.25000 0.00781
vt 0.25000 0.25781
vt 0.25781 0.25781
vt 0.25781 0.00781
vt 0.26953 0.00781
vt 0.26953 0.25781
vt 0.27734 0.21094
vt 0.27734 0.00781
vt 0.41797 0.00781
vt 0.41797 0.21094
vt 0.42578 0.19531
vt 0.42578 0.00781
vt 0.56641 0.00781
vt 0.56641 0.19531
vt 0.57422 0.17969
vt 0.57422 0.00781
vt 0.71484 0.00781
vt 0.71484 0.17969
vt 0.72266 0.17969
vt 0.72266 0.00781
vt 0.82422 0.00781
vt 0.82422 0.17969
vt 0.83203 0.17969
vt 0.83203 0.00781
vt 0.93359 0.00781
vt 0.93359 0.17969
vt 0.00391 0.48438
vt 0.00391 0.32031
vt 0.16797 0.32031
vt 0.16797 0.48438
vt 0.17578 0.48438
vt 0.17578 0.32031
vt 0.33984 0.32031
vt 0.33984 0.48438
vt 0.34766 0.48438
vt 0.34766 0.32031
vt 0.47266 0.32031
vt 0.47266 0.48438
vt 0.48047 0.48438
vt 0.48047 0.32031
vt 0.60547 0.32031
vt 0.60547 0.48438
vt 0.61328 0.42969
vt 0.61328 0.32031
vt 0.80078 0.32031
vt 0.80078 0.42969
vt 0.80859 0.40625
vt 0.80859 0.32031
vt 0.94922 0.32031
vt 0.94922 0.40625
vt 0.94141 0.07813
vt 0.94141 0.00781
vt 0.95313 0.00781
vt 0.95313 0.07813
vt 0.96094 0.07031
vt 0.96094 0.00781
vt 0.98438 0.00781
vt 0.98438 0.07031
vt 0.94141 0.14063
vt 0.94141 0.09375
vt 0.97656 0.09375
vt 0.97656 0.14063
vt 0.95703 0.36719
vt 0.95703 0.32031
vt 0.98047 0.32031
vt 0.98047 0.36719
vt 0.98438 0.14063
vt 0.98438 0.09375
vt 0.99609 0.09375
vt 0.99609 0.14063
vt 0.00391 0.54688
vt 0.00391 0.50000
vt 0.01563 0.50000
vt 0.01563 0.54688
vt 0.61328 0.48438
vt 0.61328 0.44531
vt 0.63672 0.44531
vt 0.63672 0.48438
vt 0.64453 0.48438
vt 0.64453 0.44531
vt 0.66797 0.44531
vt 0.66797 0.48438
vt 0.27734 0.25000
vt 0.27734 0.22656
vt 0.46484 0.22656
vt 0.46484 0.25000
vt 0.47266 0.25000
vt 0.47266 0.22656
vt 0.66016 0.22656
vt 0.66016 0.25000
vt 0.66797 0.25000
vt 0.66797 0.22656
vt 0.85547 0.22656
vt 0.85547 0.25000
vt 0.19922 0.29688
vt 0.19922 0.27344
vt 0.38672 0.27344
vt 0.38672 0.29688
vt 0.39453 0.29688
vt 0.39453 0.27344
vt 0.58203 0.27344
vt 0.58203 0.29688
vt 0.58984 0.29688
vt 0.58984 0.27344
vt 0.77734 0.27344
vt 0.77734 0.29688
vt 0.78516 0.29688
vt 0.78516 0.27344
vt 0.97266 0.27344
vt 0.97266 0.29688
vt 0.67578 0.46875
vt 0.67578 0.44531
vt 0.86328 0.44531
vt 0.86328 0.46875
vt 0.02344 0.52344
vt 0.02344 0.50000
vt 0.21094 0.50000
vt 0.21094 0.52344
vt 0.21875 0.52344
vt 0.21875 0.50000
vt 0.40625 0.50000
vt 0.40625 0.52344
vt 0.41406 0.52344
vt 0.41406 0.50000
vt 0.60156 0.50000
vt 0.60156 0.52344
vt 0.60938 0.52344
vt 0.60938 0.50000
vt 0.79688 0.50000
vt 0.79688 0.52344
vt 0.80469 0.52344
vt 0.80469 0.50000
vt 0.99219 0.50000
vt 0.99219 0.52344
vt 0.00391 0.58594
vt 0.00391 0.56250
vt 0.19141 0.56250
vt 0.19141 0.58594
vt 0.19922 0.58594
vt 0.19922 0.56250
vt 0.34766 0.56250
vt 0.34766 0.58594
vt 0.35547 0.58594
vt 0.35547 0.56250
vt 0.50391 0.56250
vt 0.50391 0.58594
vt 0.51172 0.58594
vt 0.51172 0.56250
vt 0.66016 0.56250
vt 0.66016 0.58594
vt 0.66797 0.58594
vt 0.66797 0.56250
vt 0.81641 0.56250
vt 0.81641 0.58594
vt 0.82422 0.58594
vt 0.82422 0.56250
vt 0.96484 0.56250
vt 0.96484 0.58594
vt 0.00391 0.62500
vt 0.00391 0.60156
vt 0.14453 0.60156
vt 0.14453 0.62500
vt 0.15234 0.62500
vt 0.15234 0.60156
vt 0.29297 0.60156
vt 0.29297 0.62500
vt 0.30078 0.62500
vt 0.30078 0.60156
vt 0.44141 0.60156
vt 0.44141 0.62500
vt 0.44922 0.62500
vt 0.44922 0.60156
vt 0.58984 0.60156
vt 0.58984 0.62500
vt 0.59766 0.62500
vt 0.59766 0.60156
vt 0.73438 0.60156
vt 0.73438 0.62500
vt 0.74219 0.62500
vt 0.74219 0.60156
vt 0.87891 0.60156
vt 0.87891 0.62500
vt 0.00391 0.66406
vt 0.00391 0.64063
vt 0.14063 0.64063
vt 0.14063 0.66406
vt 0.14844 0.66406
vt 0.14844 0.64063
vt 0.28516 0.64063
vt 0.28516 0.66406
vt 0.86328 0.25000
vt 0.86328 0.22656
vt 0.98828 0.22656
vt 0.98828 0.25000
vt 0.87109 0.46875
vt 0.87109 0.44531
vt 0.99609 0.44531
vt 0.99609 0.46875
vt 0.88672 0.62500
vt 0.88672 0.60156
vt 0.98828 0.60156
vt 0.98828 0.62500
vt 0.29297 0.66406
vt 0.29297 0.64063
vt 0.39453 0.64063
vt 0.39453 0.66406
vt 0.40234 0.66406
vt 0.40234 0.64063
vt 0.49219 0.64063
vt 0.49219 0.66406
vt 0.50000 0.66406
vt 0.50000 0.64063
vt 0.58984 0.64063
vt 0.58984 0.66406
vt 0.59766 0.66406
vt 0.59766 0.64063
vt 0.68359 0.64063
vt 0.68359 0.66406
vt 0.69141 0.66406
vt 0.69141 0.64063
vt 0.77734 0.64063
vt 0.77734 0.66406
vt 0.78516 0.66406
vt 0.78516 0.64063
vt 0.86328 0.64063
vt 0.86328 0.66406
vt 0.87109 0.66406
vt 0.87109 0.64063
vt 0.94922 0.64063
vt 0.94922 0.66406
vt 0.00391 0.70313
vt 0.00391 0.67969
vt 0.08203 0.67969
vt 0.08203 0.70313
vt 0.08984 0.70313
vt 0.08984 0.67969
vt 0.16797 0.67969
vt 0.16797 0.70313
vt 0.17578 0.70313
vt 0.17578 0.67969
vt 0.25391 0.67969
vt 0.25391 0.70313
vt 0.26172 0.70313
vt 0.26172 0.67969
vt 0.33984 0.67969
vt 0.33984 0.70313
vt 0.34766 0.70313
vt 0.34766 0.67969
vt 0.42188 0.67969
vt 0.42188 0.70313
vt 0.42969 0.70313
vt 0.42969 0.67969
vt 0.50391 0.67969
vt 0.50391 0.70313
vt 0.51172 0.70313
vt 0.51172 0.67969
vt 0.58594 0.67969
vt 0.58594 0.70313
vt 0.59375 0.70313
vt 0.59375 0.67969
vt 0.66797 0.67969
vt 0.66797 0.70313
vt 0.94141 0.17969
vt 0.94141 0.15625
vt 0.99609 0.15625
vt 0.99609 0.17969
vt 0.67578 0.70313
vt 0.67578 0.67969
vt 0.73047 0.67969
vt 0.73047 0.70313
vt 0.95703 0.40625
vt 0.95703 0.38281
vt 0.99219 0.38281
vt 0.99219 0.40625
vt 0.95703 0.66406
vt 0.95703 0.64063
vt 0.99219 0.64063
vt 0.99219 0.66406
vt 0.73828 0.70313
vt 0.73828 0.67969
vt 0.76563 0.67969
vt 0.76563 0.70313
vt 0.77344 0.70313
vt 0.77344 0.67969
vt 0.80078 0.67969
vt 0.80078 0.70313
vt 0.80859 0.70313
vt 0.80859 0.67969
vt 0.83594 0.67969
vt 0.83594 0.70313
vt 0.84375 0.70313
vt 0.84375 0.67969
vt 0.87109 0.67969
vt 0.87109 0.70313
vt 0.97266 0.58594
vt 0.97266 0.56250
vt 0.99609 0.56250
vt 0.99609 0.58594
vt 0.87891 0.70313
vt 0.87891 0.67969
vt 0.90234 0.67969
vt 0.90234 0.70313
vt 0.98047 0.29688
vt 0.98047 0.27344
vt 0.99219 0.27344
vt 0.99219 0.29688
vt 0.91016 0.70313
vt 0.91016 0.67969
vt 0.92188 0.67969
vt 0.92188 0.70313
vt 0.92969 0.70313
vt 0.92969 0.67969
vt 0.94141 0.67969
vt 0.94141 0.70313
vt 0.94922 0.70313
vt 0.94922 0.67969
vt 0.96094 0.67969
vt 0.96094 0.70313
vt 0.96875 0.70313
vt 0.96875 0.67969
vt 0.98047 0.67969
vt 0.98047 0.70313
vt 0.00391 0.73438
vt 0.00391 0.71875
vt 0.14453 0.71875
vt 0.14453 0.73438
vt 0.15234 0.73438
vt 0.15234 0.71875
vt 0.17578 0.71875
vt 0.17578 0.73438
vt 0.80859 0.42969
vt 0.80859 0.42188
vt 0.94922 0.42188
vt 0.94922 0.42969
vt 0.02344 0.54688
vt 0.02344 0.53906
vt 0.16406 0.53906
vt 0.16406 0.54688
vt 0.17188 0.54688
vt 0.17188 0.53906
vt 0.31250 0.53906
vt 0.31250 0.54688
vt 0.32031 0.54688
vt 0.32031 0.53906
vt 0.46094 0.53906
vt 0.46094 0.54688
vt 0.46875 0.54688
vt 0.46875 0.53906
vt 0.52344 0.53906
vt 0.52344 0.54688
vt 0.53125 0.54688
vt 0.53125 0.53906
vt 0.58594 0.53906
vt 0.58594 0.54688
vt 0.59375 0.54688
vt 0.59375 0.53906
vt 0.63672 0.53906
vt 0.63672 0.54688
vt 0.64453 0.54688
vt 0.64453 0.53906
vt 0.68750 0.53906
vt 0.68750 0.54688
vt 0.95703 0.42969
vt 0.95703 0.42188
vt 0.98047 0.42188
vt 0.98047 0.42969
vt 0.69531 0.54688
vt 0.69531 0.53906
vt 0.71875 0.53906
vt 0.71875 0.54688
vt 0.72656 0.54688
vt 0.72656 0.53906
vt 0.73828 0.53906
vt 0.73828 0.54688
vt 0.74609 0.54688
vt 0.74609 0.53906
vt 0.75781 0.53906
vt 0.75781 0.54688
vt 0.56641 0.17969
vt 0.56641 0.18750
vt 0.42578 0.17969
vt 0.42578 0.18750
vt 0.98438 0.03125
vt 0.96094 0.03125
vt 0.41406 0.25000
vt 0.43750 0.25000
vt 0.14453 0.72656
vt 0.00391 0.72656
vt 0.95313 0.14063
vt 0.96484 0.14063
vt 0.97656 0.11719
vt 0.94141 0.11719
vt 0.86328 0.29688
vt 0.89844 0.29688
vt 0.78906 0.17969
vt 0.73438 0.17969
vt 0.80078 0.17969
vt 0.66797 0.46875
vt 0.65625 0.44531
vt 0.52344 0.58594
vt 0.64844 0.58594
vt 0.67969 0.58594
vt 0.80469 0.58594
vt 0.80469 0.56250
vt 0.67969 0.56250
vt 0.88281 0.46875
vt 0.98438 0.46875
vt 0.30469 0.66406
vt 0.38281 0.66406
vt 0.27344 0.70313
vt 0.32813 0.70313
vt 0.96875 0.38281
vt 0.98438 0.56250
vt 0.54297 0.54688
vt 0.70703 0.54688
vt 0.86719 0.17969
vt 0.92188 0.17969
vt 0.85547 0.17969
vt 0.62500 0.44531
vt 0.61328 0.46875
vt 0.36719 0.58594
vt 0.49219 0.58594
vt 0.33594 0.58594
vt 0.21094 0.58594
vt 0.33594 0.56250
vt 0.21094 0.56250
vt 0.97656 0.25000
vt 0.87500 0.25000
vt 0.97656 0.62500
vt 0.89844 0.62500
vt 0.24219 0.70313
vt 0.18750 0.70313
vt 0.98047 0.64063
vt 0.89063 0.67969
vt 0.51172 0.54688
vt 0.96875 0.42969
vt 0.70313 0.32031
vt 0.71484 0.32031
vt 0.66406 0.42969
vt 0.64063 0.42969
vt 0.17969 0.56250
vt 0.01563 0.56250
vt 0.03516 0.52344
vt 0.19922 0.52344
vt 0.57813 0.64063
vt 0.60938 0.64063
vt 0.64844 0.25000
vt 0.48438 0.25000
vt 0.81641 0.50000
vt 0.98047 0.50000

g mtx_cityHouse2_stone
usemtl cityHouse2_stone_Material
f  2/42/2 4/44/2 1/41/2
f  2/42/2 3/43/2 4/44/2
f  8/28/2 5/25/2 123/396/2
f  123/396/2 128/394/2 8/28/2
f  128/394/2 123/396/2 119/395/2
f  119/395/2 124/393/2 128/394/2
f  124/393/2 119/395/2 6/26/2
f  6/26/2 7/27/2 124/393/2
f  12/72/2 9/69/2 125/398/2
f  125/398/2 120/397/2 12/72/2
f  120/397/2 125/398/2 10/70/2
f  10/70/2 11/71/2 120/397/2
f  14/114/2 16/116/2 13/113/2
f  14/114/2 15/115/2 16/116/2
f  18/106/2 20/108/2 17/105/2
f  18/106/2 19/107/2 20/108/2
f  22/110/2 24/112/2 21/109/2
f  22/110/2 23/111/2 24/112/2
f  10/399/2 25/97/2 26/98/2
f  26/98/2 11/400/2 10/399/2
f  11/400/2 26/98/2 27/99/2
f  27/99/2 28/100/2 11/400/2
f  30/194/2 32/196/2 29/193/2
f  30/194/2 31/195/2 32/196/2
f  34/198/2 36/200/2 33/197/2
f  34/198/2 35/199/2 36/200/2
f  38/294/2 40/296/2 37/293/2
f  38/294/2 39/295/2 40/296/2
f  42/298/2 44/300/2 41/297/2
f  42/298/2 43/299/2 44/300/2
f  48/340/2 45/337/2 122/402/2
f  122/402/2 127/401/2 48/340/2
f  127/401/2 122/402/2 46/338/2
f  46/338/2 47/339/2 127/401/2
f  50/46/1 52/48/1 49/45/1
f  50/46/1 51/47/1 52/48/1
f  54/30/1 56/32/1 53/29/1
f  54/30/1 55/31/1 56/32/1
f  98/403/1 57/73/1 121/406/1
f  121/406/1 99/404/1 98/403/1
f  99/404/1 121/406/1 58/74/1
f  58/74/1 60/76/1 99/404/1
f  60/76/1 58/74/1 59/75/1
f  59/75/1 126/405/1 60/76/1
f  62/142/1 64/144/1 61/141/1
f  62/142/1 63/143/1 64/144/1
f  66/118/1 68/120/1 65/117/1
f  66/118/1 67/119/1 68/120/1
f  58/407/1 69/121/1 70/122/1
f  70/122/1 59/408/1 58/407/1
f  59/408/1 70/122/1 71/123/1
f  71/123/1 72/124/1 59/408/1
f  74/242/1 76/244/1 73/241/1
f  74/242/1 75/243/1 76/244/1
f  78/238/1 80/240/1 77/237/1
f  78/238/1 79/239/1 80/240/1
f  82/222/1 84/224/1 81/221/1
f  82/222/1 83/223/1 84/224/1
f  86/234/1 88/236/1 85/233/1
f  86/234/1 87/235/1 88/236/1
f  90/262/1 92/264/1 89/261/1
f  90/262/1 91/263/1 92/264/1
f  94/274/1 96/276/1 93/273/1
f  94/274/1 95/275/1 96/276/1
f  98/334/1 100/336/1 97/333/1
f  98/334/1 99/335/1 100/336/1
f  41/342/1 102/344/1 101/341/1
f  41/342/1 36/343/1 102/344/1
f  104/346/1 106/348/1 103/345/1
f  104/346/1 105/347/1 106/348/1
f  108/358/1 110/360/1 107/357/1
f  108/358/1 109/359/1 110/360/1
f  112/354/1 114/356/1 111/353/1
f  112/354/1 113/355/1 114/356/1
f  116/350/1 118/352/1 115/349/1
f  116/350/1 117/351/1 118/352/1
f  3/50/3 49/52/3 4/49/3
f  3/50/3 50/51/3 49/52/3
f  105/410/3 56/33/3 55/34/3
f  55/34/3 46/409/3 105/410/3
f  46/409/3 55/34/3 6/35/3
f  6/35/3 109/411/3 46/409/3
f  109/411/3 6/35/3 119/36/3
f  101/96/3 12/93/3 120/94/3
f  120/94/3 41/412/3 101/96/3
f  41/412/3 120/94/3 37/413/3
f  37/413/3 42/95/3 41/412/3
f  129/414/3 16/161/3 15/162/3
f  15/162/3 130/415/3 129/414/3
f  130/415/3 15/162/3 62/163/3
f  62/163/3 61/164/3 130/415/3
f  23/416/3 20/165/3 19/166/3
f  19/166/3 70/417/3 23/416/3
f  70/417/3 19/166/3 136/419/3
f  136/419/3 65/168/3 70/417/3
f  65/168/3 136/419/3 135/418/3
f  135/418/3 66/167/3 65/168/3
f  27/420/3 24/209/3 23/210/3
f  23/210/3 74/421/3 27/420/3
f  74/421/3 23/210/3 70/211/3
f  70/211/3 69/212/3 74/421/3
f  39/422/3 28/217/3 27/218/3
f  27/218/3 78/423/3 39/422/3
f  78/423/3 27/218/3 74/219/3
f  74/219/3 73/220/3 78/423/3
f  43/424/3 40/257/3 39/258/3
f  39/258/3 82/425/3 43/424/3
f  82/425/3 39/258/3 78/259/3
f  78/259/3 77/260/3 82/425/3
f  43/282/3 81/284/3 44/281/3
f  43/282/3 82/283/3 81/284/3
f  97/288/3 84/285/3 83/286/3
f  83/286/3 98/287/3 97/288/3
f  98/287/3 83/286/3 133/426/3
f  57/312/3 80/309/3 79/310/3
f  79/310/3 121/311/3 57/312/3
f  121/311/3 79/310/3 76/427/3
f  11/322/3 37/324/3 120/321/3
f  11/322/3 38/323/3 37/324/3
f  75/318/3 121/320/3 76/317/3
f  75/318/3 58/319/3 121/320/3
f  113/428/3 106/365/3 105/366/3
f  105/366/3 122/368/3 113/428/3
f  122/368/3 105/366/3 46/367/3
f  113/374/3 45/376/3 114/373/3
f  113/374/3 122/375/3 45/376/3
f  117/429/3 110/381/3 109/382/3
f  109/382/3 123/384/3 117/429/3
f  123/384/3 109/382/3 119/383/3
f  117/390/3 5/392/3 118/389/3
f  117/390/3 123/391/3 5/392/3
f  108/432/4 124/37/4 7/38/4
f  7/38/4 47/430/4 108/432/4
f  47/430/4 7/38/4 54/39/4
f  54/39/4 104/431/4 47/430/4
f  104/431/4 54/39/4 53/40/4
f  51/54/4 1/56/4 52/53/4
f  51/54/4 2/55/4 1/56/4
f  9/92/4 102/89/4 36/434/4
f  36/434/4 125/91/4 9/92/4
f  125/91/4 36/434/4 35/90/4
f  35/90/4 32/433/4 125/91/4
f  131/435/4 64/157/4 63/158/4
f  63/158/4 132/436/4 131/435/4
f  132/436/4 63/158/4 14/159/4
f  14/159/4 13/160/4 132/436/4
f  71/438/4 68/153/4 67/154/4
f  67/154/4 22/437/4 71/438/4
f  22/437/4 67/154/4 138/440/4
f  138/440/4 17/156/4 22/437/4
f  17/156/4 138/440/4 137/439/4
f  137/439/4 18/155/4 17/156/4
f  91/442/4 72/205/4 71/206/4
f  71/206/4 26/441/4 91/442/4
f  26/441/4 71/206/4 22/207/4
f  22/207/4 21/208/4 26/441/4
f  95/444/4 92/213/4 91/214/4
f  91/214/4 30/443/4 95/444/4
f  30/443/4 91/214/4 26/215/4
f  26/215/4 25/216/4 30/443/4
f  87/446/4 96/253/4 95/254/4
f  95/254/4 34/445/4 87/446/4
f  34/445/4 95/254/4 30/255/4
f  30/255/4 29/256/4 34/445/4
f  85/292/4 100/289/4 99/290/4
f  99/290/4 86/291/4 85/292/4
f  86/291/4 99/290/4 134/447/4
f  87/278/4 33/280/4 88/277/4
f  87/278/4 34/279/4 33/280/4
f  93/316/4 60/313/4 126/314/4
f  126/314/4 94/315/4 93/316/4
f  94/315/4 126/314/4 89/448/4
f  31/326/4 125/328/4 32/325/4
f  31/326/4 10/327/4 125/328/4
f  59/330/4 89/332/4 126/329/4
f  59/330/4 90/331/4 89/332/4
f  112/449/4 127/361/4 47/362/4
f  47/362/4 103/364/4 112/449/4
f  103/364/4 47/362/4 104/363/4
f  127/370/4 111/372/4 48/369/4
f  127/370/4 112/371/4 111/372/4
f  116/450/4 128/377/4 124/378/4
f  124/378/4 107/380/4 116/450/4
f  107/380/4 124/378/4 108/379/4
f  128/386/4 115/388/4 8/385/4
f  128/386/4 116/387/4 115/388/4
f  54/21/5 7/22/5 55/24/5
f  7/22/5 6/23/5 55/24/5
f  129/9/5 130/10/5 3/12/5
f  130/10/5 50/11/5 3/12/5
f  2/17/5 51/18/5 132/20/5
f  51/18/5 131/19/5 132/20/5
f  41/454/5 44/57/5 81/58/5
f  81/58/5 84/451/5 41/454/5
f  36/453/5 41/454/5 84/451/5
f  84/451/5 85/452/5 36/453/5
f  33/60/5 36/453/5 85/452/5
f  85/452/5 88/59/5 33/60/5
f  84/65/5 97/66/5 85/68/5
f  97/66/5 100/67/5 85/68/5
f  12/77/5 101/78/5 9/80/5
f  101/78/5 102/79/5 9/80/5
f  80/81/5 57/82/5 133/84/5
f  57/82/5 98/83/5 133/84/5
f  134/85/5 99/86/5 93/88/5
f  99/86/5 60/87/5 93/88/5
f  13/152/5 16/149/5 129/150/5
f  129/150/5 3/456/5 13/152/5
f  132/151/5 13/152/5 3/456/5
f  3/456/5 2/455/5 132/151/5
f  50/457/5 130/129/5 61/130/5
f  61/130/5 64/131/5 50/457/5
f  51/458/5 50/457/5 64/131/5
f  64/131/5 131/132/5 51/458/5
f  20/125/5 23/126/5 17/128/5
f  23/126/5 22/127/5 17/128/5
f  70/137/5 65/138/5 71/140/5
f  65/138/5 68/139/5 71/140/5
f  24/133/5 27/134/5 21/136/5
f  27/134/5 26/135/5 21/136/5
f  10/189/5 31/190/5 25/192/5
f  31/190/5 30/191/5 25/192/5
f  32/201/5 35/202/5 29/204/5
f  35/202/5 34/203/5 29/204/5
f  74/245/5 69/246/5 75/248/5
f  69/246/5 58/247/5 75/248/5
f  78/249/5 73/250/5 79/252/5
f  73/250/5 76/251/5 79/252/5
f  83/228/5 82/225/5 77/226/5
f  77/226/5 80/459/5 83/228/5
f  133/227/5 83/228/5 80/459/5
f  87/232/5 86/229/5 134/230/5
f  134/230/5 93/460/5 87/232/5
f  96/231/5 87/232/5 93/460/5
f  90/269/5 59/270/5 91/272/5
f  59/270/5 72/271/5 91/272/5
f  94/265/5 89/266/5 95/268/5
f  89/266/5 92/267/5 95/268/5
f  28/301/5 39/302/5 11/304/5
f  39/302/5 38/303/5 11/304/5
f  40/305/5 43/306/5 37/308/5
f  43/306/5 42/307/5 37/308/5
f  62/1/6 15/2/6 63/4/6
f  15/2/6 14/3/6 63/4/6
f  135/5/6 136/6/6 49/8/6
f  136/6/6 4/7/6 49/8/6
f  52/13/6 1/14/6 138/16/6
f  1/14/6 137/15/6 138/16/6
f  48/61/6 111/62/6 45/64/6
f  111/62/6 114/63/6 45/64/6
f  4/462/6 136/101/6 19/102/6
f  19/102/6 18/103/6 4/462/6
f  1/461/6 4/462/6 18/103/6
f  18/103/6 137/104/6 1/461/6
f  67/148/6 66/145/6 135/146/6
f  135/146/6 49/463/6 67/148/6
f  138/147/6 67/148/6 49/463/6
f  49/463/6 52/464/6 138/147/6
f  104/185/6 53/186/6 105/188/6
f  53/186/6 56/187/6 105/188/6
f  108/169/6 47/170/6 109/172/6
f  47/170/6 46/171/6 109/172/6
f  112/181/6 103/182/6 113/184/6
f  103/182/6 106/183/6 113/184/6
f  116/173/6 107/174/6 117/176/6
f  107/174/6 110/175/6 117/176/6
f  8/177/6 115/178/6 5/180/6
f  115/178/6 118/179/6 5/180/6
