# This file was created with Minddesk Qubicle 2.0
# Get Qubicle at www.minddesk.com

mtllib env_cityWall_corner.mtl

vn 0.0 0.0 1.0
vn 0.0 0.0 -1.0
vn -1.0 0.0 0.0
vn 1.0 0.0 0.0
vn 0.0 1.0 0.0
vn 0.0 -1.0 0.0

v 9.50000 29.50000 -10.50000
v 9.50000 -0.50000 -10.50000
v -10.50000 -0.50000 -10.50000
v -10.50000 29.50000 -10.50000
v -5.50000 34.50000 -10.50000
v -5.50000 29.50000 -10.50000
v -10.50000 34.50000 -10.50000
v 4.50000 34.50000 -10.50000
v 4.50000 29.50000 -10.50000
v -0.50000 29.50000 -10.50000
v -0.50000 34.50000 -10.50000
v 9.50000 34.50000 -4.50000
v 9.50000 29.50000 -4.50000
v 5.50000 29.50000 -4.50000
v 5.50000 34.50000 -4.50000
v 9.50000 34.50000 4.50000
v 9.50000 29.50000 4.50000
v 5.50000 29.50000 4.50000
v 5.50000 34.50000 4.50000
v -10.50000 24.50000 9.50000
v -10.50000 -0.50000 9.50000
v 9.50000 -0.50000 9.50000
v 9.50000 24.50000 9.50000
v 5.50000 34.50000 9.50000
v 5.50000 24.50000 9.50000
v 9.50000 34.50000 9.50000
v -10.50000 29.50000 -6.50000
v -10.50000 24.50000 -6.50000
v 5.50000 24.50000 -6.50000
v 5.50000 29.50000 -6.50000
v -10.50000 34.50000 -6.50000
v -5.50000 29.50000 -6.50000
v -5.50000 34.50000 -6.50000
v -0.50000 34.50000 -6.50000
v -0.50000 29.50000 -6.50000
v 4.50000 29.50000 -6.50000
v 4.50000 34.50000 -6.50000
v 5.50000 34.50000 0.50000
v 5.50000 29.50000 0.50000
v 9.50000 29.50000 0.50000
v 9.50000 34.50000 0.50000
v -10.50000 24.50000 -10.50000
v 5.50000 29.50000 9.50000
v 9.50000 29.50000 9.50000
v 9.50000 29.50000 -6.50000

vt 0.00781 0.48438
vt 0.00781 0.01563
vt 0.16406 0.01563
vt 0.16406 0.48438
vt 0.17969 0.48438
vt 0.17969 0.01563
vt 0.33594 0.01563
vt 0.33594 0.48438
vt 0.35156 0.40625
vt 0.35156 0.01563
vt 0.50781 0.01563
vt 0.50781 0.40625
vt 0.52344 0.40625
vt 0.52344 0.01563
vt 0.67969 0.01563
vt 0.67969 0.40625
vt 0.69531 0.32813
vt 0.69531 0.01563
vt 0.85156 0.01563
vt 0.85156 0.32813
vt 0.86719 0.26563
vt 0.86719 0.01563
vt 0.99219 0.01563
vt 0.99219 0.26563
vt 0.00781 0.67188
vt 0.00781 0.51563
vt 0.03906 0.51563
vt 0.03906 0.67188
vt 0.05469 0.67188
vt 0.05469 0.51563
vt 0.08594 0.51563
vt 0.08594 0.67188
vt 0.10156 0.59375
vt 0.10156 0.51563
vt 0.22656 0.51563
vt 0.22656 0.59375
vt 0.24219 0.59375
vt 0.24219 0.51563
vt 0.36719 0.51563
vt 0.36719 0.59375
vt 0.38281 0.59375
vt 0.38281 0.51563
vt 0.42188 0.51563
vt 0.42188 0.59375
vt 0.43750 0.59375
vt 0.43750 0.51563
vt 0.47656 0.51563
vt 0.47656 0.59375
vt 0.49219 0.59375
vt 0.49219 0.51563
vt 0.53125 0.51563
vt 0.53125 0.59375
vt 0.54688 0.59375
vt 0.54688 0.51563
vt 0.58594 0.51563
vt 0.58594 0.59375
vt 0.60156 0.59375
vt 0.60156 0.51563
vt 0.64063 0.51563
vt 0.64063 0.59375
vt 0.65625 0.59375
vt 0.65625 0.51563
vt 0.69531 0.51563
vt 0.69531 0.59375
vt 0.71094 0.59375
vt 0.71094 0.51563
vt 0.75000 0.51563
vt 0.75000 0.59375
vt 0.76563 0.59375
vt 0.76563 0.51563
vt 0.80469 0.51563
vt 0.80469 0.59375
vt 0.82031 0.59375
vt 0.82031 0.51563
vt 0.85156 0.51563
vt 0.85156 0.59375
vt 0.86719 0.59375
vt 0.86719 0.51563
vt 0.89844 0.51563
vt 0.89844 0.59375
vt 0.91406 0.59375
vt 0.91406 0.51563
vt 0.94531 0.51563
vt 0.94531 0.59375
vt 0.96094 0.59375
vt 0.96094 0.51563
vt 0.99219 0.51563
vt 0.99219 0.59375
vt 0.00781 0.78125
vt 0.00781 0.70313
vt 0.03906 0.70313
vt 0.03906 0.78125
vt 0.05469 0.78125
vt 0.05469 0.70313
vt 0.08594 0.70313
vt 0.08594 0.78125
vt 0.10156 0.78125
vt 0.10156 0.70313
vt 0.13281 0.70313
vt 0.13281 0.78125
vt 0.14844 0.78125
vt 0.14844 0.70313
vt 0.17969 0.70313
vt 0.17969 0.78125
vt 0.19531 0.76563
vt 0.19531 0.70313
vt 0.23438 0.70313
vt 0.23438 0.76563
vt 0.25000 0.76563
vt 0.25000 0.70313
vt 0.28906 0.70313
vt 0.28906 0.76563
vt 0.30469 0.76563
vt 0.30469 0.70313
vt 0.34375 0.70313
vt 0.34375 0.76563
vt 0.35938 0.76563
vt 0.35938 0.70313
vt 0.39844 0.70313
vt 0.39844 0.76563
vt 0.41406 0.76563
vt 0.41406 0.70313
vt 0.44531 0.70313
vt 0.44531 0.76563
vt 0.86719 0.32813
vt 0.86719 0.29688
vt 0.89844 0.29688
vt 0.89844 0.32813
vt 0.12500 0.48438
vt 0.04688 0.48438
vt 0.08594 0.48438
vt 0.16406 0.40625
vt 0.47656 0.40625
vt 0.08594 0.59375
vt 0.05469 0.59375
vt 0.28125 0.59375
vt 0.32031 0.59375
vt 0.35938 0.59375
vt 0.55469 0.40625
vt 0.03906 0.59375
vt 0.00781 0.59375
vt 0.11719 0.59375
vt 0.18750 0.59375
vt 0.15625 0.59375
vt 0.28906 0.48438
vt 0.21875 0.48438
vt 0.25000 0.48438
vt 0.30469 0.48438
vt 0.17969 0.40625
vt 0.20313 0.70313

g mtx_cityWall_corner
usemtl env_cityWall_corner_Material
f  9/130/2 1/1/2 2/2/2
f  2/2/2 10/131/2 9/130/2
f  10/131/2 2/2/2 3/3/2
f  3/3/2 6/129/2 10/131/2
f  6/129/2 3/3/2 42/132/2
f  42/132/2 4/4/2 6/129/2
f  6/54/2 7/56/2 5/53/2
f  6/54/2 4/55/2 7/56/2
f  9/50/2 11/52/2 8/49/2
f  9/50/2 10/51/2 11/52/2
f  13/86/2 15/88/2 12/85/2
f  13/86/2 14/87/2 15/88/2
f  17/82/2 19/84/2 16/81/2
f  17/82/2 18/83/2 19/84/2
f  25/133/1 20/9/1 21/10/1
f  21/10/1 23/12/1 25/133/1
f  23/12/1 21/10/1 22/11/1
f  26/32/1 24/29/1 43/135/1
f  43/135/1 44/134/1 26/32/1
f  44/134/1 43/135/1 25/30/1
f  25/30/1 23/31/1 44/134/1
f  32/136/1 27/37/1 28/38/1
f  28/38/1 35/137/1 32/136/1
f  35/137/1 28/38/1 29/39/1
f  29/39/1 36/138/1 35/137/1
f  36/138/1 29/39/1 30/40/1
f  27/62/1 33/64/1 31/61/1
f  27/62/1 32/63/1 33/64/1
f  35/58/1 37/60/1 34/57/1
f  35/58/1 36/59/1 37/60/1
f  39/98/1 41/100/1 38/97/1
f  39/98/1 40/99/1 41/100/1
f  28/139/3 42/13/3 3/14/3
f  3/14/3 20/16/3 28/139/3
f  20/16/3 3/14/3 21/15/3
f  31/28/3 7/25/3 4/141/3
f  4/141/3 27/140/3 31/28/3
f  27/140/3 4/141/3 42/26/3
f  42/26/3 28/27/3 27/140/3
f  14/142/3 30/33/3 29/34/3
f  29/34/3 39/144/3 14/142/3
f  39/144/3 29/34/3 25/35/3
f  25/35/3 18/143/3 39/144/3
f  18/143/3 25/35/3 43/36/3
f  14/46/3 38/48/3 15/45/3
f  14/46/3 39/47/3 38/48/3
f  18/42/3 24/44/3 19/41/3
f  18/42/3 43/43/3 24/44/3
f  10/90/3 34/92/3 11/89/3
f  10/90/3 35/91/3 34/92/3
f  17/146/4 44/5/4 23/149/4
f  23/149/4 40/147/4 17/146/4
f  40/147/4 23/149/4 22/6/4
f  22/6/4 13/145/4 40/147/4
f  13/145/4 22/6/4 2/7/4
f  2/7/4 45/148/4 13/145/4
f  45/148/4 2/7/4 1/8/4
f  40/70/4 12/72/4 41/69/4
f  40/70/4 13/71/4 12/72/4
f  44/66/4 16/68/4 26/65/4
f  44/66/4 17/67/4 16/68/4
f  32/94/4 5/96/4 33/93/4
f  32/94/4 6/95/4 5/96/4
f  36/102/4 8/104/4 37/101/4
f  36/102/4 9/103/4 8/104/4
f  28/21/5 20/22/5 29/24/5
f  20/22/5 25/23/5 29/24/5
f  15/77/5 38/78/5 12/80/5
f  38/78/5 41/79/5 12/80/5
f  19/73/5 24/74/5 16/76/5
f  24/74/5 26/75/5 16/76/5
f  7/109/5 31/110/5 5/112/5
f  31/110/5 33/111/5 5/112/5
f  6/113/5 32/114/5 10/116/5
f  32/114/5 35/115/5 10/116/5
f  11/117/5 34/118/5 8/120/5
f  34/118/5 37/119/5 8/120/5
f  1/108/5 9/105/5 36/106/5
f  36/106/5 30/150/5 1/108/5
f  45/107/5 1/108/5 30/150/5
f  39/121/5 18/122/5 40/124/5
f  18/122/5 17/123/5 40/124/5
f  30/125/5 14/126/5 45/128/5
f  14/126/5 13/127/5 45/128/5
f  21/17/6 3/18/6 22/20/6
f  3/18/6 2/19/6 22/20/6
