# This file was created with Minddesk Qubicle 3.0
# Get Qubicle at www.getqubicle.com

mtllib cudgel3.mtl

vn 0.0 0.0 1.0
vn 0.0 0.0 -1.0
vn -1.0 0.0 0.0
vn 1.0 0.0 0.0
vn 0.0 1.0 0.0
vn 0.0 -1.0 0.0

v 2.00000 3.00000 -2.00000
v 2.00000 -2.00000 -2.00000
v -2.00000 -2.00000 -2.00000
v -2.00000 3.00000 -2.00000
v 1.00000 -4.00000 -1.00000
v 1.00000 -10.00000 -1.00000
v -1.00000 -10.00000 -1.00000
v -1.00000 -4.00000 -1.00000
v 3.00000 7.00000 -3.00000
v 3.00000 3.00000 -3.00000
v -3.00000 3.00000 -3.00000
v -3.00000 7.00000 -3.00000
v 4.00000 9.00000 -4.00000
v 4.00000 7.00000 -4.00000
v -4.00000 7.00000 -4.00000
v -4.00000 9.00000 -4.00000
v 3.00000 11.00000 -3.00000
v 3.00000 9.00000 -3.00000
v -3.00000 9.00000 -3.00000
v -3.00000 11.00000 -3.00000
v 1.00000 -2.00000 -2.00000
v 1.00000 -4.00000 -2.00000
v -1.00000 -4.00000 -2.00000
v -1.00000 -2.00000 -2.00000
v 1.00000 14.00000 -1.00000
v 1.00000 12.00000 -1.00000
v -1.00000 12.00000 -1.00000
v -1.00000 14.00000 -1.00000
v 1.00000 12.00000 -3.00000
v 1.00000 11.00000 -3.00000
v -1.00000 11.00000 -3.00000
v -1.00000 12.00000 -3.00000
v -1.00000 11.00000 -1.00000
v -3.00000 11.00000 -1.00000
v -3.00000 12.00000 -1.00000
v 3.00000 12.00000 -1.00000
v 3.00000 11.00000 -1.00000
v 1.00000 11.00000 -1.00000
v -2.00000 3.00000 2.00000
v -2.00000 -2.00000 2.00000
v 2.00000 -2.00000 2.00000
v 2.00000 3.00000 2.00000
v -1.00000 -4.00000 1.00000
v -1.00000 -10.00000 1.00000
v 1.00000 -10.00000 1.00000
v 1.00000 -4.00000 1.00000
v -3.00000 7.00000 3.00000
v -3.00000 3.00000 3.00000
v 3.00000 3.00000 3.00000
v 3.00000 7.00000 3.00000
v -3.00000 11.00000 3.00000
v -3.00000 9.00000 3.00000
v 3.00000 9.00000 3.00000
v 3.00000 11.00000 3.00000
v -4.00000 9.00000 4.00000
v -4.00000 7.00000 4.00000
v 4.00000 7.00000 4.00000
v 4.00000 9.00000 4.00000
v -1.00000 14.00000 1.00000
v -1.00000 12.00000 1.00000
v 1.00000 12.00000 1.00000
v 1.00000 14.00000 1.00000
v -1.00000 -2.00000 2.00000
v -1.00000 -4.00000 2.00000
v 1.00000 -4.00000 2.00000
v 1.00000 -2.00000 2.00000
v 1.00000 11.00000 1.00000
v 3.00000 11.00000 1.00000
v 3.00000 12.00000 1.00000
v -3.00000 12.00000 2.00000
v -3.00000 11.00000 2.00000
v -1.00000 11.00000 2.00000
v -1.00000 12.00000 2.00000
v -1.00000 12.00000 3.00000
v -1.00000 11.00000 3.00000
v 1.00000 11.00000 3.00000
v 1.00000 12.00000 3.00000
v -4.00000 9.00000 -3.00000
v -4.00000 9.00000 3.00000
v 4.00000 9.00000 3.00000
v 4.00000 9.00000 -3.00000
v -3.00000 12.00000 1.00000
v 1.00000 12.00000 2.00000
v -4.00000 7.00000 3.00000
v -4.00000 7.00000 -3.00000
v 4.00000 7.00000 -3.00000
v 4.00000 7.00000 3.00000
v -3.00000 3.00000 2.00000
v -3.00000 3.00000 -2.00000
v 3.00000 3.00000 -2.00000
v 3.00000 3.00000 2.00000

vt 0.01563 0.21875
vt 0.01563 0.03125
vt 0.04688 0.03125
vt 0.04688 0.21875
vt 0.07813 0.21875
vt 0.07813 0.03125
vt 0.10938 0.03125
vt 0.10938 0.21875
vt 0.14063 0.21875
vt 0.14063 0.03125
vt 0.17188 0.03125
vt 0.17188 0.21875
vt 0.20313 0.21875
vt 0.20313 0.03125
vt 0.23438 0.03125
vt 0.23438 0.21875
vt 0.26563 0.21875
vt 0.26563 0.03125
vt 0.28125 0.03125
vt 0.28125 0.21875
vt 0.31250 0.21875
vt 0.31250 0.03125
vt 0.32813 0.03125
vt 0.32813 0.21875
vt 0.35938 0.21875
vt 0.35938 0.03125
vt 0.37500 0.03125
vt 0.37500 0.21875
vt 0.40625 0.21875
vt 0.40625 0.03125
vt 0.42188 0.03125
vt 0.42188 0.21875
vt 0.45313 0.18750
vt 0.45313 0.03125
vt 0.51563 0.03125
vt 0.51563 0.18750
vt 0.54688 0.18750
vt 0.54688 0.03125
vt 0.60938 0.03125
vt 0.60938 0.18750
vt 0.64063 0.18750
vt 0.64063 0.03125
vt 0.70313 0.03125
vt 0.70313 0.18750
vt 0.73438 0.18750
vt 0.73438 0.03125
vt 0.79688 0.03125
vt 0.79688 0.18750
vt 0.82813 0.15625
vt 0.82813 0.03125
vt 0.92188 0.03125
vt 0.92188 0.15625
vt 0.01563 0.40625
vt 0.01563 0.28125
vt 0.10938 0.28125
vt 0.10938 0.40625
vt 0.14063 0.40625
vt 0.14063 0.28125
vt 0.23438 0.28125
vt 0.23438 0.40625
vt 0.26563 0.40625
vt 0.26563 0.28125
vt 0.35938 0.28125
vt 0.35938 0.40625
vt 0.95313 0.15625
vt 0.95313 0.03125
vt 0.96875 0.03125
vt 0.96875 0.15625
vt 0.39063 0.40625
vt 0.39063 0.28125
vt 0.40625 0.28125
vt 0.40625 0.40625
vt 0.43750 0.40625
vt 0.43750 0.28125
vt 0.45313 0.28125
vt 0.45313 0.40625
vt 0.48438 0.40625
vt 0.48438 0.28125
vt 0.50000 0.28125
vt 0.50000 0.40625
vt 0.53125 0.34375
vt 0.53125 0.28125
vt 0.65625 0.28125
vt 0.65625 0.34375
vt 0.68750 0.34375
vt 0.68750 0.28125
vt 0.81250 0.28125
vt 0.81250 0.34375
vt 0.84375 0.34375
vt 0.84375 0.28125
vt 0.96875 0.28125
vt 0.96875 0.34375
vt 0.01563 0.53125
vt 0.01563 0.46875
vt 0.14063 0.46875
vt 0.14063 0.53125
vt 0.17188 0.53125
vt 0.17188 0.46875
vt 0.26563 0.46875
vt 0.26563 0.53125
vt 0.29688 0.53125
vt 0.29688 0.46875
vt 0.39063 0.46875
vt 0.39063 0.53125
vt 0.42188 0.53125
vt 0.42188 0.46875
vt 0.51563 0.46875
vt 0.51563 0.53125
vt 0.54688 0.53125
vt 0.54688 0.46875
vt 0.64063 0.46875
vt 0.64063 0.53125
vt 0.67188 0.53125
vt 0.67188 0.46875
vt 0.73438 0.46875
vt 0.73438 0.53125
vt 0.76563 0.53125
vt 0.76563 0.46875
vt 0.82813 0.46875
vt 0.82813 0.53125
vt 0.85938 0.53125
vt 0.85938 0.46875
vt 0.89063 0.46875
vt 0.89063 0.53125
vt 0.92188 0.53125
vt 0.92188 0.46875
vt 0.95313 0.46875
vt 0.95313 0.53125
vt 0.01563 0.65625
vt 0.01563 0.59375
vt 0.04688 0.59375
vt 0.04688 0.65625
vt 0.07813 0.65625
vt 0.07813 0.59375
vt 0.10938 0.59375
vt 0.10938 0.65625
vt 0.14063 0.65625
vt 0.14063 0.59375
vt 0.17188 0.59375
vt 0.17188 0.65625
vt 0.20313 0.65625
vt 0.20313 0.59375
vt 0.23438 0.59375
vt 0.23438 0.65625
vt 0.26563 0.65625
vt 0.26563 0.59375
vt 0.29688 0.59375
vt 0.29688 0.65625
vt 0.32813 0.65625
vt 0.32813 0.59375
vt 0.35938 0.59375
vt 0.35938 0.65625
vt 0.39063 0.65625
vt 0.39063 0.59375
vt 0.42188 0.59375
vt 0.42188 0.65625
vt 0.45313 0.65625
vt 0.45313 0.59375
vt 0.48438 0.59375
vt 0.48438 0.65625
vt 0.51563 0.65625
vt 0.51563 0.59375
vt 0.54688 0.59375
vt 0.54688 0.65625
vt 0.57813 0.65625
vt 0.57813 0.59375
vt 0.60938 0.59375
vt 0.60938 0.65625
vt 0.64063 0.65625
vt 0.64063 0.59375
vt 0.67188 0.59375
vt 0.67188 0.65625
vt 0.70313 0.65625
vt 0.70313 0.59375
vt 0.73438 0.59375
vt 0.73438 0.65625
vt 0.76563 0.62500
vt 0.76563 0.59375
vt 0.89063 0.59375
vt 0.89063 0.62500
vt 0.01563 0.75000
vt 0.01563 0.71875
vt 0.14063 0.71875
vt 0.14063 0.75000
vt 0.17188 0.75000
vt 0.17188 0.71875
vt 0.29688 0.71875
vt 0.29688 0.75000
vt 0.32813 0.75000
vt 0.32813 0.71875
vt 0.45313 0.71875
vt 0.45313 0.75000
vt 0.48438 0.75000
vt 0.48438 0.71875
vt 0.57813 0.71875
vt 0.57813 0.75000
vt 0.60938 0.75000
vt 0.60938 0.71875
vt 0.70313 0.71875
vt 0.70313 0.75000
vt 0.92188 0.62500
vt 0.92188 0.59375
vt 0.98438 0.59375
vt 0.98438 0.62500
vt 0.73438 0.75000
vt 0.73438 0.71875
vt 0.78125 0.71875
vt 0.78125 0.75000
vt 0.81250 0.75000
vt 0.81250 0.71875
vt 0.84375 0.71875
vt 0.84375 0.75000
vt 0.87500 0.75000
vt 0.87500 0.71875
vt 0.90625 0.71875
vt 0.90625 0.75000
vt 0.93750 0.75000
vt 0.93750 0.71875
vt 0.96875 0.71875
vt 0.96875 0.75000
vt 0.01563 0.84375
vt 0.01563 0.81250
vt 0.04688 0.81250
vt 0.04688 0.84375
vt 0.07813 0.84375
vt 0.07813 0.81250
vt 0.10938 0.81250
vt 0.10938 0.84375
vt 0.14063 0.84375
vt 0.14063 0.81250
vt 0.17188 0.81250
vt 0.17188 0.84375
vt 0.20313 0.84375
vt 0.20313 0.81250
vt 0.23438 0.81250
vt 0.23438 0.84375
vt 0.26563 0.84375
vt 0.26563 0.81250
vt 0.29688 0.81250
vt 0.29688 0.84375
vt 0.32813 0.84375
vt 0.32813 0.81250
vt 0.35938 0.81250
vt 0.35938 0.84375
vt 0.39063 0.84375
vt 0.39063 0.81250
vt 0.42188 0.81250
vt 0.42188 0.84375
vt 0.45313 0.84375
vt 0.45313 0.81250
vt 0.48438 0.81250
vt 0.48438 0.84375
vt 0.51563 0.84375
vt 0.51563 0.81250
vt 0.54688 0.81250
vt 0.54688 0.84375
vt 0.57813 0.84375
vt 0.57813 0.81250
vt 0.60938 0.81250
vt 0.60938 0.84375
vt 0.64063 0.84375
vt 0.64063 0.81250
vt 0.67188 0.81250
vt 0.67188 0.84375
vt 0.70313 0.84375
vt 0.70313 0.81250
vt 0.71875 0.81250
vt 0.71875 0.84375
vt 0.75000 0.03125
vt 0.78125 0.03125
vt 0.57813 0.53125
vt 0.60938 0.53125
vt 0.56250 0.03125
vt 0.59375 0.03125
vt 0.20313 0.53125
vt 0.23438 0.53125
vt 0.21875 0.28125
vt 0.15625 0.28125
vt 0.85938 0.34375
vt 0.95313 0.34375
vt 0.95313 0.28125
vt 0.85938 0.28125
vt 0.32813 0.53125
vt 0.37500 0.53125
vt 0.78125 0.46875
vt 0.81250 0.46875
vt 0.76563 0.75000
vt 0.09375 0.28125
vt 0.03125 0.28125
vt 0.54688 0.34375
vt 0.64063 0.34375
vt 0.64063 0.28125
vt 0.54688 0.28125
vt 0.48438 0.53125
vt 0.45313 0.53125
vt 0.71875 0.46875
vt 0.68750 0.46875
vt 0.21875 0.84375
vt 0.28125 0.71875
vt 0.18750 0.71875
vt 0.34375 0.75000
vt 0.43750 0.75000
vt 0.95313 0.59375
vt 0.95313 0.62500
vt 0.12500 0.75000
vt 0.03125 0.75000
vt 0.56250 0.75000
vt 0.50000 0.75000
vt 0.62500 0.71875
vt 0.68750 0.71875
vt 0.78125 0.59375
vt 0.87500 0.59375

g mtx_cudgel3
usemtl cudgel3_Material
f 4/48/2 1/45/2 2/46/2
f 2/46/2 3/47/2 4/48/2
f 3/47/2 2/46/2 21/269/2
f 21/269/2 24/270/2 3/47/2
f 6/14/2 8/16/2 5/13/2
f 6/14/2 7/15/2 8/16/2
f 10/50/2 12/52/2 9/49/2
f 10/50/2 11/51/2 12/52/2
f 14/94/2 16/96/2 13/93/2
f 14/94/2 15/95/2 16/96/2
f 30/271/2 17/109/2 18/110/2
f 18/110/2 31/272/2 30/271/2
f 31/272/2 18/110/2 19/111/2
f 19/111/2 20/112/2 31/272/2
f 22/130/2 24/132/2 21/129/2
f 22/130/2 23/131/2 24/132/2
f 26/126/2 28/128/2 25/125/2
f 26/126/2 27/127/2 28/128/2
f 30/210/2 32/212/2 29/209/2
f 30/210/2 31/211/2 32/212/2
f 33/258/2 35/260/2 27/257/2
f 33/258/2 34/259/2 35/260/2
f 37/254/2 26/256/2 36/253/2
f 37/254/2 38/255/2 26/256/2
f 42/40/1 39/37/1 40/38/1
f 40/38/1 41/39/1 42/40/1
f 41/39/1 40/38/1 63/273/1
f 63/273/1 66/274/1 41/39/1
f 44/10/1 46/12/1 43/9/1
f 44/10/1 45/11/1 46/12/1
f 48/62/1 50/64/1 47/61/1
f 48/62/1 49/63/1 50/64/1
f 75/275/1 51/97/1 52/98/1
f 52/98/1 76/276/1 75/275/1
f 76/276/1 52/98/1 53/99/1
f 53/99/1 54/100/1 76/276/1
f 56/86/1 58/88/1 55/85/1
f 56/86/1 57/87/1 58/88/1
f 60/138/1 62/140/1 59/137/1
f 60/138/1 61/139/1 62/140/1
f 64/142/1 66/144/1 63/141/1
f 64/142/1 65/143/1 66/144/1
f 67/246/1 69/248/1 61/245/1
f 67/246/1 68/247/1 69/248/1
f 71/250/1 73/252/1 70/249/1
f 71/250/1 72/251/1 73/252/1
f 75/242/1 77/244/1 74/241/1
f 75/242/1 76/243/1 77/244/1
f 3/42/3 39/44/3 4/41/3
f 3/42/3 40/43/3 39/44/3
f 7/6/3 43/8/3 8/5/3
f 7/6/3 44/7/3 43/8/3
f 47/60/3 12/57/3 11/58/3
f 11/58/3 48/59/3 47/60/3
f 48/59/3 11/58/3 89/278/3
f 89/278/3 88/277/3 48/59/3
f 78/279/3 16/89/3 15/90/3
f 15/90/3 79/280/3 78/279/3
f 79/280/3 15/90/3 85/282/3
f 85/282/3 55/92/3 79/280/3
f 55/92/3 85/282/3 84/281/3
f 84/281/3 56/91/3 55/92/3
f 34/283/3 20/101/3 19/102/3
f 19/102/3 71/284/3 34/283/3
f 71/284/3 19/102/3 52/103/3
f 52/103/3 51/104/3 71/284/3
f 63/120/3 24/117/3 23/118/3
f 23/118/3 64/119/3 63/120/3
f 64/119/3 23/118/3 8/285/3
f 8/285/3 43/286/3 64/119/3
f 27/122/3 59/124/3 28/121/3
f 27/122/3 60/123/3 59/124/3
f 82/287/3 35/205/3 34/206/3
f 34/206/3 70/208/3 82/287/3
f 70/208/3 34/206/3 71/207/3
f 31/214/3 27/216/3 32/213/3
f 31/214/3 33/215/3 27/216/3
f 72/266/3 74/268/3 73/265/3
f 72/266/3 75/267/3 74/268/3
f 41/34/4 1/36/4 42/33/4
f 41/34/4 2/35/4 1/36/4
f 45/2/4 5/4/4 46/1/4
f 45/2/4 6/3/4 5/4/4
f 9/56/4 50/53/4 49/54/4
f 49/54/4 10/55/4 9/56/4
f 10/55/4 49/54/4 91/289/4
f 91/289/4 90/288/4 10/55/4
f 80/290/4 58/81/4 57/82/4
f 57/82/4 81/291/4 80/290/4
f 81/291/4 57/82/4 87/293/4
f 87/293/4 13/84/4 81/291/4
f 13/84/4 87/293/4 86/292/4
f 86/292/4 14/83/4 13/84/4
f 68/295/4 54/105/4 53/106/4
f 53/106/4 37/294/4 68/295/4
f 37/294/4 53/106/4 18/107/4
f 18/107/4 17/108/4 37/294/4
f 21/116/4 66/113/4 65/114/4
f 65/114/4 22/115/4 21/116/4
f 22/115/4 65/114/4 46/297/4
f 46/297/4 5/296/4 22/115/4
f 61/150/4 25/152/4 62/149/4
f 61/150/4 26/151/4 25/152/4
f 38/218/4 29/220/4 26/217/4
f 38/218/4 30/219/4 29/220/4
f 68/230/4 36/232/4 69/229/4
f 68/230/4 37/231/4 36/232/4
f 83/298/4 77/233/4 76/234/4
f 76/234/4 61/236/4 83/298/4
f 61/236/4 76/234/4 67/235/4
f 78/25/5 79/26/5 19/28/5
f 79/26/5 52/27/5 19/28/5
f 18/29/5 53/30/5 81/32/5
f 53/30/5 80/31/5 81/32/5
f 20/173/5 34/174/5 31/176/5
f 34/174/5 33/175/5 31/176/5
f 32/153/5 27/154/5 29/156/5
f 27/154/5 26/155/5 29/156/5
f 30/157/5 38/158/5 17/160/5
f 38/158/5 37/159/5 17/160/5
f 35/161/5 82/162/5 27/164/5
f 82/162/5 60/163/5 27/164/5
f 28/169/5 59/170/5 25/172/5
f 59/170/5 62/171/5 25/172/5
f 26/165/5 61/166/5 36/168/5
f 61/166/5 69/167/5 36/168/5
f 67/145/5 76/146/5 68/148/5
f 76/146/5 54/147/5 68/148/5
f 13/188/5 16/185/5 78/186/5
f 78/186/5 19/300/5 13/188/5
f 81/187/5 13/188/5 19/300/5
f 19/300/5 18/299/5 81/187/5
f 52/301/5 79/189/5 55/190/5
f 55/190/5 58/191/5 52/301/5
f 53/302/5 52/301/5 58/191/5
f 58/191/5 80/192/5 53/302/5
f 60/304/5 82/201/5 70/202/5
f 70/202/5 73/303/5 60/304/5
f 61/204/5 60/304/5 73/303/5
f 73/303/5 83/203/5 61/204/5
f 71/261/5 51/262/5 72/264/5
f 51/262/5 75/263/5 72/264/5
f 73/237/5 74/238/5 83/240/5
f 74/238/5 77/239/5 83/240/5
f 84/17/6 85/18/6 47/20/6
f 85/18/6 12/19/6 47/20/6
f 50/21/6 9/22/6 87/24/6
f 9/22/6 86/23/6 87/24/6
f 88/69/6 89/70/6 39/72/6
f 89/70/6 4/71/6 39/72/6
f 40/77/6 3/78/6 63/80/6
f 3/78/6 24/79/6 63/80/6
f 66/73/6 21/74/6 41/76/6
f 21/74/6 2/75/6 41/76/6
f 42/65/6 1/66/6 91/68/6
f 1/66/6 90/67/6 91/68/6
f 44/133/6 7/134/6 45/136/6
f 7/134/6 6/135/6 45/136/6
f 12/306/6 85/181/6 15/182/6
f 15/182/6 14/183/6 12/306/6
f 9/305/6 12/306/6 14/183/6
f 14/183/6 86/184/6 9/305/6
f 4/308/6 89/193/6 11/194/6
f 11/194/6 10/195/6 4/308/6
f 1/307/6 4/308/6 10/195/6
f 10/195/6 90/196/6 1/307/6
f 49/200/6 48/197/6 88/198/6
f 88/198/6 39/309/6 49/200/6
f 91/199/6 49/200/6 39/309/6
f 39/309/6 42/310/6 91/199/6
f 57/180/6 56/177/6 84/178/6
f 84/178/6 47/311/6 57/180/6
f 87/179/6 57/180/6 47/311/6
f 47/311/6 50/312/6 87/179/6
f 8/221/6 23/222/6 5/224/6
f 23/222/6 22/223/6 5/224/6
f 64/225/6 43/226/6 65/228/6
f 43/226/6 46/227/6 65/228/6
