# This file was created with Minddesk Qubicle 3.0
# Get Qubicle at www.getqubicle.com

mtllib cudgel2.mtl

vn 0.0 0.0 1.0
vn 0.0 0.0 -1.0
vn -1.0 0.0 0.0
vn 1.0 0.0 0.0
vn 0.0 1.0 0.0
vn 0.0 -1.0 0.0

v 2.00000 10.00000 -3.00000
v 2.00000 1.00000 -3.00000
v -2.00000 1.00000 -3.00000
v -2.00000 10.00000 -3.00000
v 2.00000 1.00000 -2.00000
v 2.00000 -4.00000 -2.00000
v -2.00000 -4.00000 -2.00000
v -2.00000 1.00000 -2.00000
v 1.00000 -6.00000 -1.00000
v 1.00000 -11.00000 -1.00000
v -1.00000 -11.00000 -1.00000
v -1.00000 -6.00000 -1.00000
v -2.00000 10.00000 -2.00000
v -2.00000 2.00000 -2.00000
v -3.00000 2.00000 -2.00000
v -3.00000 10.00000 -2.00000
v 3.00000 10.00000 -2.00000
v 3.00000 2.00000 -2.00000
v 2.00000 2.00000 -2.00000
v 2.00000 10.00000 -2.00000
v 2.00000 12.00000 -2.00000
v -2.00000 12.00000 -2.00000
v 1.00000 -4.00000 -2.00000
v 1.00000 -6.00000 -2.00000
v -1.00000 -6.00000 -2.00000
v -1.00000 -4.00000 -2.00000
v -1.00000 -4.00000 -1.00000
v -1.00000 -5.00000 -1.00000
v -2.00000 -5.00000 -1.00000
v -2.00000 -4.00000 -1.00000
v 2.00000 -4.00000 -1.00000
v 2.00000 -5.00000 -1.00000
v 1.00000 -5.00000 -1.00000
v 1.00000 -4.00000 -1.00000
v -2.00000 10.00000 3.00000
v -2.00000 1.00000 3.00000
v 2.00000 1.00000 3.00000
v 2.00000 10.00000 3.00000
v -2.00000 1.00000 2.00000
v -2.00000 -4.00000 2.00000
v 2.00000 -4.00000 2.00000
v 2.00000 1.00000 2.00000
v -1.00000 -6.00000 1.00000
v -1.00000 -11.00000 1.00000
v 1.00000 -11.00000 1.00000
v 1.00000 -6.00000 1.00000
v -3.00000 10.00000 2.00000
v -3.00000 2.00000 2.00000
v -2.00000 2.00000 2.00000
v -2.00000 10.00000 2.00000
v 2.00000 10.00000 2.00000
v 2.00000 2.00000 2.00000
v 3.00000 2.00000 2.00000
v 3.00000 10.00000 2.00000
v -2.00000 12.00000 2.00000
v 2.00000 12.00000 2.00000
v -1.00000 -4.00000 2.00000
v -1.00000 -6.00000 2.00000
v 1.00000 -6.00000 2.00000
v 1.00000 -4.00000 2.00000
v -2.00000 -4.00000 1.00000
v -2.00000 -5.00000 1.00000
v -1.00000 -5.00000 1.00000
v -1.00000 -4.00000 1.00000
v 1.00000 -4.00000 1.00000
v 1.00000 -5.00000 1.00000
v 2.00000 -5.00000 1.00000
v 2.00000 -4.00000 1.00000
v -2.00000 2.00000 -3.00000
v -2.00000 2.00000 3.00000
v -1.00000 -5.00000 -2.00000
v -1.00000 -5.00000 2.00000
v 2.00000 2.00000 -3.00000
v 2.00000 2.00000 3.00000
v 1.00000 -5.00000 2.00000
v 1.00000 -5.00000 -2.00000

vt 0.01563 0.31250
vt 0.01563 0.03125
vt 0.07813 0.03125
vt 0.07813 0.31250
vt 0.10938 0.31250
vt 0.10938 0.03125
vt 0.17188 0.03125
vt 0.17188 0.31250
vt 0.20313 0.28125
vt 0.20313 0.03125
vt 0.26563 0.03125
vt 0.26563 0.28125
vt 0.29688 0.28125
vt 0.29688 0.03125
vt 0.35938 0.03125
vt 0.35938 0.28125
vt 0.39063 0.28125
vt 0.39063 0.03125
vt 0.40625 0.03125
vt 0.40625 0.28125
vt 0.43750 0.28125
vt 0.43750 0.03125
vt 0.45313 0.03125
vt 0.45313 0.28125
vt 0.48438 0.28125
vt 0.48438 0.03125
vt 0.50000 0.03125
vt 0.50000 0.28125
vt 0.53125 0.28125
vt 0.53125 0.03125
vt 0.54688 0.03125
vt 0.54688 0.28125
vt 0.57813 0.28125
vt 0.57813 0.03125
vt 0.59375 0.03125
vt 0.59375 0.28125
vt 0.62500 0.28125
vt 0.62500 0.03125
vt 0.64063 0.03125
vt 0.64063 0.28125
vt 0.67188 0.28125
vt 0.67188 0.03125
vt 0.68750 0.03125
vt 0.68750 0.28125
vt 0.71875 0.28125
vt 0.71875 0.03125
vt 0.73438 0.03125
vt 0.73438 0.28125
vt 0.76563 0.18750
vt 0.76563 0.03125
vt 0.82813 0.03125
vt 0.82813 0.18750
vt 0.85938 0.18750
vt 0.85938 0.03125
vt 0.92188 0.03125
vt 0.92188 0.18750
vt 0.01563 0.53125
vt 0.01563 0.37500
vt 0.07813 0.37500
vt 0.07813 0.53125
vt 0.10938 0.53125
vt 0.10938 0.37500
vt 0.17188 0.37500
vt 0.17188 0.53125
vt 0.95313 0.18750
vt 0.95313 0.03125
vt 0.98438 0.03125
vt 0.98438 0.18750
vt 0.20313 0.53125
vt 0.20313 0.37500
vt 0.23438 0.37500
vt 0.23438 0.53125
vt 0.26563 0.53125
vt 0.26563 0.37500
vt 0.29688 0.37500
vt 0.29688 0.53125
vt 0.32813 0.53125
vt 0.32813 0.37500
vt 0.35938 0.37500
vt 0.35938 0.53125
vt 0.39063 0.50000
vt 0.39063 0.37500
vt 0.45313 0.37500
vt 0.45313 0.50000
vt 0.48438 0.50000
vt 0.48438 0.37500
vt 0.50000 0.37500
vt 0.50000 0.50000
vt 0.53125 0.50000
vt 0.53125 0.37500
vt 0.54688 0.37500
vt 0.54688 0.50000
vt 0.57813 0.50000
vt 0.57813 0.37500
vt 0.59375 0.37500
vt 0.59375 0.50000
vt 0.62500 0.50000
vt 0.62500 0.37500
vt 0.64063 0.37500
vt 0.64063 0.50000
vt 0.67188 0.43750
vt 0.67188 0.37500
vt 0.73438 0.37500
vt 0.73438 0.43750
vt 0.76563 0.43750
vt 0.76563 0.37500
vt 0.82813 0.37500
vt 0.82813 0.43750
vt 0.85938 0.43750
vt 0.85938 0.37500
vt 0.92188 0.37500
vt 0.92188 0.43750
vt 0.01563 0.65625
vt 0.01563 0.59375
vt 0.07813 0.59375
vt 0.07813 0.65625
vt 0.95313 0.43750
vt 0.95313 0.37500
vt 0.98438 0.37500
vt 0.98438 0.43750
vt 0.10938 0.65625
vt 0.10938 0.59375
vt 0.14063 0.59375
vt 0.14063 0.65625
vt 0.17188 0.65625
vt 0.17188 0.59375
vt 0.20313 0.59375
vt 0.20313 0.65625
vt 0.23438 0.65625
vt 0.23438 0.59375
vt 0.25000 0.59375
vt 0.25000 0.65625
vt 0.28125 0.65625
vt 0.28125 0.59375
vt 0.29688 0.59375
vt 0.29688 0.65625
vt 0.76563 0.28125
vt 0.76563 0.25000
vt 0.85938 0.25000
vt 0.85938 0.28125
vt 0.89063 0.28125
vt 0.89063 0.25000
vt 0.98438 0.25000
vt 0.98438 0.28125
vt 0.32813 0.62500
vt 0.32813 0.59375
vt 0.39063 0.59375
vt 0.39063 0.62500
vt 0.42188 0.62500
vt 0.42188 0.59375
vt 0.48438 0.59375
vt 0.48438 0.62500
vt 0.51563 0.62500
vt 0.51563 0.59375
vt 0.57813 0.59375
vt 0.57813 0.62500
vt 0.60938 0.62500
vt 0.60938 0.59375
vt 0.67188 0.59375
vt 0.67188 0.62500
vt 0.70313 0.62500
vt 0.70313 0.59375
vt 0.76563 0.59375
vt 0.76563 0.62500
vt 0.79688 0.62500
vt 0.79688 0.59375
vt 0.85938 0.59375
vt 0.85938 0.62500
vt 0.89063 0.62500
vt 0.89063 0.59375
vt 0.92188 0.59375
vt 0.92188 0.62500
vt 0.95313 0.62500
vt 0.95313 0.59375
vt 0.98438 0.59375
vt 0.98438 0.62500
vt 0.01563 0.75000
vt 0.01563 0.71875
vt 0.04688 0.71875
vt 0.04688 0.75000
vt 0.07813 0.75000
vt 0.07813 0.71875
vt 0.10938 0.71875
vt 0.10938 0.75000
vt 0.14063 0.75000
vt 0.14063 0.71875
vt 0.15625 0.71875
vt 0.15625 0.75000
vt 0.18750 0.75000
vt 0.18750 0.71875
vt 0.20313 0.71875
vt 0.20313 0.75000
vt 0.23438 0.75000
vt 0.23438 0.71875
vt 0.25000 0.71875
vt 0.25000 0.75000
vt 0.28125 0.75000
vt 0.28125 0.71875
vt 0.29688 0.71875
vt 0.29688 0.75000
vt 0.32813 0.75000
vt 0.32813 0.71875
vt 0.34375 0.71875
vt 0.34375 0.75000
vt 0.37500 0.75000
vt 0.37500 0.71875
vt 0.39063 0.71875
vt 0.39063 0.75000
vt 0.42188 0.75000
vt 0.42188 0.71875
vt 0.43750 0.71875
vt 0.43750 0.75000
vt 0.46875 0.75000
vt 0.46875 0.71875
vt 0.48438 0.71875
vt 0.48438 0.75000
vt 0.51563 0.75000
vt 0.51563 0.71875
vt 0.53125 0.71875
vt 0.53125 0.75000
vt 0.56250 0.75000
vt 0.56250 0.71875
vt 0.57813 0.71875
vt 0.57813 0.75000
vt 0.60938 0.75000
vt 0.60938 0.71875
vt 0.62500 0.71875
vt 0.62500 0.75000
vt 0.65625 0.75000
vt 0.65625 0.71875
vt 0.67188 0.71875
vt 0.67188 0.75000
vt 0.17188 0.06250
vt 0.10938 0.06250
vt 0.87500 0.03125
vt 0.90625 0.03125
vt 0.14063 0.62500
vt 0.10938 0.62500
vt 0.07813 0.06250
vt 0.01563 0.06250
vt 0.03125 0.37500
vt 0.06250 0.37500
vt 0.98438 0.40625
vt 0.95313 0.40625
vt 0.78125 0.03125
vt 0.81250 0.03125
vt 0.90625 0.28125
vt 0.96875 0.28125
vt 0.90625 0.25000
vt 0.96875 0.25000
vt 0.62500 0.62500
vt 0.65625 0.62500
vt 0.62500 0.59375
vt 0.65625 0.59375
vt 0.15625 0.37500
vt 0.12500 0.37500
vt 0.84375 0.28125
vt 0.78125 0.28125
vt 0.84375 0.25000
vt 0.78125 0.25000
vt 0.37500 0.62500
vt 0.34375 0.62500
vt 0.37500 0.59375
vt 0.34375 0.59375

g mtx_cudgel2
usemtl cudgel2_Material
f 4/8/2 1/5/2 73/234/2
f 73/234/2 69/233/2 4/8/2
f 69/233/2 73/234/2 2/6/2
f 2/6/2 3/7/2 69/233/2
f 8/56/2 5/53/2 6/54/2
f 6/54/2 7/55/2 8/56/2
f 7/55/2 6/54/2 23/235/2
f 23/235/2 26/236/2 7/55/2
f 10/66/2 12/68/2 9/65/2
f 10/66/2 11/67/2 12/68/2
f 14/46/2 16/48/2 13/45/2
f 14/46/2 15/47/2 16/48/2
f 18/18/2 20/20/2 17/17/2
f 18/18/2 19/19/2 20/20/2
f 20/102/2 22/104/2 21/101/2
f 20/102/2 13/103/2 22/104/2
f 26/124/2 23/121/2 76/238/2
f 76/238/2 71/237/2 26/124/2
f 71/237/2 76/238/2 24/122/2
f 24/122/2 25/123/2 71/237/2
f 28/186/2 30/188/2 27/185/2
f 28/186/2 29/187/2 30/188/2
f 32/190/2 34/192/2 31/189/2
f 32/190/2 33/191/2 34/192/2
f 38/4/1 35/1/1 70/240/1
f 70/240/1 74/239/1 38/4/1
f 74/239/1 70/240/1 36/2/1
f 36/2/1 37/3/1 74/239/1
f 42/60/1 39/57/1 40/58/1
f 40/58/1 41/59/1 42/60/1
f 41/59/1 40/58/1 57/241/1
f 57/241/1 60/242/1 41/59/1
f 44/78/1 46/80/1 43/77/1
f 44/78/1 45/79/1 46/80/1
f 48/34/1 50/36/1 47/33/1
f 48/34/1 49/35/1 50/36/1
f 52/30/1 54/32/1 51/29/1
f 52/30/1 53/31/1 54/32/1
f 50/110/1 56/112/1 55/109/1
f 50/110/1 51/111/1 56/112/1
f 60/120/1 57/117/1 72/244/1
f 72/244/1 75/243/1 60/120/1
f 75/243/1 72/244/1 58/118/1
f 58/118/1 59/119/1 75/243/1
f 62/218/1 64/220/1 61/217/1
f 62/218/1 63/219/1 64/220/1
f 66/214/1 68/216/1 65/213/1
f 66/214/1 67/215/1 68/216/1
f 15/10/3 47/12/3 16/9/3
f 15/10/3 48/11/3 47/12/3
f 39/52/3 8/49/3 7/50/3
f 7/50/3 40/51/3 39/52/3
f 40/51/3 7/50/3 30/245/3
f 30/245/3 61/246/3 40/51/3
f 11/74/3 43/76/3 12/73/3
f 11/74/3 44/75/3 43/76/3
f 69/42/3 13/44/3 4/41/3
f 69/42/3 14/43/3 13/44/3
f 49/38/3 35/40/3 50/37/3
f 49/38/3 70/39/3 35/40/3
f 13/106/3 55/108/3 22/105/3
f 13/106/3 50/107/3 55/108/3
f 14/247/3 69/141/3 3/142/3
f 3/142/3 49/248/3 14/247/3
f 49/248/3 3/142/3 8/249/3
f 8/249/3 70/144/3 49/248/3
f 70/144/3 8/249/3 39/250/3
f 39/250/3 36/143/3 70/144/3
f 28/251/3 71/157/3 25/158/3
f 25/158/3 63/252/3 28/251/3
f 63/252/3 25/158/3 12/253/3
f 12/253/3 72/160/3 63/252/3
f 72/160/3 12/253/3 43/254/3
f 43/254/3 58/159/3 72/160/3
f 29/178/3 61/180/3 30/177/3
f 29/178/3 62/179/3 61/180/3
f 71/222/3 27/224/3 26/221/3
f 71/222/3 28/223/3 27/224/3
f 63/230/3 57/232/3 64/229/3
f 63/230/3 72/231/3 57/232/3
f 5/64/4 42/61/4 41/62/4
f 41/62/4 6/63/4 5/64/4
f 6/63/4 41/62/4 68/256/4
f 68/256/4 31/255/4 6/63/4
f 53/14/4 17/16/4 54/13/4
f 53/14/4 18/15/4 17/16/4
f 45/70/4 9/72/4 46/69/4
f 45/70/4 10/71/4 9/72/4
f 19/22/4 1/24/4 20/21/4
f 19/22/4 73/23/4 1/24/4
f 74/26/4 51/28/4 38/25/4
f 74/26/4 52/27/4 51/28/4
f 51/114/4 21/116/4 56/113/4
f 51/114/4 20/115/4 21/116/4
f 52/258/4 74/137/4 37/138/4
f 37/138/4 19/257/4 52/258/4
f 19/257/4 37/138/4 42/260/4
f 42/260/4 73/140/4 19/257/4
f 73/140/4 42/260/4 5/259/4
f 5/259/4 2/139/4 73/140/4
f 66/262/4 75/145/4 59/146/4
f 59/146/4 33/261/4 66/262/4
f 33/261/4 59/146/4 46/264/4
f 46/264/4 76/148/4 33/261/4
f 76/148/4 46/264/4 9/263/4
f 9/263/4 24/147/4 76/148/4
f 67/170/4 31/172/4 68/169/4
f 67/170/4 32/171/4 31/172/4
f 33/226/4 23/228/4 34/225/4
f 33/226/4 76/227/4 23/228/4
f 75/198/4 65/200/4 60/197/4
f 75/198/4 66/199/4 65/200/4
f 22/81/5 55/82/5 21/84/5
f 55/82/5 56/83/5 21/84/5
f 16/97/5 47/98/5 13/100/5
f 47/98/5 50/99/5 13/100/5
f 20/85/5 51/86/5 17/88/5
f 51/86/5 54/87/5 17/88/5
f 4/153/5 13/154/5 1/156/5
f 13/154/5 20/155/5 1/156/5
f 50/165/5 35/166/5 51/168/5
f 35/166/5 38/167/5 51/168/5
f 48/93/6 15/94/6 49/96/6
f 15/94/6 14/95/6 49/96/6
f 52/89/6 19/90/6 53/92/6
f 19/90/6 18/91/6 53/92/6
f 44/125/6 11/126/6 45/128/6
f 11/126/6 10/127/6 45/128/6
f 62/129/6 29/130/6 63/132/6
f 29/130/6 28/131/6 63/132/6
f 66/133/6 33/134/6 67/136/6
f 33/134/6 32/135/6 67/136/6
f 8/149/6 3/150/6 5/152/6
f 3/150/6 2/151/6 5/152/6
f 36/161/6 39/162/6 37/164/6
f 39/162/6 42/163/6 37/164/6
f 12/173/6 25/174/6 9/176/6
f 25/174/6 24/175/6 9/176/6
f 58/181/6 43/182/6 59/184/6
f 43/182/6 46/183/6 59/184/6
f 30/193/6 7/194/6 27/196/6
f 7/194/6 26/195/6 27/196/6
f 34/201/6 23/202/6 31/204/6
f 23/202/6 6/203/6 31/204/6
f 40/209/6 61/210/6 57/212/6
f 61/210/6 64/211/6 57/212/6
f 60/205/6 65/206/6 41/208/6
f 65/206/6 68/207/6 41/208/6
