# This file was created with Minddesk Qubicle 3.0
# Get Qubicle at www.getqubicle.com

mtllib cudgel1.mtl

vn 0.0 0.0 1.0
vn 0.0 0.0 -1.0
vn -1.0 0.0 0.0
vn 1.0 0.0 0.0
vn 0.0 1.0 0.0
vn 0.0 -1.0 0.0

v 2.00000 8.00000 -3.00000
v 2.00000 -1.00000 -3.00000
v -2.00000 -1.00000 -3.00000
v -2.00000 8.00000 -3.00000
v -2.00000 8.00000 -2.00000
v -2.00000 0.00000 -2.00000
v -3.00000 0.00000 -2.00000
v -3.00000 8.00000 -2.00000
v 3.00000 8.00000 -2.00000
v 3.00000 0.00000 -2.00000
v 2.00000 0.00000 -2.00000
v 2.00000 8.00000 -2.00000
v 2.00000 -1.00000 -2.00000
v 2.00000 -5.00000 -2.00000
v -2.00000 -5.00000 -2.00000
v -2.00000 -1.00000 -2.00000
v 1.00000 -7.00000 -1.00000
v 1.00000 -10.00000 -1.00000
v -1.00000 -10.00000 -1.00000
v -1.00000 -7.00000 -1.00000
v 2.00000 10.00000 -2.00000
v -2.00000 10.00000 -2.00000
v 1.00000 -5.00000 -2.00000
v 1.00000 -7.00000 -2.00000
v -1.00000 -7.00000 -2.00000
v -1.00000 -5.00000 -2.00000
v -1.00000 -5.00000 -1.00000
v -1.00000 -6.00000 -1.00000
v -2.00000 -6.00000 -1.00000
v -2.00000 -5.00000 -1.00000
v 2.00000 -5.00000 -1.00000
v 2.00000 -6.00000 -1.00000
v 1.00000 -6.00000 -1.00000
v 1.00000 -5.00000 -1.00000
v -2.00000 8.00000 3.00000
v -2.00000 -1.00000 3.00000
v 2.00000 -1.00000 3.00000
v 2.00000 8.00000 3.00000
v -3.00000 8.00000 2.00000
v -3.00000 0.00000 2.00000
v -2.00000 0.00000 2.00000
v -2.00000 8.00000 2.00000
v 2.00000 8.00000 2.00000
v 2.00000 0.00000 2.00000
v 3.00000 0.00000 2.00000
v 3.00000 8.00000 2.00000
v -2.00000 -1.00000 2.00000
v -2.00000 -5.00000 2.00000
v 2.00000 -5.00000 2.00000
v 2.00000 -1.00000 2.00000
v -1.00000 -7.00000 1.00000
v -1.00000 -10.00000 1.00000
v 1.00000 -10.00000 1.00000
v 1.00000 -7.00000 1.00000
v -2.00000 10.00000 2.00000
v 2.00000 10.00000 2.00000
v -1.00000 -5.00000 2.00000
v -1.00000 -7.00000 2.00000
v 1.00000 -7.00000 2.00000
v 1.00000 -5.00000 2.00000
v -2.00000 -5.00000 1.00000
v -2.00000 -6.00000 1.00000
v -1.00000 -6.00000 1.00000
v -1.00000 -5.00000 1.00000
v 1.00000 -5.00000 1.00000
v 1.00000 -6.00000 1.00000
v 2.00000 -6.00000 1.00000
v 2.00000 -5.00000 1.00000
v -2.00000 0.00000 -3.00000
v -2.00000 0.00000 3.00000
v -1.00000 -6.00000 -2.00000
v -1.00000 -6.00000 2.00000
v 2.00000 0.00000 -3.00000
v 2.00000 0.00000 3.00000
v 1.00000 -6.00000 2.00000
v 1.00000 -6.00000 -2.00000

vt 0.01563 0.31250
vt 0.01563 0.03125
vt 0.07813 0.03125
vt 0.07813 0.31250
vt 0.10938 0.31250
vt 0.10938 0.03125
vt 0.17188 0.03125
vt 0.17188 0.31250
vt 0.20313 0.28125
vt 0.20313 0.03125
vt 0.26563 0.03125
vt 0.26563 0.28125
vt 0.29688 0.28125
vt 0.29688 0.03125
vt 0.35938 0.03125
vt 0.35938 0.28125
vt 0.39063 0.28125
vt 0.39063 0.03125
vt 0.40625 0.03125
vt 0.40625 0.28125
vt 0.43750 0.28125
vt 0.43750 0.03125
vt 0.45313 0.03125
vt 0.45313 0.28125
vt 0.48438 0.28125
vt 0.48438 0.03125
vt 0.50000 0.03125
vt 0.50000 0.28125
vt 0.53125 0.28125
vt 0.53125 0.03125
vt 0.54688 0.03125
vt 0.54688 0.28125
vt 0.57813 0.28125
vt 0.57813 0.03125
vt 0.59375 0.03125
vt 0.59375 0.28125
vt 0.62500 0.28125
vt 0.62500 0.03125
vt 0.64063 0.03125
vt 0.64063 0.28125
vt 0.67188 0.28125
vt 0.67188 0.03125
vt 0.68750 0.03125
vt 0.68750 0.28125
vt 0.71875 0.28125
vt 0.71875 0.03125
vt 0.73438 0.03125
vt 0.73438 0.28125
vt 0.76563 0.15625
vt 0.76563 0.03125
vt 0.82813 0.03125
vt 0.82813 0.15625
vt 0.85938 0.15625
vt 0.85938 0.03125
vt 0.92188 0.03125
vt 0.92188 0.15625
vt 0.01563 0.50000
vt 0.01563 0.37500
vt 0.07813 0.37500
vt 0.07813 0.50000
vt 0.10938 0.50000
vt 0.10938 0.37500
vt 0.17188 0.37500
vt 0.17188 0.50000
vt 0.20313 0.50000
vt 0.20313 0.37500
vt 0.26563 0.37500
vt 0.26563 0.50000
vt 0.95313 0.15625
vt 0.95313 0.03125
vt 0.96875 0.03125
vt 0.96875 0.15625
vt 0.29688 0.50000
vt 0.29688 0.37500
vt 0.31250 0.37500
vt 0.31250 0.50000
vt 0.34375 0.50000
vt 0.34375 0.37500
vt 0.35938 0.37500
vt 0.35938 0.50000
vt 0.39063 0.50000
vt 0.39063 0.37500
vt 0.40625 0.37500
vt 0.40625 0.50000
vt 0.43750 0.46875
vt 0.43750 0.37500
vt 0.46875 0.37500
vt 0.46875 0.46875
vt 0.50000 0.46875
vt 0.50000 0.37500
vt 0.53125 0.37500
vt 0.53125 0.46875
vt 0.56250 0.46875
vt 0.56250 0.37500
vt 0.59375 0.37500
vt 0.59375 0.46875
vt 0.62500 0.46875
vt 0.62500 0.37500
vt 0.65625 0.37500
vt 0.65625 0.46875
vt 0.76563 0.28125
vt 0.76563 0.21875
vt 0.82813 0.21875
vt 0.82813 0.28125
vt 0.85938 0.28125
vt 0.85938 0.21875
vt 0.92188 0.21875
vt 0.92188 0.28125
vt 0.68750 0.43750
vt 0.68750 0.37500
vt 0.75000 0.37500
vt 0.75000 0.43750
vt 0.78125 0.43750
vt 0.78125 0.37500
vt 0.84375 0.37500
vt 0.84375 0.43750
vt 0.95313 0.28125
vt 0.95313 0.21875
vt 0.98438 0.21875
vt 0.98438 0.28125
vt 0.87500 0.43750
vt 0.87500 0.37500
vt 0.90625 0.37500
vt 0.90625 0.43750
vt 0.93750 0.43750
vt 0.93750 0.37500
vt 0.96875 0.37500
vt 0.96875 0.43750
vt 0.01563 0.62500
vt 0.01563 0.56250
vt 0.03125 0.56250
vt 0.03125 0.62500
vt 0.06250 0.62500
vt 0.06250 0.56250
vt 0.07813 0.56250
vt 0.07813 0.62500
vt 0.10938 0.59375
vt 0.10938 0.56250
vt 0.20313 0.56250
vt 0.20313 0.59375
vt 0.23438 0.59375
vt 0.23438 0.56250
vt 0.32813 0.56250
vt 0.32813 0.59375
vt 0.35938 0.59375
vt 0.35938 0.56250
vt 0.42188 0.56250
vt 0.42188 0.59375
vt 0.45313 0.59375
vt 0.45313 0.56250
vt 0.51563 0.56250
vt 0.51563 0.59375
vt 0.54688 0.59375
vt 0.54688 0.56250
vt 0.60938 0.56250
vt 0.60938 0.59375
vt 0.64063 0.59375
vt 0.64063 0.56250
vt 0.70313 0.56250
vt 0.70313 0.59375
vt 0.73438 0.59375
vt 0.73438 0.56250
vt 0.79688 0.56250
vt 0.79688 0.59375
vt 0.82813 0.59375
vt 0.82813 0.56250
vt 0.89063 0.56250
vt 0.89063 0.59375
vt 0.92188 0.59375
vt 0.92188 0.56250
vt 0.95313 0.56250
vt 0.95313 0.59375
vt 0.01563 0.71875
vt 0.01563 0.68750
vt 0.04688 0.68750
vt 0.04688 0.71875
vt 0.07813 0.71875
vt 0.07813 0.68750
vt 0.10938 0.68750
vt 0.10938 0.71875
vt 0.14063 0.71875
vt 0.14063 0.68750
vt 0.17188 0.68750
vt 0.17188 0.71875
vt 0.20313 0.71875
vt 0.20313 0.68750
vt 0.21875 0.68750
vt 0.21875 0.71875
vt 0.25000 0.71875
vt 0.25000 0.68750
vt 0.26563 0.68750
vt 0.26563 0.71875
vt 0.29688 0.71875
vt 0.29688 0.68750
vt 0.31250 0.68750
vt 0.31250 0.71875
vt 0.34375 0.71875
vt 0.34375 0.68750
vt 0.35938 0.68750
vt 0.35938 0.71875
vt 0.39063 0.71875
vt 0.39063 0.68750
vt 0.40625 0.68750
vt 0.40625 0.71875
vt 0.43750 0.71875
vt 0.43750 0.68750
vt 0.45313 0.68750
vt 0.45313 0.71875
vt 0.48438 0.71875
vt 0.48438 0.68750
vt 0.50000 0.68750
vt 0.50000 0.71875
vt 0.53125 0.71875
vt 0.53125 0.68750
vt 0.54688 0.68750
vt 0.54688 0.71875
vt 0.57813 0.71875
vt 0.57813 0.68750
vt 0.59375 0.68750
vt 0.59375 0.71875
vt 0.62500 0.71875
vt 0.62500 0.68750
vt 0.64063 0.68750
vt 0.64063 0.71875
vt 0.67188 0.71875
vt 0.67188 0.68750
vt 0.68750 0.68750
vt 0.68750 0.71875
vt 0.71875 0.71875
vt 0.71875 0.68750
vt 0.73438 0.68750
vt 0.73438 0.71875
vt 0.17188 0.06250
vt 0.10938 0.06250
vt 0.78125 0.03125
vt 0.81250 0.03125
vt 0.96875 0.40625
vt 0.93750 0.40625
vt 0.07813 0.06250
vt 0.01563 0.06250
vt 0.12500 0.37500
vt 0.15625 0.37500
vt 0.98438 0.25000
vt 0.95313 0.25000
vt 0.03125 0.37500
vt 0.06250 0.37500
vt 0.25000 0.59375
vt 0.31250 0.59375
vt 0.25000 0.56250
vt 0.31250 0.56250
vt 0.65625 0.59375
vt 0.68750 0.59375
vt 0.65625 0.56250
vt 0.68750 0.56250
vt 0.25000 0.37500
vt 0.21875 0.37500
vt 0.18750 0.59375
vt 0.12500 0.59375
vt 0.18750 0.56250
vt 0.12500 0.56250
vt 0.59375 0.59375
vt 0.56250 0.59375
vt 0.59375 0.56250
vt 0.56250 0.56250

g mtx_cudgel1
usemtl cudgel1_Material
f 4/8/2 1/5/2 73/234/2
f 73/234/2 69/233/2 4/8/2
f 69/233/2 73/234/2 2/6/2
f 2/6/2 3/7/2 69/233/2
f 6/30/2 8/32/2 5/29/2
f 6/30/2 7/31/2 8/32/2
f 10/38/2 12/40/2 9/37/2
f 10/38/2 11/39/2 12/40/2
f 16/52/2 13/49/2 14/50/2
f 14/50/2 15/51/2 16/52/2
f 15/51/2 14/50/2 23/235/2
f 23/235/2 26/236/2 15/51/2
f 18/98/2 20/100/2 17/97/2
f 18/98/2 19/99/2 20/100/2
f 12/102/2 22/104/2 21/101/2
f 12/102/2 5/103/2 22/104/2
f 26/128/2 23/125/2 76/238/2
f 76/238/2 71/237/2 26/128/2
f 71/237/2 76/238/2 24/126/2
f 24/126/2 25/127/2 71/237/2
f 28/190/2 30/192/2 27/189/2
f 28/190/2 29/191/2 30/192/2
f 32/186/2 34/188/2 31/185/2
f 32/186/2 33/187/2 34/188/2
f 38/4/1 35/1/1 70/240/1
f 70/240/1 74/239/1 38/4/1
f 74/239/1 70/240/1 36/2/1
f 36/2/1 37/3/1 74/239/1
f 40/46/1 42/48/1 39/45/1
f 40/46/1 41/47/1 42/48/1
f 44/42/1 46/44/1 43/41/1
f 44/42/1 45/43/1 46/44/1
f 50/64/1 47/61/1 48/62/1
f 48/62/1 49/63/1 50/64/1
f 49/63/1 48/62/1 57/241/1
f 57/241/1 60/242/1 49/63/1
f 52/90/1 54/92/1 51/89/1
f 52/90/1 53/91/1 54/92/1
f 42/106/1 56/108/1 55/105/1
f 42/106/1 43/107/1 56/108/1
f 60/120/1 57/117/1 72/244/1
f 72/244/1 75/243/1 60/120/1
f 75/243/1 72/244/1 58/118/1
f 58/118/1 59/119/1 75/243/1
f 62/218/1 64/220/1 61/217/1
f 62/218/1 63/219/1 64/220/1
f 66/214/1 68/216/1 65/213/1
f 66/214/1 67/215/1 68/216/1
f 7/10/3 39/12/3 8/9/3
f 7/10/3 40/11/3 39/12/3
f 69/22/3 5/24/3 4/21/3
f 69/22/3 6/23/3 5/24/3
f 41/34/3 35/36/3 42/33/3
f 41/34/3 70/35/3 35/36/3
f 47/60/3 16/57/3 15/58/3
f 15/58/3 48/59/3 47/60/3
f 48/59/3 15/58/3 30/245/3
f 30/245/3 61/246/3 48/59/3
f 19/94/3 51/96/3 20/93/3
f 19/94/3 52/95/3 51/96/3
f 5/110/3 55/112/3 22/109/3
f 5/110/3 42/111/3 55/112/3
f 6/247/3 69/141/3 3/142/3
f 3/142/3 41/248/3 6/247/3
f 41/248/3 3/142/3 16/249/3
f 16/249/3 70/144/3 41/248/3
f 70/144/3 16/249/3 47/250/3
f 47/250/3 36/143/3 70/144/3
f 28/251/3 71/157/3 25/158/3
f 25/158/3 63/252/3 28/251/3
f 63/252/3 25/158/3 20/253/3
f 20/253/3 72/160/3 63/252/3
f 72/160/3 20/253/3 51/254/3
f 51/254/3 58/159/3 72/160/3
f 29/182/3 61/184/3 30/181/3
f 29/182/3 62/183/3 61/184/3
f 71/222/3 27/224/3 26/221/3
f 71/222/3 28/223/3 27/224/3
f 63/230/3 57/232/3 64/229/3
f 63/230/3 72/231/3 57/232/3
f 45/14/4 9/16/4 46/13/4
f 45/14/4 10/15/4 9/16/4
f 11/26/4 1/28/4 12/25/4
f 11/26/4 73/27/4 1/28/4
f 74/18/4 43/20/4 38/17/4
f 74/18/4 44/19/4 43/20/4
f 13/68/4 50/65/4 49/66/4
f 49/66/4 14/67/4 13/68/4
f 14/67/4 49/66/4 68/256/4
f 68/256/4 31/255/4 14/67/4
f 53/86/4 17/88/4 54/85/4
f 53/86/4 18/87/4 17/88/4
f 43/114/4 21/116/4 56/113/4
f 43/114/4 12/115/4 21/116/4
f 44/258/4 74/137/4 37/138/4
f 37/138/4 11/257/4 44/258/4
f 11/257/4 37/138/4 50/260/4
f 50/260/4 73/140/4 11/257/4
f 73/140/4 50/260/4 13/259/4
f 13/259/4 2/139/4 73/140/4
f 66/262/4 75/153/4 59/154/4
f 59/154/4 33/261/4 66/262/4
f 33/261/4 59/154/4 54/264/4
f 54/264/4 76/156/4 33/261/4
f 76/156/4 54/264/4 17/263/4
f 17/263/4 24/155/4 76/156/4
f 67/170/4 31/172/4 68/169/4
f 67/170/4 32/171/4 31/172/4
f 33/226/4 23/228/4 34/225/4
f 33/226/4 76/227/4 23/228/4
f 75/198/4 65/200/4 60/197/4
f 75/198/4 66/199/4 65/200/4
f 22/53/5 55/54/5 21/56/5
f 55/54/5 56/55/5 21/56/5
f 8/81/5 39/82/5 5/84/5
f 39/82/5 42/83/5 5/84/5
f 12/77/5 43/78/5 9/80/5
f 43/78/5 46/79/5 9/80/5
f 4/165/5 5/166/5 1/168/5
f 5/166/5 12/167/5 1/168/5
f 42/161/5 35/162/5 43/164/5
f 35/162/5 38/163/5 43/164/5
f 40/69/6 7/70/6 41/72/6
f 7/70/6 6/71/6 41/72/6
f 44/73/6 11/74/6 45/76/6
f 11/74/6 10/75/6 45/76/6
f 52/121/6 19/122/6 53/124/6
f 19/122/6 18/123/6 53/124/6
f 62/129/6 29/130/6 63/132/6
f 29/130/6 28/131/6 63/132/6
f 66/133/6 33/134/6 67/136/6
f 33/134/6 32/135/6 67/136/6
f 16/145/6 3/146/6 13/148/6
f 3/146/6 2/147/6 13/148/6
f 36/149/6 47/150/6 37/152/6
f 47/150/6 50/151/6 37/152/6
f 20/173/6 25/174/6 17/176/6
f 25/174/6 24/175/6 17/176/6
f 58/177/6 51/178/6 59/180/6
f 51/178/6 54/179/6 59/180/6
f 30/193/6 15/194/6 27/196/6
f 15/194/6 26/195/6 27/196/6
f 34/201/6 23/202/6 31/204/6
f 23/202/6 14/203/6 31/204/6
f 48/209/6 61/210/6 57/212/6
f 61/210/6 64/211/6 57/212/6
f 60/205/6 65/206/6 49/208/6
f 65/206/6 68/207/6 49/208/6
