# This file was created with Minddesk Qubicle 3.0
# Get Qubicle at www.getqubicle.com

mtllib shieldSmall2.mtl

vn 0.0 0.0 1.0
vn 0.0 0.0 -1.0
vn -1.0 0.0 0.0
vn 1.0 0.0 0.0
vn 0.0 1.0 0.0
vn 0.0 -1.0 0.0

v 6.00000 8.00000 -1.00000
v 6.00000 -5.00000 -1.00000
v -6.00000 -5.00000 -1.00000
v -6.00000 8.00000 -1.00000
v 3.00000 -5.00000 -1.00000
v 3.00000 -8.00000 -1.00000
v -3.00000 -8.00000 -1.00000
v -3.00000 -5.00000 -1.00000
v -6.00000 8.00000 1.00000
v -6.00000 -5.00000 1.00000
v 6.00000 -5.00000 1.00000
v 6.00000 8.00000 1.00000
v -3.00000 -5.00000 1.00000
v -3.00000 -8.00000 1.00000
v 3.00000 -8.00000 1.00000
v 3.00000 -5.00000 1.00000

vt 0.03125 0.43750
vt 0.03125 0.03125
vt 0.40625 0.03125
vt 0.40625 0.43750
vt 0.46875 0.43750
vt 0.46875 0.03125
vt 0.84375 0.03125
vt 0.84375 0.43750
vt 0.90625 0.43750
vt 0.90625 0.03125
vt 0.96875 0.03125
vt 0.96875 0.43750
vt 0.03125 0.90625
vt 0.03125 0.50000
vt 0.09375 0.50000
vt 0.09375 0.90625
vt 0.15625 0.59375
vt 0.15625 0.50000
vt 0.34375 0.50000
vt 0.34375 0.59375
vt 0.40625 0.59375
vt 0.40625 0.50000
vt 0.59375 0.50000
vt 0.59375 0.59375
vt 0.65625 0.59375
vt 0.65625 0.50000
vt 0.71875 0.50000
vt 0.71875 0.59375
vt 0.78125 0.59375
vt 0.78125 0.50000
vt 0.84375 0.50000
vt 0.84375 0.59375
vt 0.15625 0.71875
vt 0.15625 0.65625
vt 0.53125 0.65625
vt 0.53125 0.71875
vt 0.59375 0.71875
vt 0.59375 0.65625
vt 0.78125 0.65625
vt 0.78125 0.71875
vt 0.84375 0.71875
vt 0.84375 0.65625
vt 0.93750 0.65625
vt 0.93750 0.71875
vt 0.15625 0.84375
vt 0.15625 0.78125
vt 0.25000 0.78125
vt 0.25000 0.84375
vt 0.56250 0.03125
vt 0.75000 0.03125
vt 0.12500 0.03125
vt 0.31250 0.03125

g mtx_shieldSmall2
usemtl shieldSmall2_Material
f 4/8/2 1/5/2 2/6/2
f 2/6/2 3/7/2 4/8/2
f 3/7/2 2/6/2 5/49/2
f 5/49/2 8/50/2 3/7/2
f 6/18/2 8/20/2 5/17/2
f 6/18/2 7/19/2 8/20/2
f 12/4/1 9/1/1 10/2/1
f 10/2/1 11/3/1 12/4/1
f 11/3/1 10/2/1 13/51/1
f 13/51/1 16/52/1 11/3/1
f 14/22/1 16/24/1 13/21/1
f 14/22/1 15/23/1 16/24/1
f 3/10/3 9/12/3 4/9/3
f 3/10/3 10/11/3 9/12/3
f 7/26/3 13/28/3 8/25/3
f 7/26/3 14/27/3 13/28/3
f 11/14/4 1/16/4 12/13/4
f 11/14/4 2/15/4 1/16/4
f 15/30/4 5/32/4 16/29/4
f 15/30/4 6/31/4 5/32/4
f 4/33/5 9/34/5 1/36/5
f 9/34/5 12/35/5 1/36/5
f 14/37/6 7/38/6 15/40/6
f 7/38/6 6/39/6 15/40/6
f 10/45/6 3/46/6 13/48/6
f 3/46/6 8/47/6 13/48/6
f 16/41/6 5/42/6 11/44/6
f 5/42/6 2/43/6 11/44/6
